#N canvas 53 15 1428 990 12;
#X obj 71 720 snapshot~;
#X obj 14 671 bang~;
#X obj 77 766 change;
#X obj 80 816 sel 0;
#X obj 63 615 vline~;
#X obj 553 759 bng 19 250 50 0 empty empty empty 0 -10 0 12 #fcfcfc #000000 #000000;
#X obj 126 453 unpack 0 0 0 0 0;
#X obj 126 418 pack 0 0 0 0 1;
#X obj 258 105 vsl 19 90 1 2000 0 0 empty empty empty 0 -9 0 12 #fcfcfc #000000 #000000 0 1;
#X obj 69 449 print;
#X obj 279 105 vsl 19 90 1 2000 0 0 empty empty empty 0 -9 0 12 #fcfcfc #000000 #000000 0 1;
#X obj 202 366 t b f;
#X msg 293 557 1 728 \, 0 920 729;
#X msg 293 521 set \$1;
#X msg 226 491 add2 \$1;
#X msg 164 503 add2 \$1;
#X obj 131 514 t f b;
#X msg 172 552 addcomma;
#X msg 67 528 add2 \$1;
#X msg 50 496 add2 \$1;
#X obj 137 327 t b f;
#X obj 115 390 + 1;
#X obj 199 635 spigot;
#X obj 339 128 random 1000;
#X obj 429 129 random 1000;
#X obj 377 49 loadbang;
#X obj 364 191 + 1;
#X obj 438 189 + 1;
#X obj 103 176 cnv 1 1 20 empty ad\$0 empty 20 12 0 12 #000000 #404040 0;
#X obj 597 499 s ad\$0;
#X msg 582 423 vis_size \$1 \$2;
#X obj 515 398 * 90;
#X msg 278 636 1;
#X obj 324 689 snapshot~;
#X obj 324 649 metro 44;
#X obj 587 339 pack 20 20;
#X obj 527 127 random 1000;
#X obj 617 128 random 1000;
#X obj 565 48 loadbang;
#X obj 552 190 + 1;
#X obj 626 188 + 1;
#X obj 214 105 vsl 19 90 1 2000 0 0 empty empty empty 0 -9 0 12 #fcfcfc #000000 #000000 0 1;
#X obj 236 105 vsl 19 90 1 2000 0 0 empty empty empty 0 -9 0 12 #fcfcfc #000000 #000000 0 1;
#X obj 778 739 snapshot~;
#X obj 721 690 bang~;
#X obj 784 785 change;
#X obj 787 835 sel 0;
#X obj 770 634 vline~;
#X obj 460 760 bng 19 250 50 0 empty empty empty 0 -10 0 12 #fcfcfc #000000 #000000;
#X obj 833 472 unpack 0 0 0 0 0;
#X obj 833 437 pack 0 0 0 0 1;
#X obj 776 468 print;
#X obj 889 366 t b f;
#X msg 1000 576 1 1168.96 \, 0 1393.56 1169.96;
#X msg 1000 540 set \$1;
#X msg 933 510 add2 \$1;
#X msg 871 522 add2 \$1;
#X obj 838 533 t f b;
#X msg 879 571 addcomma;
#X msg 774 547 add2 \$1;
#X msg 757 515 add2 \$1;
#X obj 844 346 t b f;
#X obj 822 409 + 1;
#X obj 906 654 spigot;
#X msg 1289 442 vis_size \$1 \$2;
#X obj 1222 417 * 90;
#X obj 1031 708 snapshot~;
#X obj 1294 358 pack 20 20;
#X obj 103 132 tgl 19 0 empty empty empty 0 -10 0 12 #fcfcfc #000000 #000000 0 1;
#X obj 103 154 cnv 1 1 20 empty ad1\$0 empty 20 12 0 12 #000000 #404040 0;
#X obj 1304 518 s ad1\$0;
#X obj 125 132 tgl 19 0 empty empty empty 0 -10 0 12 #fcfcfc #000000 #000000 0 1;
#X obj 208 49 inlet;
#X obj 251 49 inlet;
#X obj 293 48 inlet;
#X obj 336 48 inlet;
#X obj 400 940 outlet~;
#X obj 325 939 outlet~;
#X obj 168 35 inlet;
#X obj 123 39 inlet;
#X obj 472 939 outlet;
#X obj 531 939 outlet;
#X obj 146 131 bng 19 250 50 0 empty empty empty 0 -10 0 12 #fcfcfc #000000 #000000;
#X obj 168 131 bng 19 250 50 0 empty empty empty 0 -10 0 12 #fcfcfc #000000 #000000;
#X obj 167 858 bng 19 250 50 0 empty empty empty 0 -10 0 12 #fcfcfc #000000 #000000;
#X obj 502 893 bng 19 250 50 0 empty empty empty 0 -10 0 12 #fcfcfc #000000 #000000;
#X connect 0 0 2 0;
#X connect 1 0 0 0;
#X connect 2 0 3 0;
#X connect 3 0 22 0;
#X connect 3 0 84 0;
#X connect 4 0 0 0;
#X connect 4 0 33 0;
#X connect 4 0 76 0;
#X connect 5 0 12 0;
#X connect 6 0 19 0;
#X connect 6 1 18 0;
#X connect 6 2 16 0;
#X connect 6 3 14 0;
#X connect 6 4 13 0;
#X connect 7 0 6 0;
#X connect 7 0 9 0;
#X connect 8 0 11 0;
#X connect 8 0 21 0;
#X connect 10 0 20 0;
#X connect 11 0 7 0;
#X connect 11 1 7 3;
#X connect 12 0 4 0;
#X connect 13 0 12 0;
#X connect 14 0 12 0;
#X connect 15 0 12 0;
#X connect 16 0 15 0;
#X connect 16 1 17 0;
#X connect 17 0 12 0;
#X connect 18 0 12 0;
#X connect 19 0 12 0;
#X connect 20 0 7 0;
#X connect 20 1 7 1;
#X connect 21 0 7 0;
#X connect 22 0 5 0;
#X connect 23 0 26 0;
#X connect 24 0 27 0;
#X connect 25 0 23 0;
#X connect 25 0 24 0;
#X connect 26 0 8 0;
#X connect 27 0 10 0;
#X connect 30 0 29 0;
#X connect 31 0 35 0;
#X connect 32 0 22 1;
#X connect 33 0 31 0;
#X connect 34 0 33 0;
#X connect 34 0 66 0;
#X connect 35 0 30 0;
#X connect 36 0 39 0;
#X connect 37 0 40 0;
#X connect 38 0 36 0;
#X connect 38 0 37 0;
#X connect 38 0 34 0;
#X connect 39 0 41 0;
#X connect 40 0 42 0;
#X connect 41 0 52 0;
#X connect 41 0 62 0;
#X connect 42 0 61 0;
#X connect 43 0 45 0;
#X connect 44 0 43 0;
#X connect 45 0 46 0;
#X connect 46 0 63 0;
#X connect 46 0 85 0;
#X connect 47 0 43 0;
#X connect 47 0 66 0;
#X connect 47 0 77 0;
#X connect 48 0 53 0;
#X connect 49 0 60 0;
#X connect 49 1 59 0;
#X connect 49 2 57 0;
#X connect 49 3 55 0;
#X connect 49 4 54 0;
#X connect 50 0 49 0;
#X connect 50 0 51 0;
#X connect 52 0 50 0;
#X connect 52 1 50 3;
#X connect 53 0 47 0;
#X connect 54 0 53 0;
#X connect 55 0 53 0;
#X connect 56 0 53 0;
#X connect 57 0 56 0;
#X connect 57 1 58 0;
#X connect 58 0 53 0;
#X connect 59 0 53 0;
#X connect 60 0 53 0;
#X connect 61 0 50 0;
#X connect 61 1 50 1;
#X connect 62 0 50 0;
#X connect 63 0 48 0;
#X connect 64 0 70 0;
#X connect 65 0 67 0;
#X connect 66 0 65 0;
#X connect 67 0 64 0;
#X connect 68 0 22 1;
#X connect 71 0 63 1;
#X connect 72 0 41 0;
#X connect 73 0 42 0;
#X connect 74 0 8 0;
#X connect 75 0 10 0;
#X connect 78 0 83 0;
#X connect 79 0 82 0;
#X connect 82 0 53 0;
#X connect 83 0 12 0;
#X connect 84 0 81 0;
#X connect 85 0 80 0;
#X coords 0 -1 1 1 200 100 1 100 100;
