#N canvas 1096 0 1762 1748 12;
#X declare -lib Gem;
#X obj 19 30 declare -lib Gem;
#X obj 423 267 scopeXYZ~;
#X obj 307 192 gemhead;
#X obj 443 175 cos~;
#X obj 484 175 +~ 0.25;
#X obj 484 201 cos~;
#X obj 443 235 *~;
#X obj 484 238 *~;
#X obj 308 221 rotateXYZ;
#X obj 372 175 snapshot~;
#X obj 373 126 *~ 360;
#X obj 373 151 bang;
#X obj 563 116 +~;
#X obj 200 500 gemhead;
#X obj 196 568 rectangle 0.01 10;
#X obj 335 509 gemhead;
#X obj 337 575 rectangle 10 0.01;
#X obj 196 542 translateXYZ;
#X obj 337 548 translateXYZ;
#X obj 280 482 line;
#X obj 326 480 line;
#X obj 248 409 unpack 0 0;
#X obj 99 319 random 100;
#X obj 99 357 / 100;
#X obj 100 382 * 2;
#X obj 98 420 - 1;
#X obj 178 317 random 100;
#X obj 178 355 / 100;
#X obj 179 380 * 2;
#X obj 177 418 - 1;
#X obj 117 481 pack 0 0;
#X obj 150 277 bng 19 250 50 0 empty empty empty 0 -10 0 12 #fcfcfc #000000 #000000;
#X obj 103 446 * 3;
#X obj 182 444 * 3;
#X obj 538 756 textextruded;
#X obj 291 332 gemhead;
#X obj 392 704 pack 0 0;
#X obj 614 663 translateXYZ;
#X msg 501 480 depth 0;
#X obj 408 398 translateXYZ;
#X obj 427 421 separator;
#X msg 550 446 justify left base;
#X msg 656 601 2;
#X obj 241 446 pack 0 0;
#X obj 318 440 pack 0 0;
#X obj 257 220 vsl 19 162 0 2000 0 0 empty empty empty 0 -9 0 12 #fcfcfc #000000 #000000 0 1;
#X msg 425 368 0.125;
#N canvas 0 22 927 547 gemwin 0;
#X obj 131 155 gemwin;
#X obj 67 89 outlet;
#X obj 67 10 inlet;
#X obj 67 41 route create;
#X msg 67 70 set destroy;
#X msg 142 68 set create;
#X msg 272 115 destroy;
#X msg 263 179 frame 60;
#X msg 23 113 reset \, border 0 \, dimen 1100 1200 \, create \, 1;
#X connect 2 0 3 0;
#X connect 3 0 4 0;
#X connect 3 0 8 0;
#X connect 3 1 5 0;
#X connect 3 1 6 0;
#X connect 4 0 1 0;
#X connect 5 0 1 0;
#X connect 6 0 0 0;
#X connect 7 0 0 0;
#X connect 8 0 0 0;
#X restore 557 356 pd gemwin;
#X msg 557 337 destroy;
#X text 553 316 Create window:;
#X obj 88 1663 dac~ 1 2 3 4;
#X obj 72 1531 catch~ all;
#X obj 46 1595 outputstage;
#X obj 157 1594 outputstage;
#X obj 539 1025 room, f 35;
#X obj 473 1057 throw~ mainfl;
#X obj 589 1055 throw~ mainfr;
#X obj 708 1052 throw~ mainbr;
#X obj 821 1053 throw~ mainbl;
#X obj 286 1628 scope;
#X obj 68 1420 catch~ mainfl;
#X obj 175 1420 catch~ mainfr;
#X obj 399 1422 catch~ mainbl;
#X obj 285 1423 catch~ mainbr;
#X obj 427 1621 scope;
#X obj 371 824 / 3;
#X obj 379 756 unpack 0 0;
#X obj 424 812 / 3;
#X obj 389 870 pack 0 0;
#X obj 629 889 line~;
#X msg 630 849 \$1 10;
#X obj 695 893 line~;
#X msg 696 853 \$1 10;
#X obj 537 973 *~;
#X obj 551 1629 scope;
#X obj 173 1125 scopeXYZ~;
#X obj 192 902 *~ 8;
#X obj 190 930 -~ 4;
#X obj 119 1040 gemhead;
#X obj 54 185 square 10;
#X obj 53 80 gemhead;
#X obj 47 113 color 0 0 0;
#X obj 122 861 phasor~ 100;
#X obj 603 932 phasor~ 30;
#X obj 1262 604 vsl 30 500 0 127 0 0 empty empty empty 0 -9 0 12 #fcfcfc #000000 #000000 0 1;
#X obj 538 927 osc~ 87;
#X obj 1305 604 vsl 30 500 0 127 0 0 empty empty empty 0 -9 0 12 #fcfcfc #000000 #000000 0 1;
#X msg 922 705 \$1 10000;
#X obj 830 722 line;
#X obj 856 482 bng 19 250 50 0 empty empty empty 0 -10 0 12 #fcfcfc #000000 #000000;
#X msg 1087 707 \$1 10000;
#X obj 995 724 line;
#X obj 837 547 random 10000;
#X obj 1002 549 random 10000;
#X obj 896 639 / 100;
#X obj 1041 642 / 100;
#X obj 847 334 metro 10000;
#X obj 852 298 tgl 19 0 empty empty empty 0 -10 0 12 #fcfcfc #000000 #000000 0 1;
#X obj 1034 854 line~;
#X obj 1019 1012 +~ 60;
#X obj 1020 1049 bob~;
#X obj 1032 900 pow~ 4;
#X obj 1159 798 tgl 19 0 empty empty empty 0 -10 0 12 #fcfcfc #000000 #000000 0 1;
#X obj 372 87 phasor~ 10;
#X msg 394 200 length 48000;
#X obj 976 1099 hip~ 20;
#X obj 759 947 sig~ 3;
#X obj 657 555 loadbang;
#X obj 1089 499 throw~ mainfl;
#X obj 1205 497 throw~ mainfr;
#X obj 1324 494 throw~ mainbr;
#X obj 1437 495 throw~ mainbl;
#X obj 1126 447 room, f 35;
#X obj 1121 1127 hip~ 400;
#X obj 1023 1225 rev3~, f 42;
#X obj 981 1321 throw~ mainfl;
#X obj 1097 1319 throw~ mainfr;
#X obj 1216 1316 throw~ mainbr;
#X obj 1329 1317 throw~ mainbl;
#X obj 1082 1032 sig~ 3.9;
#X msg 1123 1175 98;
#X msg 1240 1173 500;
#X msg 1286 1174 50;
#X msg 1037 827 1 \, 0 10000;
#X obj 1009 961 *~ 5000;
#X obj 116 963 expr~ if(($v1 >= 0.01 )&& ($v1 >= 0.99) \, -100 \, 0);
#X obj 1039 377 comport;
#X msg 1039 297 devices;
#X msg 1056 329 open 8 112500;
#X obj 1172 103 vsl 19 162 -5 5 0 0 empty empty empty 0 -9 0 12 #fcfcfc #000000 #000000 0 1;
#X obj 1364 52 list fromsymbol;
#X obj 1365 28 makefilename %f;
#X obj 1364 79 list prepend 111 117 116 112 117 116 91 49 93 46 118 111 108 116 115 32 61 32, f 39;
#X obj 1153 292 list append 13;
#X obj 1206 102 vsl 19 162 -5 5 0 0 empty empty empty 0 -9 0 12 #fcfcfc #000000 #000000 0 1;
#X obj 1364 146 list fromsymbol;
#X obj 1365 122 makefilename %f;
#X obj 1244 102 vsl 19 162 -5 5 0 0 empty empty empty 0 -9 0 12 #fcfcfc #000000 #000000 0 1;
#X obj 1363 237 list fromsymbol;
#X obj 1364 213 makefilename %f;
#X obj 1280 102 vsl 19 162 -5 5 0 0 empty empty empty 0 -9 0 12 #fcfcfc #000000 #000000 0 1;
#X obj 1359 328 list fromsymbol;
#X obj 1360 304 makefilename %f;
#X obj 1364 173 list prepend 111 117 116 112 117 116 91 50 93 46 118 111 108 116 115 32 61 32, f 40;
#X obj 1363 264 list prepend 111 117 116 112 117 116 91 51 93 46 118 111 108 116 115 32 61 32, f 40;
#X obj 1359 355 list prepend 111 117 116 112 117 116 91 52 93 46 118 111 108 116 115 32 61 32, f 40;
#X msg 1102 295 close;
#X msg 1161 335 99 114 111 119 46 114 101 115 101 116 40 41, f 19;
#X obj 1204 41 * 5;
#X obj 1255 41 * 5;
#X obj 1310 40 * 5;
#X obj 1153 40 * 5;
#X msg 1154 898 1;
#X msg 1175 1008 0;
#X floatatom 1158 986 5 0 0 0 - - - 0;
#X obj 1180 956 delay 10;
#X obj 1543 619 +;
#X msg 1544 568 1;
#X obj 1584 620 % 16;
#X obj 1590 724 sel 15;
#X floatatom 1574 661 5 0 0 0 - - - 0;
#X msg 1534 742 1;
#X msg 1555 852 0;
#X floatatom 1538 830 5 0 0 0 - - - 0;
#X obj 1560 800 delay 10;
#X obj 1585 750 delay 10;
#X obj 1153 837 metro 110;
#X obj 570 176 sig~ 1;
#X obj 404 1180 *~ 0.5;
#X msg 237 1023 length 4800;
#X obj 53 1630 *~ 0.1;
#X obj 108 1629 *~ 0.1;
#X obj 162 1628 *~ 0.1;
#X obj 217 1627 *~ 0.1;
#X connect 2 0 8 0;
#X connect 2 0 11 0;
#X connect 3 0 6 0;
#X connect 4 0 5 0;
#X connect 5 0 7 0;
#X connect 6 0 1 1;
#X connect 7 0 1 2;
#X connect 8 0 1 0;
#X connect 9 0 8 3;
#X connect 10 0 9 0;
#X connect 11 0 9 0;
#X connect 12 0 6 1;
#X connect 12 0 7 1;
#X connect 13 0 17 0;
#X connect 15 0 18 0;
#X connect 17 0 14 0;
#X connect 18 0 16 0;
#X connect 19 0 17 1;
#X connect 19 0 36 0;
#X connect 19 0 37 1;
#X connect 20 0 18 2;
#X connect 20 0 36 1;
#X connect 20 0 37 2;
#X connect 21 0 43 0;
#X connect 21 1 44 0;
#X connect 22 0 23 0;
#X connect 23 0 24 0;
#X connect 24 0 25 0;
#X connect 25 0 32 0;
#X connect 26 0 27 0;
#X connect 27 0 28 0;
#X connect 28 0 29 0;
#X connect 29 0 33 0;
#X connect 30 0 21 0;
#X connect 31 0 22 0;
#X connect 31 0 26 0;
#X connect 32 0 30 0;
#X connect 33 0 30 1;
#X connect 35 0 39 0;
#X connect 36 0 66 0;
#X connect 37 0 34 0;
#X connect 38 0 34 0;
#X connect 39 0 40 0;
#X connect 40 0 37 0;
#X connect 41 0 34 0;
#X connect 42 0 34 1;
#X connect 43 0 19 0;
#X connect 44 0 20 0;
#X connect 45 0 43 1;
#X connect 45 0 44 1;
#X connect 46 0 39 1;
#X connect 46 0 39 2;
#X connect 47 0 48 0;
#X connect 48 0 47 0;
#X connect 51 0 52 0;
#X connect 51 0 52 1;
#X connect 51 0 53 0;
#X connect 51 0 53 1;
#X connect 52 0 59 0;
#X connect 52 0 170 0;
#X connect 52 1 171 0;
#X connect 53 0 172 0;
#X connect 53 1 173 0;
#X connect 54 0 55 0;
#X connect 54 1 56 0;
#X connect 54 2 57 0;
#X connect 54 3 58 0;
#X connect 60 0 52 0;
#X connect 61 0 52 1;
#X connect 62 0 53 1;
#X connect 63 0 53 0;
#X connect 65 0 68 0;
#X connect 65 0 70 0;
#X connect 66 0 65 0;
#X connect 66 1 67 0;
#X connect 67 0 68 1;
#X connect 67 0 72 0;
#X connect 68 0 34 0;
#X connect 69 0 54 1;
#X connect 70 0 69 0;
#X connect 71 0 54 2;
#X connect 72 0 71 0;
#X connect 73 0 100 0;
#X connect 73 0 168 0;
#X connect 76 0 77 0;
#X connect 77 0 75 2;
#X connect 78 0 75 0;
#X connect 80 0 81 0;
#X connect 81 0 79 0;
#X connect 82 0 76 0;
#X connect 82 0 125 0;
#X connect 83 0 73 1;
#X connect 84 0 83 0;
#X connect 85 0 73 0;
#X connect 86 0 85 0;
#X connect 87 0 88 0;
#X connect 88 0 84 0;
#X connect 89 0 92 0;
#X connect 89 0 93 0;
#X connect 89 0 31 0;
#X connect 90 0 91 0;
#X connect 91 0 86 0;
#X connect 92 0 94 0;
#X connect 93 0 95 0;
#X connect 94 0 87 0;
#X connect 95 0 90 0;
#X connect 96 0 89 0;
#X connect 97 0 96 0;
#X connect 98 0 101 0;
#X connect 99 0 100 1;
#X connect 100 0 12 0;
#X connect 100 0 105 0;
#X connect 101 0 124 0;
#X connect 102 0 166 0;
#X connect 103 0 3 0;
#X connect 103 0 4 0;
#X connect 103 0 10 0;
#X connect 104 0 1 0;
#X connect 105 0 54 0;
#X connect 105 0 113 0;
#X connect 106 0 54 3;
#X connect 107 0 42 0;
#X connect 107 0 104 0;
#X connect 107 0 169 0;
#X connect 112 0 108 0;
#X connect 112 1 109 0;
#X connect 112 2 110 0;
#X connect 112 3 111 0;
#X connect 113 0 114 0;
#X connect 113 0 114 1;
#X connect 114 0 115 0;
#X connect 114 1 116 0;
#X connect 114 2 117 0;
#X connect 114 3 118 0;
#X connect 119 0 100 2;
#X connect 120 0 114 2;
#X connect 120 0 114 3;
#X connect 121 0 114 4;
#X connect 122 0 114 5;
#X connect 123 0 98 0;
#X connect 124 0 99 0;
#X connect 125 0 75 3;
#X connect 127 0 126 0;
#X connect 128 0 126 0;
#X connect 129 0 131 0;
#X connect 130 0 132 0;
#X connect 131 0 130 0;
#X connect 132 0 133 0;
#X connect 133 0 126 0;
#X connect 134 0 136 0;
#X connect 135 0 143 0;
#X connect 136 0 135 0;
#X connect 137 0 139 0;
#X connect 138 0 144 0;
#X connect 139 0 138 0;
#X connect 140 0 142 0;
#X connect 141 0 145 0;
#X connect 142 0 141 0;
#X connect 143 0 133 0;
#X connect 144 0 133 0;
#X connect 145 0 133 0;
#X connect 146 0 126 0;
#X connect 147 0 126 0;
#X connect 148 0 134 0;
#X connect 149 0 137 0;
#X connect 150 0 140 0;
#X connect 151 0 129 0;
#X connect 152 0 154 0;
#X connect 153 0 154 0;
#X connect 154 0 151 0;
#X connect 155 0 153 0;
#X connect 156 0 158 0;
#X connect 157 0 156 0;
#X connect 158 0 156 1;
#X connect 158 0 160 0;
#X connect 158 0 159 0;
#X connect 159 0 165 0;
#X connect 161 0 163 0;
#X connect 162 0 163 0;
#X connect 163 0 148 0;
#X connect 164 0 162 0;
#X connect 165 0 164 0;
#X connect 165 0 161 0;
#X connect 166 0 152 0;
#X connect 166 0 155 0;
#X connect 166 0 157 0;
#X connect 167 0 7 1;
#X connect 167 0 6 1;
#X connect 168 0 75 1;
#X connect 169 0 75 0;
#X connect 170 0 50 0;
#X connect 171 0 50 1;
#X connect 172 0 50 2;
#X connect 173 0 50 3;
