#N canvas 836 0 930 1148 12;
#X obj 300 170 send clock;
#X obj 245 140 +;
#X msg 243 110 1;
#X floatatom 303 137 5 0 0 0 - - - 0;
#X obj 244 54 tgl 19 0 empty empty empty 0 -10 0 12 #fcfcfc #000000 #000000 0 1;
#X obj 723 58 receive clock;
#X floatatom 723 98 5 0 0 0 - - - 0;
#X obj 480 261 phasor~;
#X obj 550 258 phasor~;
#X obj 629 259 phasor~;
#X obj 446 324 lop~ 300;
#X obj 558 322 lop~ 300;
#X obj 644 325 lop~ 300;
#X obj 479 228 mtof~;
#X obj 556 227 mtof~;
#X obj 631 224 mtof~;
#X obj 633 195 + 7;
#X floatatom 485 156 5 0 0 0 - - - 0;
#X obj 456 293 hip~ 3;
#X obj 560 292 hip~ 3;
#X obj 637 294 hip~ 3;
#X obj 511 418 /~ 3;
#X obj 464 519 dac~ 1 2;
#X obj 509 469 *~ 0.5;
#X msg 476 117 40;
#X obj 373 129 % 4;
#X obj 244 82 metro 3000;
#X floatatom 393 174 5 0 0 0 - - - 0;
#X obj 496 29 sel 0 1 2 3;
#X obj 491 70 bng 19 250 50 0 empty empty empty 0 -10 0 12 #fcfcfc #000000 #000000;
#X obj 515 73 bng 19 250 50 0 empty empty empty 0 -10 0 12 #fcfcfc #000000 #000000;
#X obj 549 72 bng 19 250 50 0 empty empty empty 0 -10 0 12 #fcfcfc #000000 #000000;
#X obj 583 71 bng 19 250 50 0 empty empty empty 0 -10 0 12 #fcfcfc #000000 #000000;
#X msg 521 116 60;
#X msg 562 117 48;
#X msg 602 118 67;
#X obj 558 197 + 3;
#X obj 399 205 bng 19 250 50 0 empty empty empty 0 -10 0 12 #fcfcfc #000000 #000000;
#X obj 512 443 *~;
#X msg 293 257 0 \, 1 1000 1 \, 0 1000 1010;
#X obj 291 302 vline~;
#X connect 1 0 3 0;
#X connect 2 0 1 0;
#X connect 3 0 1 1;
#X connect 3 0 0 0;
#X connect 3 0 25 0;
#X connect 4 0 26 0;
#X connect 5 0 6 0;
#X connect 7 0 18 0;
#X connect 8 0 19 0;
#X connect 9 0 20 0;
#X connect 10 0 21 0;
#X connect 11 0 21 0;
#X connect 12 0 21 0;
#X connect 13 0 7 0;
#X connect 14 0 8 0;
#X connect 15 0 9 0;
#X connect 16 0 15 0;
#X connect 17 0 13 0;
#X connect 17 0 16 0;
#X connect 17 0 36 0;
#X connect 18 0 10 0;
#X connect 19 0 11 0;
#X connect 20 0 12 0;
#X connect 21 0 38 0;
#X connect 23 0 22 0;
#X connect 23 0 22 1;
#X connect 24 0 17 0;
#X connect 25 0 27 0;
#X connect 26 0 2 0;
#X connect 27 0 28 0;
#X connect 27 0 37 0;
#X connect 28 0 29 0;
#X connect 28 1 30 0;
#X connect 28 2 31 0;
#X connect 28 3 32 0;
#X connect 29 0 24 0;
#X connect 30 0 33 0;
#X connect 31 0 34 0;
#X connect 32 0 35 0;
#X connect 33 0 17 0;
#X connect 34 0 17 0;
#X connect 35 0 17 0;
#X connect 36 0 14 0;
#X connect 37 0 39 0;
#X connect 38 0 23 0;
#X connect 39 0 40 0;
#X connect 40 0 38 1;
