#N canvas 621 367 1920 1109 12;
#N canvas 26 26 1920 1109 (subpatch) 1;
#X obj 222 328 delread4~ del1;
#X obj 212 394 +~;
#X obj 223 559 +~;
#X obj 233 493 delread4~ del2;
#X obj 346 296 sig~ 40;
#X obj 448 299 vsl 19 162 0 50 0 0 empty empty empty 0 -9 0 12 #fcfcfc #000000 #000000 0 1;
#X obj 224 588 delwrite~ del2 1000;
#X obj 213 423 delwrite~ del1 1000;
#X obj 227 364 *~ 0.8;
#X obj 238 529 *~ 0.8;
#X obj 660 390 +~;
#X obj 671 555 +~;
#X obj 896 295 vsl 19 162 0 50 0 0 empty empty empty 0 -9 0 12 #fcfcfc #000000 #000000 0 1;
#X obj 675 360 *~ 0.8;
#X obj 686 525 *~ 0.8;
#X obj 874 175 bng 19 250 50 0 empty empty empty 0 -10 0 12 #fcfcfc #000000 #000000;
#X obj 661 419 delwrite~ del3 1000;
#X obj 670 324 delread4~ del3;
#X obj 681 489 delread4~ del4;
#X obj 686 603 delwrite~ del4 1000;
#X obj 478 336 sig~ 40;
#X obj 580 339 vsl 19 162 0 50 0 0 empty empty empty 0 -9 0 12 #fcfcfc #000000 #000000 0 1;
#X obj 1052 328 vsl 19 162 0 50 0 0 empty empty empty 0 -9 0 12 #fcfcfc #000000 #000000 0 1;
#X obj 1167 425 +~;
#X obj 1178 590 +~;
#X obj 1403 330 vsl 19 162 0 50 0 0 empty empty empty 0 -9 0 12 #fcfcfc #000000 #000000 0 1;
#X obj 1182 395 *~ 0.8;
#X obj 1193 560 *~ 0.8;
#X obj 1381 210 bng 19 250 50 0 empty empty empty 0 -10 0 12 #fcfcfc #000000 #000000;
#X obj 1559 363 vsl 19 162 0 50 0 0 empty empty empty 0 -9 0 12 #fcfcfc #000000 #000000 0 1;
#X obj 1177 359 delread4~ del5;
#X obj 1168 454 delwrite~ del5 1000;
#X obj 1193 638 delwrite~ del7 1000;
#X obj 1188 524 delread4~ del7;
#X obj 1682 435 +~;
#X obj 1693 600 +~;
#X obj 1918 340 vsl 19 162 0 50 0 0 empty empty empty 0 -9 0 12 #fcfcfc #000000 #000000 0 1;
#X obj 1697 405 *~ 0.8;
#X obj 1708 570 *~ 0.8;
#X obj 1896 220 bng 19 250 50 0 empty empty empty 0 -10 0 12 #fcfcfc #000000 #000000;
#X obj 1972 370 sig~ 40;
#X obj 2074 373 vsl 19 162 0 50 0 0 empty empty empty 0 -9 0 12 #fcfcfc #000000 #000000 0 1;
#X obj 1683 464 delwrite~ del6 1000;
#X obj 1692 369 delread4~ del6;
#X obj 1703 534 delread4~ del8;
#X obj 1708 648 delwrite~ del8 1000;
#X obj 182 313 *~ 1;
#X obj 257 913 *~ 0.2;
#X obj 207 238 *~ 1;
#X obj 179 454 *~ 0.5;
#X obj 223 645 *~ 0.5;
#X obj 627 450 *~ 0.5;
#X obj 671 641 *~ 0.5;
#X obj 1134 485 *~ 0.5;
#X obj 1178 676 *~ 0.5;
#X obj 1649 495 *~ 0.5;
#X obj 1693 686 *~ 0.5;
#X obj 321 915 *~ 0.2;
#X obj 109 218 hip~ 20;
#X obj 833 120 metro 100;
#X obj 847 70 tgl 19 0 empty empty empty 0 -10 0 12 #fcfcfc #000000 #000000 0 1;
#X msg 467 547 0.5;
#X obj 259 971 outlet~;
#X obj 336 966 outlet~;
#X obj 491 951 block~ 1;
#X obj 419 228 random 100;
#X obj 551 268 random 100;
#X obj 794 292 sig~ 100;
#X obj 950 325 sig~ 100;
#X obj 1023 257 random 100;
#X obj 1301 327 sig~ 100;
#X obj 1457 360 sig~ 100;
#X obj 1816 337 sig~ 100;
#X obj 1889 269 random 100;
#X obj 2045 302 random 100;
#X obj 1530 292 random 100;
#X obj 1374 259 random 100;
#X obj 867 224 random 100;
#X obj 130 140 phasor~ 60;
#X connect 0 0 8 0;
#X connect 1 0 7 0;
#X connect 1 0 49 0;
#X connect 2 0 6 0;
#X connect 2 0 50 0;
#X connect 3 0 9 0;
#X connect 4 0 0 0;
#X connect 5 0 4 0;
#X connect 8 0 1 1;
#X connect 9 0 2 1;
#X connect 10 0 16 0;
#X connect 10 0 51 0;
#X connect 11 0 19 0;
#X connect 11 0 52 0;
#X connect 12 0 67 0;
#X connect 13 0 10 1;
#X connect 14 0 11 1;
#X connect 15 0 28 0;
#X connect 15 0 65 0;
#X connect 15 0 66 0;
#X connect 15 0 69 0;
#X connect 15 0 77 0;
#X connect 17 0 13 0;
#X connect 18 0 14 0;
#X connect 20 0 3 0;
#X connect 21 0 20 0;
#X connect 22 0 68 0;
#X connect 23 0 31 0;
#X connect 23 0 53 0;
#X connect 24 0 32 0;
#X connect 24 0 54 0;
#X connect 25 0 70 0;
#X connect 26 0 23 1;
#X connect 27 0 24 1;
#X connect 28 0 39 0;
#X connect 28 0 75 0;
#X connect 28 0 76 0;
#X connect 29 0 71 0;
#X connect 30 0 26 0;
#X connect 33 0 27 0;
#X connect 34 0 42 0;
#X connect 34 0 55 0;
#X connect 35 0 45 0;
#X connect 35 0 56 0;
#X connect 36 0 72 0;
#X connect 37 0 34 1;
#X connect 38 0 35 1;
#X connect 39 0 73 0;
#X connect 39 0 74 0;
#X connect 40 0 44 0;
#X connect 41 0 40 0;
#X connect 43 0 37 0;
#X connect 44 0 38 0;
#X connect 46 0 1 0;
#X connect 47 0 62 0;
#X connect 48 0 34 0;
#X connect 48 0 23 0;
#X connect 48 0 10 0;
#X connect 48 0 46 0;
#X connect 49 0 2 0;
#X connect 50 0 47 0;
#X connect 51 0 11 0;
#X connect 52 0 47 0;
#X connect 53 0 24 0;
#X connect 54 0 57 0;
#X connect 55 0 35 0;
#X connect 56 0 57 0;
#X connect 57 0 63 0;
#X connect 58 0 48 0;
#X connect 59 0 15 0;
#X connect 60 0 59 0;
#X connect 61 0 14 1;
#X connect 61 0 38 1;
#X connect 61 0 37 1;
#X connect 61 0 27 1;
#X connect 61 0 26 1;
#X connect 61 0 13 1;
#X connect 61 0 8 1;
#X connect 61 0 9 1;
#X connect 65 0 5 0;
#X connect 66 0 21 0;
#X connect 67 0 17 0;
#X connect 68 0 18 0;
#X connect 69 0 22 0;
#X connect 70 0 30 0;
#X connect 71 0 33 0;
#X connect 72 0 43 0;
#X connect 73 0 36 0;
#X connect 74 0 41 0;
#X connect 75 0 29 0;
#X connect 76 0 25 0;
#X connect 77 0 12 0;
#X connect 78 0 58 0;
#X restore 693 707 pd;
#X obj 664 805 dac~ 1 2;
#X obj 659 765 *~ 1;
#X obj 724 772 *~ 1;
#X connect 0 0 2 0;
#X connect 0 1 3 0;
#X connect 2 0 1 0;
#X connect 3 0 1 1;
