#N canvas 1 1 2871 751 12;
#X obj 47 414 dac~ 1 2;
#X obj 38 358 outputstage;
#X obj 32 382 *~ 0.5;
#X obj 95 383 *~ 0.5;
#X msg 2703 165 tempo \$1;
#X msg 2604 163 reset \$1 \$2;
#X obj 2604 142 pack f f;
#X floatatom 2711 231 5 0 0 1 phase - - 0;
#X msg 2706 56 \; pd dsp 1;
#X obj 2520 143 tgl 15 0 empty empty empty 17 7 0 10 #fcfcfc #000000 #000000 0 1;
#X obj 2710 200 abl_link~ 1 0 4 134;
#X floatatom 2703 146 5 0 0 2 tempo - - 0;
#X floatatom 2649 123 5 0 0 2 quantum - - 0;
#X floatatom 2604 123 5 0 0 2 beat - - 0;
#X msg 2520 164 connect \$1;
#X floatatom 2707 31 5 0 0 0 - - - 0;
#X obj 2707 9 r #abl_link_num_peers;
#X floatatom 2773 146 5 0 0 0 - - - 0;
#X msg 2773 165 offset \$1;
#X obj 24 86 adc~ 1 2;
#X obj 21 189 scope;
#X obj 121 189 scope;
#X obj 40 313 *~ 2;
#X obj 80 314 *~ 2;
#X msg 2797 388 1 \, 0 10;
#X obj 2798 421 line~;
#X obj 2709 350 bng 19 250 50 0 empty empty empty 0 -10 0 12 #fcfcfc #000000 #000000;
#X msg 2781 108 -173;
#X msg 2605 82 4;
#X msg 2647 83 32;
#X obj 2710 266 * 4;
#X obj 2710 296 int;
#X obj 2709 319 change;
#X obj 40 523 vu 19 200 empty empty -1 -10 0 12 #000000 #000000 1 0;
#X obj 101 521 vu 19 200 empty empty -1 -10 0 12 #202020 #000000 1 0;
#N canvas 329 161 625 417 vu 0;
#X obj 59 129 env~ 1024;
#X obj 161 111 abs~;
#X obj 161 213 snapshot~;
#X obj 161 256 rmstodb;
#X obj 161 21 inlet~;
#X obj 161 288 - 100;
#X obj 59 287 - 100;
#X obj 59 361 outlet;
#X obj 161 361 outlet;
#X text 344 307 Check the help file of env~ and slop~ for more details., f 31;
#X obj 239 89 expr 1000 / $f1;
#X floatatom 239 117 5 0 0 0 - - - 0;
#X obj 161 146 slop~ 0 0 0 0 1e+09;
#X obj 239 18 inlet;
#X floatatom 239 57 5 0 0 0 - - - 0;
#X text 359 89 convert to hz;
#X text 282 118 hz;
#X text 284 57 peak decay time in ms;
#X obj 59 171 t f b;
#X text 345 132 The env~ object is dedicated to RMS analysis. Its output is in dB (0-100 range \, pd style) but needs to be converted to dBFS (and we do that by simply subtracting 100)., f 31;
#X text 345 225 The slop~ object is used here for peak detection. We need to convert the output to dB with rmstodb and also subtract by 100 to convert it to dBFS., f 31;
#X connect 0 0 18 0;
#X connect 1 0 12 0;
#X connect 2 0 3 0;
#X connect 3 0 5 0;
#X connect 4 0 0 0;
#X connect 4 0 1 0;
#X connect 5 0 8 0;
#X connect 6 0 7 0;
#X connect 10 0 11 0;
#X connect 11 0 12 3;
#X connect 12 0 2 0;
#X connect 13 0 14 0;
#X connect 14 0 10 0;
#X connect 18 0 6 0;
#X connect 18 1 2 0;
#X restore 31 488 pd vu;
#N canvas 329 161 625 417 vu 0;
#X obj 59 129 env~ 1024;
#X obj 161 111 abs~;
#X obj 161 213 snapshot~;
#X obj 161 256 rmstodb;
#X obj 161 21 inlet~;
#X obj 161 288 - 100;
#X obj 59 287 - 100;
#X obj 59 361 outlet;
#X obj 161 361 outlet;
#X text 344 307 Check the help file of env~ and slop~ for more details., f 31;
#X obj 239 89 expr 1000 / $f1;
#X floatatom 239 117 5 0 0 0 - - - 0;
#X obj 161 146 slop~ 0 0 0 0 1e+09;
#X obj 239 18 inlet;
#X floatatom 239 57 5 0 0 0 - - - 0;
#X text 359 89 convert to hz;
#X text 282 118 hz;
#X text 284 57 peak decay time in ms;
#X obj 59 171 t f b;
#X text 345 132 The env~ object is dedicated to RMS analysis. Its output is in dB (0-100 range \, pd style) but needs to be converted to dBFS (and we do that by simply subtracting 100)., f 31;
#X text 345 225 The slop~ object is used here for peak detection. We need to convert the output to dB with rmstodb and also subtract by 100 to convert it to dBFS., f 31;
#X connect 0 0 18 0;
#X connect 1 0 12 0;
#X connect 2 0 3 0;
#X connect 3 0 5 0;
#X connect 4 0 0 0;
#X connect 4 0 1 0;
#X connect 5 0 8 0;
#X connect 6 0 7 0;
#X connect 10 0 11 0;
#X connect 11 0 12 3;
#X connect 12 0 2 0;
#X connect 13 0 14 0;
#X connect 14 0 10 0;
#X connect 18 0 6 0;
#X connect 18 1 2 0;
#X restore 96 481 pd vu;
#X msg 77 450 500;
#X obj 2713 409 osc~ 600;
#X obj 2711 382 random 5000;
#N canvas 0 50 450 250 (subpatch) 0;
#X array kikpat 16 float 3;
#A 0 0 0 0 0 0 0 0 0 0 0 0 0 0 0 0 0;
#X coords 0 1 16 -1 400 100 1 0 0;
#X restore 2150 641 graph;
#N canvas 0 50 450 250 (subpatch) 0;
#X array kikpat 16 float 3;
#A 0 0 0 0 0 0 0 0 0 0 0 0 0 0 0 0 0;
#X coords 0 1 16 -1 400 100 1 0 0;
#X restore 2204 522 graph;
#N canvas 0 50 450 250 (subpatch) 0;
#X array kikpat 16 float 3;
#A 0 0 0 0 0 0 0 0 0 0 0 0 0 0 0 0 0;
#X coords 0 1 16 -1 400 100 1 0 0;
#X restore 2150 405 graph;
#X obj 123 315 catch~ l;
#X obj 267 317 catch~ r;
#X obj 196 316 catch~ m;
#X obj 1091 182 fold~;
#X obj 1144 577 scope;
#X obj 1362 234 line~;
#X obj 1248 332 *~;
#X obj 1306 82 bng 19 250 50 0 empty empty empty 0 -10 0 12 #fcfcfc #000000 #000000;
#X obj 1272 510 rev3~, f 13;
#X msg 1348 433 500;
#X msg 1365 212 1 \, 0 \$1;
#X obj 1306 51 metro 100;
#X obj 1308 21 tgl 19 0 empty empty empty 0 -10 0 12 #fcfcfc #000000 #000000 0 1;
#X obj 1387 73 + 100;
#X obj 1352 374 *~ 20000;
#X obj 1212 281 bob~ 1, f 7;
#X msg 1363 466 60;
#X obj 1453 353 sig~;
#X obj 1455 323 random 10000;
#X obj 1091 151 osc~;
#X obj 1083 93 random 200;
#X obj 1450 384 lop~ 0.1;
#X obj 1338 261 lop~ 1000;
#X obj 1075 219 *~;
#X obj 1084 121 sig~;
#X obj 1039 177 vsl 19 162 0 1 0 0 empty empty empty 0 -9 0 12 #fcfcfc #000000 #000000 0 1;
#X obj 1078 321 throw~ self;
#X obj 1125 387 catch~ self;
#X obj 1495 212 / 1000;
#X obj 1499 186 random 1000;
#X obj 1598 222 / 1000;
#X obj 1597 192 random 1000;
#X obj 1567 357 sig~;
#X obj 1559 410 lop~ 1;
#X obj 1453 499 *~;
#X obj 1696 194 random 1000;
#X obj 1696 219 sig~;
#X obj 1697 247 lop~ 1;
#X obj 1120 411 *~;
#X obj 1239 426 hip~ 10;
#X obj 1407 183 random 1000;
#X obj 1553 451 *~ 1.5;
#X obj 1320 301 pow~ 8;
#X obj 1390 38 random 1000;
#X obj 1280 578 throw~ l;
#X obj 1350 601 throw~ r;
#X obj 1243 456 *~ 0.5;
#X obj 1445 443 lop~ 2000;
#X obj 1625 427 vsl 19 162 0 1 0 0 empty empty empty 0 -9 0 12 #fcfcfc #000000 #000000 0 1;
#X obj 1419 623 line~;
#X msg 1422 600 \$1 100;
#X obj 1280 658 *~;
#X obj 1341 662 *~;
#X msg 1313 462 98;
#X obj 222 74 cnv 1 326 10 empty playhead empty 20 12 0 12 #000000 #ffffff 0;
#X msg 699 506 vis_size \$1 \$2;
#X obj 701 537 s playhead;
#X obj 699 478 pack 100 10;
#X obj 701 423 snapshot~;
#X obj 666 301 vline~;
#X obj 349 269 soundfiler;
#X floatatom 416 296 5 0 0 0 - - - 0;
#X floatatom 349 296 5 0 0 0 - - - 0;
#X obj 349 216 openpanel;
#X obj 115 19 bng 100 250 50 0 empty empty empty 0 -10 0 12 #fcfcfc #000000 #000000;
#X obj 724 371 tgl 19 0 empty empty empty 0 -10 0 12 #fcfcfc #000000 #000000 0 1;
#X obj 676 564 tabread4~ kik;
#X msg 349 244 read -resize \$1 kik;
#N canvas 234 234 450 250 (subpatch) 0;
#X array kik 3.6793e+06 float 0;
#X coords 0 1 3.6793e+06 -1 400 50 1 0 0;
#X restore 222 19 graph;
#X obj 221 100 hsl 400 8 0 1 0 0 end empty empty -2 -10 0 12 #fcfcfc #000000 #000000 0 1;
#X obj 221 90 hsl 400 8 0 1 0 0 start empty empty -2 -10 0 12 #fcfcfc #000000 #000000 0 1;
#X obj 349 355 s range;
#X obj 347 385 r start;
#X obj 403 384 r end;
#X obj 347 412 *;
#X obj 445 381 r range;
#X obj 403 418 *;
#X floatatom 348 444 5 0 0 0 - - - 0;
#X floatatom 403 446 5 0 0 0 - - - 0;
#X obj 365 510 pack 0 0 0;
#X obj 349 710 t b b;
#X obj 505 378 -;
#X obj 505 406 abs;
#X floatatom 505 447 5 0 0 0 - - - 0;
#X obj 350 477 t b f;
#X obj 499 337 t b f;
#X obj 401 475 t b f;
#X obj 505 473 / 44100;
#X obj 386 538 unpack 0 0 0;
#X msg 511 605 set \$1;
#X msg 499 183 923172 \, 3.00381e+06 35635.3;
#X obj 446 577 t f b;
#X msg 478 638 addcomma;
#X msg 446 608 add2 \$1;
#X msg 380 577 add2 \$1;
#X obj 689 336 /~;
#X obj 700 453 * 400;
#X obj 501 505 * 500;
#X obj 602 419 vsl 19 162 0 2000 0 0 empty empty empty 0 -9 0 12 #fcfcfc #000000 #000000 0 1;
#X obj 596 611 t b f;
#X msg 666 274 0;
#X obj 407 356 bng 19 250 50 0 empty empty empty 0 -10 0 12 #fcfcfc #000000 #000000;
#X obj 340 611 spigot;
#X obj 349 680 bng 19 250 50 0 empty empty empty 0 -10 0 12 #fcfcfc #000000 #000000;
#X obj 732 17 tgl 100 0 empty empty empty 0 -10 0 12 #fcfcfc #000000 #000000 0 1;
#X obj 347 647 delay 100;
#X obj 495 243 random 100000;
#X obj 496 270 / 100000;
#X obj 595 246 random 100000;
#X obj 595 273 / 100000;
#X obj 557 362 / 100000;
#X obj 629 17 bng 100 250 50 0 empty empty empty 0 -10 0 12 #fcfcfc #000000 #000000;
#X obj 336 579 t b b;
#X obj 626 774 rev3~, f 24;
#X obj 724 348 loadbang;
#X obj 498 125 sel 0;
#X msg 497 151 stop;
#X obj 672 662 hip~ 20;
#X obj 634 663 *~ 1;
#X obj 685 692 *~ 1;
#X obj 707 398 metro 30;
#X obj 730 657 hip~ 20;
#X obj 743 687 *~ 1;
#X obj 761 712 loadbang;
#X obj 668 614 hip~ 3;
#X obj 835 16 bng 100 250 50 0 empty empty empty 0 -10 0 12 #fcfcfc #000000 #000000;
#X obj 398 737 spigot;
#X obj 938 16 tgl 100 0 empty empty empty 0 -10 0 12 #fcfcfc #000000 #000000 0 1;
#X obj 406 704 sel 0;
#X obj 406 678 random 2;
#X obj 961 561 *~;
#X obj 527 775 throw~ tospec;
#N canvas 208 53 1118 1109 spec 0;
#X obj 68 136 lop~ 100;
#X obj 66 194 bp~ 150 10, f 16;
#X obj 67 251 bp~ 250 10, f 16;
#X obj 66 308 bp~ 350 10, f 16;
#X obj 70 358 bp~ 500 10, f 16;
#X obj 70 418 bp~ 630 10, f 16;
#X obj 67 475 bp~ 800 10, f 16;
#X obj 68 528 bp~ 1000 10, f 16;
#X obj 68 584 bp~ 1300 10, f 16;
#X obj 63 642 bp~ 1600 10, f 16;
#X obj 63 698 bp~ 2000 10, f 16;
#X obj 56 752 bp~ 3500 10, f 16;
#X obj 57 806 bp~ 5000 10, f 16;
#X obj 58 860 bp~ 8000 10, f 16;
#X obj 58 914 hip~ 10000, f 16;
#X obj 47 112 +~;
#X obj 69 165 delwrite~ 100hz 2000;
#X obj 66 224 delwrite~ 150hz 2000;
#X obj 67 333 delwrite~ 350hz 2000;
#X obj 71 389 delwrite~ 500hz 2000;
#X obj 68 442 delwrite~ 630hz 2000;
#X obj 65 278 delwrite~ 250hz 2000;
#X obj 67 500 delwrite~ 800hz 2000;
#X obj 67 553 delwrite~ 1000hz 2000;
#X obj 58 939 delwrite~ 10000hz 2000;
#X obj 56 882 delwrite~ 8000hz 2000;
#X obj 54 834 delwrite~ 5000hz 2000;
#X obj 57 779 delwrite~ 3500hz 2000;
#X obj 60 729 delwrite~ 2000hz 2000;
#X obj 64 670 delwrite~ 1600hz 2000;
#X obj 69 611 delwrite~ 1300hz 2000;
#X obj 300 882 delread4~ 5000hz;
#X obj 300 909 delread4~ 8000hz;
#X obj 297 939 delread4~ 10000hz;
#X obj 285 548 delread4~ 100hz;
#X obj 285 573 delread4~ 150hz;
#X obj 285 599 delread4~ 250hz;
#X obj 288 626 delread4~ 350hz;
#X obj 292 651 delread4~ 500hz;
#X obj 294 680 delread4~ 630hz;
#X obj 297 707 delread4~ 800hz;
#X obj 293 734 delread4~ 1000hz;
#X obj 294 761 delread4~ 1300hz;
#X obj 292 790 delread4~ 1600hz;
#X obj 294 817 delread4~ 2000hz;
#X obj 297 850 delread4~ 3500hz;
#X obj 304 133 random 2000;
#X obj 304 158 random 2000;
#X obj 304 186 random 2000;
#X obj 305 211 random 2000;
#X obj 308 236 random 2000;
#X obj 310 265 random 2000;
#X obj 311 291 random 2000;
#X obj 307 322 random 2000;
#X obj 266 133 bng 19 250 50 0 empty empty empty 0 -10 0 12 #fcfcfc #000000 #000000;
#X obj 309 347 random 2000;
#X obj 306 373 random 2000;
#X obj 308 403 random 2000;
#X obj 311 438 random 2000;
#X obj 315 468 random 2000;
#X obj 312 495 random 2000;
#X obj 313 524 random 2000;
#X obj 266 78 tgl 19 0 empty empty empty 0 -10 0 12 #fcfcfc #000000 #000000 0 1;
#X msg 240 570 \$1;
#X obj 244 393 vsl 19 162 0 100 0 0 empty empty empty 0 -9 0 12 #fcfcfc #000000 #000000 0 1;
#X obj 267 104 metro 10000;
#X obj 284 986 *~ 1;
#X obj 442 131 lop~ 100;
#X obj 440 189 bp~ 150 10, f 16;
#X obj 441 246 bp~ 250 10, f 16;
#X obj 440 303 bp~ 350 10, f 16;
#X obj 444 353 bp~ 500 10, f 16;
#X obj 444 413 bp~ 630 10, f 16;
#X obj 441 470 bp~ 800 10, f 16;
#X obj 442 523 bp~ 1000 10, f 16;
#X obj 442 579 bp~ 1300 10, f 16;
#X obj 437 637 bp~ 1600 10, f 16;
#X obj 437 693 bp~ 2000 10, f 16;
#X obj 430 747 bp~ 3500 10, f 16;
#X obj 431 801 bp~ 5000 10, f 16;
#X obj 432 855 bp~ 8000 10, f 16;
#X obj 432 909 hip~ 10000, f 16;
#X obj 421 107 +~;
#X obj 678 128 random 2000;
#X obj 678 153 random 2000;
#X obj 678 181 random 2000;
#X obj 679 206 random 2000;
#X obj 682 231 random 2000;
#X obj 684 260 random 2000;
#X obj 685 286 random 2000;
#X obj 681 317 random 2000;
#X obj 640 128 bng 19 250 50 0 empty empty empty 0 -10 0 12 #fcfcfc #000000 #000000;
#X obj 683 342 random 2000;
#X obj 680 368 random 2000;
#X obj 682 398 random 2000;
#X obj 685 433 random 2000;
#X obj 689 463 random 2000;
#X obj 686 490 random 2000;
#X obj 687 519 random 2000;
#X msg 614 565 \$1;
#X obj 618 388 vsl 19 162 0 100 0 0 empty empty empty 0 -9 0 12 #fcfcfc #000000 #000000 0 1;
#X obj 590 996 *~ 1;
#X obj 443 160 delwrite~ 100hzr 2000;
#X obj 440 219 delwrite~ 150hzr 2000;
#X obj 439 273 delwrite~ 250hzr 2000;
#X obj 441 328 delwrite~ 350hzr 2000;
#X obj 445 384 delwrite~ 500hzr 2000;
#X obj 442 437 delwrite~ 630hzr 2000;
#X obj 441 495 delwrite~ 800hzr 2000;
#X obj 441 548 delwrite~ 1000hzr 2000;
#X obj 443 606 delwrite~ 1300hzr 2000;
#X obj 438 665 delwrite~ 1600hzr 2000;
#X obj 434 724 delwrite~ 2000hzr 2000;
#X obj 431 774 delwrite~ 3500hzr 2000;
#X obj 428 829 delwrite~ 5000hzr 2000;
#X obj 430 877 delwrite~ 8000hzr 2000;
#X obj 432 934 delwrite~ 10000hzr 2000;
#X obj 671 934 delread4~ 10000hzr;
#X obj 674 904 delread4~ 8000hzr;
#X obj 674 877 delread4~ 5000hzr;
#X obj 671 845 delread4~ 3500hzr;
#X obj 668 812 delread4~ 2000hzr;
#X obj 666 785 delread4~ 1600hzr;
#X obj 668 756 delread4~ 1300hzr;
#X obj 667 729 delread4~ 1000hzr;
#X obj 671 702 delread4~ 800hzr;
#X obj 668 675 delread4~ 630hzr;
#X obj 666 646 delread4~ 500hzr;
#X obj 662 621 delread4~ 350hzr;
#X obj 659 594 delread4~ 250hzr;
#X obj 659 568 delread4~ 150hzr;
#X obj 659 543 delread4~ 100hzr;
#X obj 787 391 vsl 19 162 0 100 0 0 empty empty empty 0 -9 0 12 #fcfcfc #000000 #000000 0 1;
#X obj 787 328 loadbang;
#X msg 787 358 50;
#X obj 288 48 catch~ tospec;
#X obj 368 1038 outlet~;
#X obj 468 1040 outlet~;
#X obj 415 33 loadbang;
#X obj 860 313 inlet;
#X connect 0 0 16 0;
#X connect 1 0 17 0;
#X connect 2 0 21 0;
#X connect 3 0 18 0;
#X connect 4 0 19 0;
#X connect 5 0 20 0;
#X connect 6 0 22 0;
#X connect 7 0 23 0;
#X connect 8 0 30 0;
#X connect 9 0 29 0;
#X connect 10 0 28 0;
#X connect 11 0 27 0;
#X connect 12 0 26 0;
#X connect 13 0 25 0;
#X connect 14 0 24 0;
#X connect 15 0 0 0;
#X connect 15 0 1 0;
#X connect 15 0 2 0;
#X connect 15 0 3 0;
#X connect 15 0 4 0;
#X connect 15 0 5 0;
#X connect 15 0 6 0;
#X connect 15 0 7 0;
#X connect 15 0 8 0;
#X connect 15 0 9 0;
#X connect 15 0 10 0;
#X connect 15 0 11 0;
#X connect 15 0 12 0;
#X connect 15 0 13 0;
#X connect 15 0 14 0;
#X connect 31 0 66 0;
#X connect 32 0 66 0;
#X connect 33 0 66 0;
#X connect 34 0 66 0;
#X connect 35 0 66 0;
#X connect 36 0 66 0;
#X connect 37 0 66 0;
#X connect 38 0 66 0;
#X connect 39 0 66 0;
#X connect 40 0 66 0;
#X connect 41 0 66 0;
#X connect 42 0 66 0;
#X connect 43 0 66 0;
#X connect 44 0 66 0;
#X connect 45 0 66 0;
#X connect 46 0 34 0;
#X connect 47 0 35 0;
#X connect 48 0 36 0;
#X connect 49 0 37 0;
#X connect 50 0 38 0;
#X connect 51 0 39 0;
#X connect 52 0 40 0;
#X connect 53 0 41 0;
#X connect 54 0 48 0;
#X connect 54 0 53 0;
#X connect 54 0 52 0;
#X connect 54 0 51 0;
#X connect 54 0 50 0;
#X connect 54 0 49 0;
#X connect 54 0 47 0;
#X connect 54 0 46 0;
#X connect 54 0 55 0;
#X connect 54 0 61 0;
#X connect 54 0 60 0;
#X connect 54 0 59 0;
#X connect 54 0 58 0;
#X connect 54 0 57 0;
#X connect 54 0 56 0;
#X connect 55 0 42 0;
#X connect 56 0 43 0;
#X connect 57 0 44 0;
#X connect 58 0 45 0;
#X connect 59 0 31 0;
#X connect 60 0 32 0;
#X connect 61 0 33 0;
#X connect 62 0 65 0;
#X connect 63 0 8 2;
#X connect 63 0 7 2;
#X connect 63 0 1 2;
#X connect 63 0 13 2;
#X connect 63 0 12 2;
#X connect 63 0 11 2;
#X connect 63 0 10 2;
#X connect 63 0 9 2;
#X connect 63 0 6 2;
#X connect 63 0 5 2;
#X connect 63 0 4 2;
#X connect 63 0 3 2;
#X connect 63 0 2 2;
#X connect 64 0 63 0;
#X connect 65 0 54 0;
#X connect 65 0 91 0;
#X connect 66 0 136 0;
#X connect 67 0 102 0;
#X connect 68 0 103 0;
#X connect 69 0 104 0;
#X connect 70 0 105 0;
#X connect 71 0 106 0;
#X connect 72 0 107 0;
#X connect 73 0 108 0;
#X connect 74 0 109 0;
#X connect 75 0 110 0;
#X connect 76 0 111 0;
#X connect 77 0 112 0;
#X connect 78 0 113 0;
#X connect 79 0 114 0;
#X connect 80 0 115 0;
#X connect 81 0 116 0;
#X connect 82 0 67 0;
#X connect 82 0 68 0;
#X connect 82 0 69 0;
#X connect 82 0 70 0;
#X connect 82 0 71 0;
#X connect 82 0 72 0;
#X connect 82 0 73 0;
#X connect 82 0 74 0;
#X connect 82 0 75 0;
#X connect 82 0 76 0;
#X connect 82 0 77 0;
#X connect 82 0 78 0;
#X connect 82 0 79 0;
#X connect 82 0 80 0;
#X connect 82 0 81 0;
#X connect 83 0 131 0;
#X connect 84 0 130 0;
#X connect 85 0 129 0;
#X connect 86 0 128 0;
#X connect 87 0 127 0;
#X connect 88 0 126 0;
#X connect 89 0 125 0;
#X connect 90 0 124 0;
#X connect 91 0 85 0;
#X connect 91 0 90 0;
#X connect 91 0 89 0;
#X connect 91 0 88 0;
#X connect 91 0 87 0;
#X connect 91 0 86 0;
#X connect 91 0 84 0;
#X connect 91 0 83 0;
#X connect 91 0 92 0;
#X connect 91 0 98 0;
#X connect 91 0 97 0;
#X connect 91 0 96 0;
#X connect 91 0 95 0;
#X connect 91 0 94 0;
#X connect 91 0 93 0;
#X connect 92 0 123 0;
#X connect 93 0 122 0;
#X connect 94 0 121 0;
#X connect 95 0 120 0;
#X connect 96 0 119 0;
#X connect 97 0 118 0;
#X connect 98 0 117 0;
#X connect 99 0 75 2;
#X connect 99 0 74 2;
#X connect 99 0 68 2;
#X connect 99 0 80 2;
#X connect 99 0 79 2;
#X connect 99 0 78 2;
#X connect 99 0 77 2;
#X connect 99 0 76 2;
#X connect 99 0 73 2;
#X connect 99 0 72 2;
#X connect 99 0 71 2;
#X connect 99 0 70 2;
#X connect 99 0 69 2;
#X connect 100 0 99 0;
#X connect 101 0 137 0;
#X connect 117 0 101 0;
#X connect 118 0 101 0;
#X connect 119 0 101 0;
#X connect 120 0 101 0;
#X connect 121 0 101 0;
#X connect 122 0 101 0;
#X connect 123 0 101 0;
#X connect 124 0 101 0;
#X connect 125 0 101 0;
#X connect 126 0 101 0;
#X connect 127 0 101 0;
#X connect 128 0 101 0;
#X connect 129 0 101 0;
#X connect 130 0 101 0;
#X connect 131 0 101 0;
#X connect 132 0 64 0;
#X connect 132 0 100 0;
#X connect 133 0 134 0;
#X connect 134 0 132 0;
#X connect 135 0 82 0;
#X connect 135 0 15 0;
#X connect 138 0 54 0;
#X connect 138 0 91 0;
#X connect 139 0 132 0;
#X restore 774 615 pd spec;
#X obj 809 443 vsl 19 162 0 100 0 0 empty empty empty 0 -9 0 12 #fcfcfc #000000 #000000 0 1;
#X obj 1108 562 vsl 19 162 0 1 0 0 empty empty empty 0 -9 0 12 #fcfcfc #000000 #000000 0 1;
#X obj 1108 757 line~;
#X msg 1108 732 \$1 50;
#X obj 924 562 *~;
#X obj 696 818 *~;
#X obj 859 434 vsl 19 162 0 1 0 0 empty empty empty 0 -9 0 12 #fcfcfc #000000 #000000 0 1;
#X obj 852 637 line~;
#X msg 855 610 \$1 50;
#X obj 659 819 *~;
#X obj 999 628 clip~ -1 1;
#X obj 1003 751 -~;
#X obj 1030 714 /~ 5;
#X obj 1029 684 pow~ 5;
#X obj 1000 605 *~ 1;
#X obj 912 628 clip~ -1 1;
#X obj 915 782 -~;
#X obj 943 714 /~ 5;
#X obj 942 684 pow~ 5;
#X obj 913 605 *~ 1;
#X msg 814 741 20;
#X msg 761 742 1000;
#X msg 713 739 98;
#X obj 558 383 * 1000;
#X obj 676 588 *~ 0.8;
#X obj 557 337 random 100000;
#X obj 949 804 throw~ l;
#X obj 1014 802 throw~ r;
#X obj 1444 547 delwrite~ delll 10000;
#X obj 1446 420 delread4~ delll;
#X obj 1446 473 *~ 0.1;
#X obj 949 778 *~ 0.2;
#X obj 1007 775 *~ 0.2;
#X connect 1 0 2 0;
#X connect 1 0 35 0;
#X connect 1 1 3 0;
#X connect 1 1 36 0;
#X connect 2 0 0 0;
#X connect 3 0 0 1;
#X connect 4 0 10 0;
#X connect 5 0 10 0;
#X connect 6 0 5 0;
#X connect 7 0 30 0;
#X connect 9 0 14 0;
#X connect 10 1 7 0;
#X connect 11 0 4 0;
#X connect 12 0 6 1;
#X connect 13 0 6 0;
#X connect 14 0 10 0;
#X connect 16 0 15 0;
#X connect 17 0 18 0;
#X connect 18 0 10 0;
#X connect 19 0 20 0;
#X connect 19 0 22 0;
#X connect 19 1 21 0;
#X connect 19 1 23 0;
#X connect 22 0 1 0;
#X connect 23 0 1 1;
#X connect 24 0 25 0;
#X connect 26 0 24 0;
#X connect 26 0 39 0;
#X connect 27 0 17 0;
#X connect 28 0 13 0;
#X connect 29 0 12 0;
#X connect 30 0 31 0;
#X connect 31 0 32 0;
#X connect 32 0 26 0;
#X connect 35 0 33 0;
#X connect 35 1 33 1;
#X connect 36 0 34 0;
#X connect 36 1 34 1;
#X connect 37 0 35 1;
#X connect 37 0 36 1;
#X connect 39 0 38 0;
#X connect 43 0 1 0;
#X connect 44 0 1 1;
#X connect 45 0 1 0;
#X connect 45 0 1 1;
#X connect 46 0 58 0;
#X connect 48 0 65 0;
#X connect 49 0 82 0;
#X connect 49 0 204 0;
#X connect 50 0 61 0;
#X connect 50 0 63 0;
#X connect 50 0 72 0;
#X connect 50 0 74 0;
#X connect 50 0 78 0;
#X connect 50 0 83 0;
#X connect 51 0 94 0;
#X connect 51 1 94 0;
#X connect 51 2 95 0;
#X connect 51 3 95 0;
#X connect 52 0 51 4;
#X connect 53 0 48 0;
#X connect 54 0 50 0;
#X connect 54 0 86 0;
#X connect 55 0 54 0;
#X connect 56 0 54 1;
#X connect 57 0 58 1;
#X connect 58 0 49 0;
#X connect 59 0 51 5;
#X connect 60 0 64 0;
#X connect 61 0 60 0;
#X connect 62 0 46 0;
#X connect 62 0 66 0;
#X connect 63 0 67 0;
#X connect 64 0 205 0;
#X connect 65 0 46 1;
#X connect 65 0 85 0;
#X connect 66 0 69 0;
#X connect 67 0 62 0;
#X connect 68 0 66 1;
#X connect 70 0 81 0;
#X connect 71 0 68 0;
#X connect 72 0 71 0;
#X connect 73 0 75 0;
#X connect 74 0 73 0;
#X connect 75 0 76 0;
#X connect 76 0 84 0;
#X connect 77 0 204 0;
#X connect 78 0 79 0;
#X connect 79 0 80 0;
#X connect 80 0 81 1;
#X connect 81 0 62 0;
#X connect 82 0 89 0;
#X connect 83 0 53 0;
#X connect 84 0 77 1;
#X connect 85 0 49 1;
#X connect 85 0 57 0;
#X connect 86 0 56 0;
#X connect 89 0 51 1;
#X connect 89 0 51 0;
#X connect 89 0 47 0;
#X connect 89 0 94 0;
#X connect 89 0 95 0;
#X connect 90 0 206 0;
#X connect 91 0 93 0;
#X connect 92 0 95 1;
#X connect 92 0 94 1;
#X connect 93 0 92 0;
#X connect 94 0 87 0;
#X connect 95 0 88 0;
#X connect 96 0 51 2;
#X connect 96 0 51 3;
#X connect 98 0 99 0;
#X connect 100 0 98 0;
#X connect 101 0 139 0;
#X connect 102 0 138 0;
#X connect 102 0 109 0;
#X connect 103 0 105 0;
#X connect 103 1 104 0;
#X connect 104 0 130 1;
#X connect 105 0 114 0;
#X connect 105 0 138 1;
#X connect 105 0 144 0;
#X connect 106 0 110 0;
#X connect 107 0 106 0;
#X connect 108 0 163 0;
#X connect 109 0 200 0;
#X connect 110 0 103 0;
#X connect 115 0 117 0;
#X connect 116 0 119 0;
#X connect 117 0 120 0;
#X connect 118 0 119 1;
#X connect 118 0 117 1;
#X connect 119 0 121 0;
#X connect 120 0 124 0;
#X connect 120 0 127 0;
#X connect 121 0 128 0;
#X connect 121 0 129 0;
#X connect 122 0 131 0;
#X connect 123 0 154 0;
#X connect 123 1 169 0;
#X connect 123 1 172 0;
#X connect 124 0 125 0;
#X connect 125 0 126 0;
#X connect 126 0 130 0;
#X connect 127 0 122 0;
#X connect 127 1 122 2;
#X connect 128 0 124 0;
#X connect 128 1 124 1;
#X connect 129 0 122 0;
#X connect 129 1 122 1;
#X connect 130 0 140 0;
#X connect 131 0 137 0;
#X connect 131 1 134 0;
#X connect 131 2 132 0;
#X connect 132 0 133 0;
#X connect 133 0 102 0;
#X connect 134 0 136 0;
#X connect 134 1 135 0;
#X connect 135 0 133 0;
#X connect 136 0 133 0;
#X connect 137 0 133 0;
#X connect 138 0 101 0;
#X connect 139 0 100 0;
#X connect 140 0 122 0;
#X connect 140 0 148 1;
#X connect 141 0 142 0;
#X connect 142 0 140 0;
#X connect 142 1 140 1;
#X connect 143 0 102 0;
#X connect 144 0 143 0;
#X connect 144 0 117 0;
#X connect 144 0 119 0;
#X connect 145 0 148 0;
#X connect 146 0 123 0;
#X connect 147 0 145 1;
#X connect 147 0 158 0;
#X connect 148 0 146 0;
#X connect 149 0 150 0;
#X connect 150 0 113 0;
#X connect 151 0 152 0;
#X connect 152 0 112 0;
#X connect 153 0 199 0;
#X connect 154 0 133 0;
#X connect 154 0 155 0;
#X connect 155 0 145 0;
#X connect 155 1 133 0;
#X connect 156 0 185 0;
#X connect 156 1 181 0;
#X connect 156 2 185 0;
#X connect 156 3 181 0;
#X connect 157 0 108 0;
#X connect 158 0 159 0;
#X connect 159 0 148 0;
#X connect 160 0 162 0;
#X connect 161 0 174 0;
#X connect 161 0 181 0;
#X connect 161 0 185 0;
#X connect 162 0 156 0;
#X connect 162 0 185 0;
#X connect 163 0 101 0;
#X connect 164 0 165 0;
#X connect 165 0 156 1;
#X connect 165 0 181 0;
#X connect 166 0 198 0;
#X connect 166 0 197 0;
#X connect 166 0 196 0;
#X connect 167 0 161 0;
#X connect 167 0 156 0;
#X connect 167 0 156 1;
#X connect 168 0 151 0;
#X connect 168 0 141 0;
#X connect 168 0 149 0;
#X connect 168 0 201 0;
#X connect 169 0 168 0;
#X connect 170 0 169 1;
#X connect 171 0 168 0;
#X connect 172 0 171 0;
#X connect 173 0 190 0;
#X connect 175 0 160 0;
#X connect 175 1 164 0;
#X connect 176 0 175 0;
#X connect 177 0 179 0;
#X connect 178 0 173 1;
#X connect 178 0 180 1;
#X connect 179 0 178 0;
#X connect 180 0 195 0;
#X connect 181 0 173 0;
#X connect 182 0 184 0;
#X connect 183 0 181 1;
#X connect 183 0 185 1;
#X connect 184 0 183 0;
#X connect 185 0 180 0;
#X connect 186 0 187 0;
#X connect 186 0 189 0;
#X connect 187 0 208 0;
#X connect 188 0 187 1;
#X connect 189 0 188 0;
#X connect 190 0 186 0;
#X connect 191 0 192 0;
#X connect 191 0 194 0;
#X connect 192 0 207 0;
#X connect 193 0 192 1;
#X connect 194 0 193 0;
#X connect 195 0 191 0;
#X connect 196 0 156 5;
#X connect 197 0 156 4;
#X connect 198 0 156 2;
#X connect 198 0 156 3;
#X connect 199 0 141 0;
#X connect 200 0 167 0;
#X connect 201 0 153 0;
#X connect 205 0 82 0;
#X connect 205 0 90 0;
#X connect 206 0 77 0;
#X connect 207 0 202 0;
#X connect 208 0 203 0;
