#N canvas -142 89 1920 1157 12;
#X obj 620 1072 dac~ 1 2;
#X obj 597 508 ds;
#X obj 615 353 line~;
#X obj 576 416 *~;
#X obj 581 241 bng 19 250 50 0 empty empty empty 0 -10 0 12 #fcfcfc #000000 #000000;
#X obj 605 279 delay 50;
#X msg 579 313 1 \, 0 20;
#X obj 872 435 line~;
#X obj 846 468 *~;
#X obj 899 263 bng 19 250 50 0 empty empty empty 0 -10 0 12 #fcfcfc #000000 #000000;
#X obj 809 372 osc~ 40;
#X obj 832 502 ds;
#X msg 888 387 1 \, 0 1000;
#X obj 786 795 dattorrostereo;
#X obj 585 770 +~;
#X obj 644 770 +~;
#X obj 725 797 ds;
#X obj 539 354 osc~ 5000;
#X msg 990 389 1 \, 0 50;
#X obj 983 270 bng 19 250 50 0 empty empty empty 0 -10 0 12 #fcfcfc #000000 #000000;
#X msg 927 300 0;
#X obj 397 286 noise~;
#X obj 398 341 expr~ $v1 > 0.99;
#X obj 339 289 line~;
#X obj 401 384 *~;
#X obj 368 203 bng 19 250 50 0 empty empty empty 0 -10 0 12 #fcfcfc #000000 #000000;
#X obj 452 210 bng 19 250 50 0 empty empty empty 0 -10 0 12 #fcfcfc #000000 #000000;
#X obj 497 511 ds;
#X obj 270 388 *~;
#X obj 270 286 noise~;
#X obj 271 341 expr~ $v1 > 0.99;
#X msg 355 241 1 \, 0 300;
#X msg 457 243 1 \, 0 50;
#X obj 1738 1036 array define kikpat;
#X obj 1738 1061 array define tzpat;
#X obj 1738 1085 array define dotpat;
#X obj 1230 226 tabread kikpat;
#X obj 883 177 > 0;
#X obj 903 234 sel 1;
#X obj 1407 79 metro 120;
#X msg 1406 110 1;
#X obj 1407 136 +;
#X obj 1551 271 s kikpat;
#X obj 1572 79 bng 19 250 50 0 empty empty empty 0 -10 0 12 #fcfcfc #000000 #000000;
#X obj 1406 49 tgl 19 0 empty empty empty 0 -10 0 12 #fcfcfc #000000 #000000 0 1;
#X msg 1671 237 12 1 0 0 0;
#X obj 1677 83 bng 19 250 50 0 empty empty empty 0 -10 0 12 #fcfcfc #000000 #000000;
#X obj 1656 275 s tzpat;
#X obj 396 116 > 0;
#X obj 380 171 sel 1;
#X obj 1340 228 tabread tzpat;
#X msg 1664 140 0 0 0 0 0;
#X obj 434 119 < 0;
#X obj 432 175 sel 1;
#X msg 1668 207 8 0 0 -1 0;
#X msg 1667 169 4 0 0 -1 -1;
#X msg 1562 165 4 0 0 0 0;
#X obj 978 234 sel 1;
#X obj 958 177 < 0;
#X msg 1566 233 12 0 0 -1 0;
#X msg 1563 203 8 1 0 1 -1;
#X obj 1440 137 % 32;
#X obj 1439 167 % 16;
#X obj 1792 80 bng 19 250 50 0 empty empty empty 0 -10 0 12 #fcfcfc #000000 #000000;
#X obj 1771 272 s dotpat;
#X msg 1782 166 4 0 0 0 0;
#X msg 1783 204 8 0 0 0 0;
#X msg 1786 234 12 0 0 0 0;
#X msg 1779 137 0 1 0 0 0;
#X obj 1439 227 tabread dotpat;
#X obj 1431 470 > 0;
#X obj 1415 525 sel 1;
#X msg 1559 136 0 1 0 0 1;
#X connect 1 0 14 0;
#X connect 1 1 15 0;
#X connect 2 0 3 1;
#X connect 3 0 1 0;
#X connect 3 0 1 1;
#X connect 4 0 6 0;
#X connect 4 0 5 0;
#X connect 5 0 6 0;
#X connect 6 0 2 0;
#X connect 7 0 8 1;
#X connect 8 0 11 0;
#X connect 8 0 11 1;
#X connect 9 0 12 0;
#X connect 9 0 20 0;
#X connect 10 0 8 0;
#X connect 11 0 14 0;
#X connect 11 1 15 0;
#X connect 12 0 7 0;
#X connect 13 0 0 0;
#X connect 13 1 0 1;
#X connect 14 0 0 0;
#X connect 14 0 16 0;
#X connect 15 0 0 1;
#X connect 15 0 16 1;
#X connect 16 0 13 0;
#X connect 17 0 3 0;
#X connect 18 0 7 0;
#X connect 19 0 18 0;
#X connect 19 0 20 0;
#X connect 20 0 10 1;
#X connect 21 0 22 0;
#X connect 22 0 24 0;
#X connect 23 0 24 1;
#X connect 23 0 28 1;
#X connect 24 0 27 1;
#X connect 25 0 31 0;
#X connect 26 0 32 0;
#X connect 27 0 14 0;
#X connect 27 1 15 0;
#X connect 28 0 27 0;
#X connect 29 0 30 0;
#X connect 30 0 28 0;
#X connect 31 0 23 0;
#X connect 32 0 23 0;
#X connect 36 0 37 0;
#X connect 36 0 58 0;
#X connect 37 0 38 0;
#X connect 38 0 9 0;
#X connect 39 0 40 0;
#X connect 40 0 41 0;
#X connect 41 0 61 0;
#X connect 43 0 72 0;
#X connect 43 0 60 0;
#X connect 43 0 59 0;
#X connect 43 0 56 0;
#X connect 44 0 39 0;
#X connect 45 0 47 0;
#X connect 46 0 51 0;
#X connect 46 0 54 0;
#X connect 46 0 45 0;
#X connect 46 0 55 0;
#X connect 48 0 49 0;
#X connect 49 0 25 0;
#X connect 50 0 48 0;
#X connect 50 0 52 0;
#X connect 51 0 47 0;
#X connect 52 0 53 0;
#X connect 53 0 26 0;
#X connect 54 0 47 0;
#X connect 55 0 47 0;
#X connect 56 0 42 0;
#X connect 57 0 19 0;
#X connect 58 0 57 0;
#X connect 59 0 42 0;
#X connect 60 0 42 0;
#X connect 61 0 41 1;
#X connect 61 0 62 0;
#X connect 61 0 69 0;
#X connect 62 0 50 0;
#X connect 62 0 36 0;
#X connect 63 0 68 0;
#X connect 63 0 66 0;
#X connect 63 0 67 0;
#X connect 63 0 65 0;
#X connect 65 0 64 0;
#X connect 66 0 64 0;
#X connect 67 0 64 0;
#X connect 68 0 64 0;
#X connect 69 0 70 0;
#X connect 70 0 71 0;
#X connect 71 0 4 0;
#X connect 72 0 42 0;
