#N canvas 18 12 1920 1157 12;
#X msg 356 73 tempo \$1;
#X msg 266 73 reset \$1 \$2;
#X obj 266 52 pack f f;
#X floatatom 92 188 5 0 0 1 beat_time - - 0;
#X floatatom 59 210 5 0 0 1 phase - - 0;
#X floatatom 27 230 5 0 0 1 step - - 0;
#X floatatom 124 167 5 0 0 1 tempo - - 0;
#X obj 27 53 tgl 15 0 empty empty empty 17 7 0 10 #fcfcfc #000000 #000000 0 1;
#X obj 27 118 abl_link~ 1 0 4 134;
#X floatatom 356 54 5 0 0 2 tempo - - 0;
#X floatatom 311 33 5 0 0 2 quantum - - 0;
#X floatatom 266 33 5 0 0 2 beat - - 0;
#X msg 27 74 connect \$1;
#X floatatom 157 145 5 0 0 1 is_playing - - 0;
#X obj 110 53 tgl 15 0 empty empty empty 17 7 0 10 #fcfcfc #000000 #000000 0 1;
#X msg 110 73 play \$1;
#X floatatom 426 54 5 0 0 0 - - - 0;
#X msg 426 73 offset \$1;
#X obj 1801 746 vsl 30 400 0 100 0 0 spectra_q empty spectra_q 0 -20 1 20 #fcfcfc #000000 #000000 0 1;
#X obj 30 1096 rev3~, f 34;
#X obj 177 926 vsl 19 162 0 100 0 0 empty empty empty 0 -9 0 12 #fcfcfc #000000 #000000 0 1;
#X obj 29 1120 throw~ mainl;
#X obj 184 1120 throw~ mainr;
#X obj 202 926 vsl 19 162 0 100 0 0 empty empty empty 0 -9 0 12 #fcfcfc #000000 #000000 0 1;
#X obj 227 926 vsl 19 162 500 4000 0 0 empty empty empty 0 -9 0 12 #fcfcfc #000000 #000000 0 1;
#X obj 252 926 vsl 19 162 20 80 0 0 empty empty empty 0 -9 0 12 #fcfcfc #000000 #000000 0 1;
#X obj 28 1023 catch~ verbl;
#X obj 77 1047 catch~ verbr;
#X obj 29 1072 *~ 0.5;
#X obj 78 1072 *~ 0.5;
#X obj 169 900 unpack 0 0 0 0;
#X obj 284 1120 throw~ verbl;
#X obj 293 1096 throw~ verbr;
#X obj 283 1071 *~;
#X obj 300 849 vsl 19 162 0 1 0 0 empty empty empty 0 -9 0 12 #fcfcfc #000000 #000000 0 1;
#X msg 300 1019 \$1 200;
#X obj 300 1046 line~;
#X msg 169 876 98 98 1000 20;
#X obj 386 1121 throw~ verbl;
#X obj 395 1097 throw~ verbr;
#X obj 385 1072 *~;
#X obj 402 850 vsl 19 162 0 1 0 0 empty empty empty 0 -9 0 12 #fcfcfc #000000 #000000 0 1;
#X msg 402 1020 \$1 200;
#X obj 402 1047 line~;
#X obj 1648 388 throw~ verbl;
#X obj 1657 364 throw~ verbr;
#X obj 1647 339 *~;
#X obj 1664 117 vsl 19 162 0 1 0 0 empty empty empty 0 -9 0 12 #fcfcfc #000000 #000000 0 1;
#X msg 1664 287 \$1 200;
#X obj 1664 314 line~;
#N canvas 26 26 457 606 maingut 1;
#N canvas 221 0 1493 1148 spectra 0;
#X obj 163 79 lop~ 100;
#X obj 161 137 bp~ 150 10, f 16;
#X obj 162 194 bp~ 250 10, f 16;
#X obj 161 251 bp~ 350 10, f 16;
#X obj 165 301 bp~ 500 10, f 16;
#X obj 165 361 bp~ 630 10, f 16;
#X obj 162 418 bp~ 800 10, f 16;
#X obj 163 471 bp~ 1000 10, f 16;
#X obj 163 527 bp~ 1300 10, f 16;
#X obj 158 585 bp~ 1600 10, f 16;
#X obj 158 641 bp~ 2000 10, f 16;
#X obj 151 695 bp~ 3500 10, f 16;
#X obj 152 749 bp~ 5000 10, f 16;
#X obj 153 803 bp~ 8000 10, f 16;
#X obj 153 857 hip~ 10000, f 16;
#X obj 142 55 +~;
#X obj 164 108 delwrite~ 100hz 2000;
#X obj 161 167 delwrite~ 150hz 2000;
#X obj 162 276 delwrite~ 350hz 2000;
#X obj 166 332 delwrite~ 500hz 2000;
#X obj 163 385 delwrite~ 630hz 2000;
#X obj 160 221 delwrite~ 250hz 2000;
#X obj 162 443 delwrite~ 800hz 2000;
#X obj 162 496 delwrite~ 1000hz 2000;
#X obj 153 882 delwrite~ 10000hz 2000;
#X obj 151 825 delwrite~ 8000hz 2000;
#X obj 149 777 delwrite~ 5000hz 2000;
#X obj 152 722 delwrite~ 3500hz 2000;
#X obj 155 672 delwrite~ 2000hz 2000;
#X obj 159 613 delwrite~ 1600hz 2000;
#X obj 164 554 delwrite~ 1300hz 2000;
#X obj 395 825 delread4~ 5000hz;
#X obj 395 852 delread4~ 8000hz;
#X obj 392 882 delread4~ 10000hz;
#X obj 380 491 delread4~ 100hz;
#X obj 380 516 delread4~ 150hz;
#X obj 380 542 delread4~ 250hz;
#X obj 383 569 delread4~ 350hz;
#X obj 387 594 delread4~ 500hz;
#X obj 389 623 delread4~ 630hz;
#X obj 392 650 delread4~ 800hz;
#X obj 388 677 delread4~ 1000hz;
#X obj 389 704 delread4~ 1300hz;
#X obj 387 733 delread4~ 1600hz;
#X obj 389 760 delread4~ 2000hz;
#X obj 392 793 delread4~ 3500hz;
#X obj 399 76 random 2000;
#X obj 399 101 random 2000;
#X obj 399 129 random 2000;
#X obj 400 154 random 2000;
#X obj 403 179 random 2000;
#X obj 405 208 random 2000;
#X obj 406 234 random 2000;
#X obj 402 265 random 2000;
#X obj 361 76 bng 19 250 50 0 empty empty empty 0 -10 0 12 #fcfcfc #000000 #000000;
#X obj 404 290 random 2000;
#X obj 401 316 random 2000;
#X obj 403 346 random 2000;
#X obj 406 381 random 2000;
#X obj 410 411 random 2000;
#X obj 407 438 random 2000;
#X obj 408 467 random 2000;
#X obj 361 21 tgl 19 0 empty empty empty 0 -10 0 12 #fcfcfc #000000 #000000 0 1;
#X msg 335 513 \$1;
#X obj 339 336 vsl 19 162 0 100 0 0 empty empty empty 0 -9 0 12 #fcfcfc #000000 #000000 0 1;
#X obj 362 47 metro 10000;
#X obj 537 74 lop~ 100;
#X obj 535 132 bp~ 150 10, f 16;
#X obj 536 189 bp~ 250 10, f 16;
#X obj 535 246 bp~ 350 10, f 16;
#X obj 539 296 bp~ 500 10, f 16;
#X obj 539 356 bp~ 630 10, f 16;
#X obj 536 413 bp~ 800 10, f 16;
#X obj 537 466 bp~ 1000 10, f 16;
#X obj 537 522 bp~ 1300 10, f 16;
#X obj 532 580 bp~ 1600 10, f 16;
#X obj 532 636 bp~ 2000 10, f 16;
#X obj 525 690 bp~ 3500 10, f 16;
#X obj 526 744 bp~ 5000 10, f 16;
#X obj 527 798 bp~ 8000 10, f 16;
#X obj 527 852 hip~ 10000, f 16;
#X obj 516 50 +~;
#X obj 773 71 random 2000;
#X obj 773 96 random 2000;
#X obj 773 124 random 2000;
#X obj 774 149 random 2000;
#X obj 777 174 random 2000;
#X obj 779 203 random 2000;
#X obj 780 229 random 2000;
#X obj 776 260 random 2000;
#X obj 735 71 bng 19 250 50 0 empty empty empty 0 -10 0 12 #fcfcfc #000000 #000000;
#X obj 778 285 random 2000;
#X obj 775 311 random 2000;
#X obj 777 341 random 2000;
#X obj 780 376 random 2000;
#X obj 784 406 random 2000;
#X obj 781 433 random 2000;
#X obj 782 462 random 2000;
#X msg 709 508 \$1;
#X obj 713 331 vsl 19 162 0 100 0 0 empty empty empty 0 -9 0 12 #fcfcfc #000000 #000000 0 1;
#X obj 538 103 delwrite~ 100hzr 2000;
#X obj 535 162 delwrite~ 150hzr 2000;
#X obj 534 216 delwrite~ 250hzr 2000;
#X obj 536 271 delwrite~ 350hzr 2000;
#X obj 540 327 delwrite~ 500hzr 2000;
#X obj 537 380 delwrite~ 630hzr 2000;
#X obj 536 438 delwrite~ 800hzr 2000;
#X obj 536 491 delwrite~ 1000hzr 2000;
#X obj 538 549 delwrite~ 1300hzr 2000;
#X obj 533 608 delwrite~ 1600hzr 2000;
#X obj 529 667 delwrite~ 2000hzr 2000;
#X obj 526 717 delwrite~ 3500hzr 2000;
#X obj 523 772 delwrite~ 5000hzr 2000;
#X obj 525 820 delwrite~ 8000hzr 2000;
#X obj 527 877 delwrite~ 10000hzr 2000;
#X obj 766 877 delread4~ 10000hzr;
#X obj 769 847 delread4~ 8000hzr;
#X obj 769 820 delread4~ 5000hzr;
#X obj 766 788 delread4~ 3500hzr;
#X obj 763 755 delread4~ 2000hzr;
#X obj 761 728 delread4~ 1600hzr;
#X obj 763 699 delread4~ 1300hzr;
#X obj 762 672 delread4~ 1000hzr;
#X obj 766 645 delread4~ 800hzr;
#X obj 763 618 delread4~ 630hzr;
#X obj 761 589 delread4~ 500hzr;
#X obj 757 564 delread4~ 350hzr;
#X obj 754 537 delread4~ 250hzr;
#X obj 754 511 delread4~ 150hzr;
#X obj 754 486 delread4~ 100hzr;
#X obj 882 334 vsl 19 162 0 100 0 0 empty spectra_q empty 0 -9 0 12 #fcfcfc #000000 #000000 0 1;
#X obj 321 981 *~ 0.5;
#X obj 668 986 *~ 0.5;
#X obj 328 1046 outlet~;
#X obj 669 1042 outlet~;
#X obj 142 30 inlet~;
#X obj 514 24 inlet~;
#X obj 418 14 loadbang;
#X connect 0 0 16 0;
#X connect 1 0 17 0;
#X connect 2 0 21 0;
#X connect 3 0 18 0;
#X connect 4 0 19 0;
#X connect 5 0 20 0;
#X connect 6 0 22 0;
#X connect 7 0 23 0;
#X connect 8 0 30 0;
#X connect 9 0 29 0;
#X connect 10 0 28 0;
#X connect 11 0 27 0;
#X connect 12 0 26 0;
#X connect 13 0 25 0;
#X connect 14 0 24 0;
#X connect 15 0 0 0;
#X connect 15 0 1 0;
#X connect 15 0 2 0;
#X connect 15 0 3 0;
#X connect 15 0 4 0;
#X connect 15 0 5 0;
#X connect 15 0 6 0;
#X connect 15 0 7 0;
#X connect 15 0 8 0;
#X connect 15 0 9 0;
#X connect 15 0 10 0;
#X connect 15 0 11 0;
#X connect 15 0 12 0;
#X connect 15 0 13 0;
#X connect 15 0 14 0;
#X connect 31 0 131 0;
#X connect 32 0 131 0;
#X connect 33 0 131 0;
#X connect 34 0 131 0;
#X connect 35 0 131 0;
#X connect 36 0 131 0;
#X connect 37 0 131 0;
#X connect 38 0 131 0;
#X connect 39 0 131 0;
#X connect 40 0 131 0;
#X connect 41 0 131 0;
#X connect 42 0 131 0;
#X connect 43 0 131 0;
#X connect 44 0 131 0;
#X connect 45 0 131 0;
#X connect 46 0 34 0;
#X connect 47 0 35 0;
#X connect 48 0 36 0;
#X connect 49 0 37 0;
#X connect 50 0 38 0;
#X connect 51 0 39 0;
#X connect 52 0 40 0;
#X connect 53 0 41 0;
#X connect 54 0 48 0;
#X connect 54 0 53 0;
#X connect 54 0 52 0;
#X connect 54 0 51 0;
#X connect 54 0 50 0;
#X connect 54 0 49 0;
#X connect 54 0 47 0;
#X connect 54 0 46 0;
#X connect 54 0 55 0;
#X connect 54 0 61 0;
#X connect 54 0 60 0;
#X connect 54 0 59 0;
#X connect 54 0 58 0;
#X connect 54 0 57 0;
#X connect 54 0 56 0;
#X connect 55 0 42 0;
#X connect 56 0 43 0;
#X connect 57 0 44 0;
#X connect 58 0 45 0;
#X connect 59 0 31 0;
#X connect 60 0 32 0;
#X connect 61 0 33 0;
#X connect 62 0 65 0;
#X connect 63 0 8 2;
#X connect 63 0 7 2;
#X connect 63 0 1 2;
#X connect 63 0 13 2;
#X connect 63 0 12 2;
#X connect 63 0 11 2;
#X connect 63 0 10 2;
#X connect 63 0 9 2;
#X connect 63 0 6 2;
#X connect 63 0 5 2;
#X connect 63 0 4 2;
#X connect 63 0 3 2;
#X connect 63 0 2 2;
#X connect 64 0 63 0;
#X connect 65 0 54 0;
#X connect 65 0 90 0;
#X connect 66 0 100 0;
#X connect 67 0 101 0;
#X connect 68 0 102 0;
#X connect 69 0 103 0;
#X connect 70 0 104 0;
#X connect 71 0 105 0;
#X connect 72 0 106 0;
#X connect 73 0 107 0;
#X connect 74 0 108 0;
#X connect 75 0 109 0;
#X connect 76 0 110 0;
#X connect 77 0 111 0;
#X connect 78 0 112 0;
#X connect 79 0 113 0;
#X connect 80 0 114 0;
#X connect 81 0 66 0;
#X connect 81 0 67 0;
#X connect 81 0 68 0;
#X connect 81 0 69 0;
#X connect 81 0 70 0;
#X connect 81 0 71 0;
#X connect 81 0 72 0;
#X connect 81 0 73 0;
#X connect 81 0 74 0;
#X connect 81 0 75 0;
#X connect 81 0 76 0;
#X connect 81 0 77 0;
#X connect 81 0 78 0;
#X connect 81 0 79 0;
#X connect 81 0 80 0;
#X connect 82 0 129 0;
#X connect 83 0 128 0;
#X connect 84 0 127 0;
#X connect 85 0 126 0;
#X connect 86 0 125 0;
#X connect 87 0 124 0;
#X connect 88 0 123 0;
#X connect 89 0 122 0;
#X connect 90 0 84 0;
#X connect 90 0 89 0;
#X connect 90 0 88 0;
#X connect 90 0 87 0;
#X connect 90 0 86 0;
#X connect 90 0 85 0;
#X connect 90 0 83 0;
#X connect 90 0 82 0;
#X connect 90 0 91 0;
#X connect 90 0 97 0;
#X connect 90 0 96 0;
#X connect 90 0 95 0;
#X connect 90 0 94 0;
#X connect 90 0 93 0;
#X connect 90 0 92 0;
#X connect 91 0 121 0;
#X connect 92 0 120 0;
#X connect 93 0 119 0;
#X connect 94 0 118 0;
#X connect 95 0 117 0;
#X connect 96 0 116 0;
#X connect 97 0 115 0;
#X connect 98 0 74 2;
#X connect 98 0 73 2;
#X connect 98 0 67 2;
#X connect 98 0 79 2;
#X connect 98 0 78 2;
#X connect 98 0 77 2;
#X connect 98 0 76 2;
#X connect 98 0 75 2;
#X connect 98 0 72 2;
#X connect 98 0 71 2;
#X connect 98 0 70 2;
#X connect 98 0 69 2;
#X connect 98 0 68 2;
#X connect 99 0 98 0;
#X connect 115 0 132 0;
#X connect 116 0 132 0;
#X connect 117 0 132 0;
#X connect 118 0 132 0;
#X connect 119 0 132 0;
#X connect 120 0 132 0;
#X connect 121 0 132 0;
#X connect 122 0 132 0;
#X connect 123 0 132 0;
#X connect 124 0 132 0;
#X connect 125 0 132 0;
#X connect 126 0 132 0;
#X connect 127 0 132 0;
#X connect 128 0 132 0;
#X connect 129 0 132 0;
#X connect 130 0 64 0;
#X connect 130 0 99 0;
#X connect 131 0 133 0;
#X connect 132 0 134 0;
#X connect 135 0 15 0;
#X connect 136 0 81 0;
#X connect 137 0 62 0;
#X restore 12 35 pd spectra;
#X obj 12 61 throw~ mainl;
#X obj 104 61 throw~ mainr;
#X obj 12 11 catch~ spectral;
#X obj 125 11 catch~ spectrar;
#N canvas 1089 489 274 356 sync 0;
#X floatatom 99 90 5 0 0 0 - - - 0;
#X obj 99 68 r #abl_link_num_peers;
#X obj 22 357 s linkstat;
#X msg 22 327 color \$1 22 22;
#X msg 22 253 12;
#X obj 21 120 spigot;
#X obj 30 16 loadbang;
#X msg 21 66 1;
#X obj 21 225 sel 1 0;
#X obj 21 91 metro 250;
#X msg 43 274 13;
#X obj 80 120 == 0;
#X obj 81 146 sel 1;
#X msg 53 301 16;
#X msg 54 66 0;
#X obj 21 169 +;
#X msg 21 143 1;
#X obj 21 194 % 2;
#X connect 0 0 11 0;
#X connect 0 0 12 0;
#X connect 1 0 0 0;
#X connect 3 0 2 0;
#X connect 4 0 3 0;
#X connect 5 0 16 0;
#X connect 6 0 7 0;
#X connect 6 0 14 0;
#X connect 7 0 9 0;
#X connect 8 0 4 0;
#X connect 8 1 10 0;
#X connect 9 0 5 0;
#X connect 10 0 3 0;
#X connect 11 0 5 1;
#X connect 12 0 13 0;
#X connect 13 0 3 0;
#X connect 14 0 0 0;
#X connect 15 0 17 0;
#X connect 16 0 15 0;
#X connect 17 0 15 1;
#X connect 17 0 8 0;
#X restore 397 36 pd sync;
#N canvas 104 104 450 300 soundlib 0;
#X restore 369 11 pd soundlib;
#N canvas 130 130 450 300 kik 0;
#X restore 404 60 pd kik;
#N canvas 156 156 450 300 hat 0;
#X restore 404 84 pd hat;
#X obj 7 439 strec;
#X obj 8 566 dac~ 1 2;
#X obj 8 543 *~ 0.25;
#X obj 302 543 *~ 0.25;
#X obj 61 379 catch~ mainl;
#X obj 158 378 catch~ mainr;
#X obj 103 411 outputstage;
#X connect 0 0 1 0;
#X connect 0 1 2 0;
#X connect 3 0 0 0;
#X connect 4 0 0 1;
#X connect 9 0 11 0;
#X connect 9 1 12 0;
#X connect 11 0 10 0;
#X connect 12 0 10 1;
#X connect 13 0 15 0;
#X connect 14 0 15 1;
#X connect 15 0 9 0;
#X connect 15 1 9 1;
#X restore 1813 9 pd maingut;
#X obj 1838 747 vu 19 400 mainvul empty -1 -10 0 12 #404040 #000000 0 0;
#X obj 1859 747 vu 19 400 mainvur empty -1 -10 0 12 #404040 #000000 1 0;
#X obj 702 78 cnv 1 40 10 empty playhead empty 20 12 0 12 #000000 #ffffff 0;
#X obj 594 13 bng 100 250 50 0 pl1load empty empty 0 -10 0 12 #fcfcfc #000000 #000000;
#N canvas 0 50 450 250 (subpatch) 0;
#X array pl 155944 float 2;
#X coords 0 1 155944 -1 400 50 1 0 0;
#X restore 702 23 graph;
#X obj 701 104 hsl 400 8 0 1 0 0 end toend empty -2 -10 0 12 #fcfcfc #000000 #000000 0 1;
#X obj 701 94 hsl 400 8 0 1 0 0 start tostart empty -2 -10 0 12 #fcfcfc #000000 #000000 0 1;
#X obj 1213 10 tgl 100 0 togrand empty empty 0 -10 0 12 #fcfcfc #000000 #000000 0 1;
#X obj 1109 11 bng 100 250 50 0 pl1play topl1play empty 0 -10 0 12 #fcfcfc #000000 #000000;
#X obj 1533 356 throw~ mainl;
#X obj 1555 390 throw~ mainr;
#N canvas 78 78 758 649 pl 0;
#X msg 383 384 vis_size \$1 \$2;
#X obj 385 415 s playhead;
#X obj 383 356 pack 100 10;
#X obj 385 301 snapshot~;
#X obj 370 177 vline~;
#X obj 33 147 soundfiler;
#X floatatom 100 174 5 0 0 0 - - - 0;
#X floatatom 33 174 5 0 0 0 - - - 0;
#X obj 33 94 openpanel;
#X obj 408 249 tgl 19 0 empty empty empty 0 -10 0 12 #fcfcfc #000000 #000000 0 1;
#X obj 33 233 s range;
#X obj 31 263 r start;
#X obj 87 262 r end;
#X obj 31 290 *;
#X obj 129 259 r range;
#X obj 87 296 *;
#X floatatom 32 322 5 0 0 0 - - - 0;
#X floatatom 87 324 5 0 0 0 - - - 0;
#X obj 67 394 pack 0 0 0;
#X obj 33 588 t b b;
#X obj 189 256 -;
#X obj 189 284 abs;
#X floatatom 189 325 5 0 0 0 - - - 0;
#X obj 34 355 t b f;
#X obj 183 215 t b f;
#X obj 85 353 t b f;
#X obj 189 351 / 44100;
#X obj 70 416 unpack 0 0 0;
#X msg 195 483 set \$1;
#X msg 455 114 146034 \, 15942.2 7895.82;
#X obj 130 455 t f b;
#X msg 162 516 addcomma;
#X msg 130 486 add2 \$1;
#X msg 64 455 add2 \$1;
#X obj 357 249 /~;
#X obj 384 331 * 400;
#X obj 185 383 * 500;
#X obj 286 297 vsl 19 162 0 2000 0 0 empty empty empty 0 -9 0 12 #fcfcfc #000000 #000000 0 1;
#X obj 280 489 t b f;
#X msg 350 152 0;
#X obj 54 198 bng 19 250 50 0 empty empty empty 0 -10 0 12 #fcfcfc #000000 #000000;
#X obj 24 489 spigot;
#X obj 33 558 bng 19 250 50 0 empty empty empty 0 -10 0 12 #fcfcfc #000000 #000000;
#X obj 31 525 delay 100;
#X obj 179 121 random 100000;
#X obj 180 148 / 100000;
#X obj 279 124 random 100000;
#X obj 279 151 / 100000;
#X obj 241 215 random 100000;
#X obj 241 240 / 100000;
#X obj 238 265 * 1000;
#X obj 20 457 t b b;
#X obj 408 226 loadbang;
#X obj 164 51 sel 0;
#X msg 167 82 stop;
#X obj 391 276 metro 30;
#X obj 364 439 tabread4~ pl;
#X obj 363 463 hip~ 1;
#X obj 447 43 r pl1play;
#X obj 31 35 r pl1load;
#X obj 35 612 s topl1play;
#X obj 221 46 r togrand;
#X msg 33 122 read -resize \$1 pl;
#X obj 175 182 s tostart;
#X obj 276 189 s toend;
#X obj 495 585 outlet~;
#X obj 267 82 r gap;
#X connect 0 0 1 0;
#X connect 2 0 0 0;
#X connect 3 0 35 0;
#X connect 4 0 34 0;
#X connect 4 0 56 0;
#X connect 5 0 7 0;
#X connect 5 1 6 0;
#X connect 6 0 26 1;
#X connect 7 0 10 0;
#X connect 7 0 34 1;
#X connect 7 0 40 0;
#X connect 8 0 62 0;
#X connect 9 0 55 0;
#X connect 11 0 13 0;
#X connect 12 0 15 0;
#X connect 13 0 16 0;
#X connect 14 0 15 1;
#X connect 14 0 13 1;
#X connect 15 0 17 0;
#X connect 16 0 20 0;
#X connect 16 0 23 0;
#X connect 17 0 24 0;
#X connect 17 0 25 0;
#X connect 18 0 27 0;
#X connect 19 0 60 0;
#X connect 19 1 44 0;
#X connect 19 1 46 0;
#X connect 19 1 48 0;
#X connect 20 0 21 0;
#X connect 21 0 22 0;
#X connect 22 0 26 0;
#X connect 23 0 18 0;
#X connect 23 1 18 2;
#X connect 24 0 20 0;
#X connect 24 1 20 1;
#X connect 25 0 18 0;
#X connect 25 1 18 1;
#X connect 26 0 36 0;
#X connect 27 0 33 0;
#X connect 27 1 30 0;
#X connect 27 2 28 0;
#X connect 28 0 29 0;
#X connect 29 0 4 0;
#X connect 30 0 32 0;
#X connect 30 1 31 0;
#X connect 31 0 29 0;
#X connect 32 0 29 0;
#X connect 33 0 29 0;
#X connect 34 0 3 0;
#X connect 35 0 2 0;
#X connect 36 0 18 0;
#X connect 36 0 43 1;
#X connect 37 0 38 0;
#X connect 38 0 36 0;
#X connect 38 1 36 1;
#X connect 39 0 4 0;
#X connect 40 0 39 0;
#X connect 40 0 13 0;
#X connect 40 0 15 0;
#X connect 41 0 43 0;
#X connect 42 0 19 0;
#X connect 43 0 42 0;
#X connect 44 0 45 0;
#X connect 45 0 63 0;
#X connect 46 0 47 0;
#X connect 47 0 64 0;
#X connect 48 0 49 0;
#X connect 49 0 50 0;
#X connect 50 0 37 0;
#X connect 51 0 41 0;
#X connect 51 1 29 0;
#X connect 52 0 9 0;
#X connect 53 0 54 0;
#X connect 54 0 43 0;
#X connect 55 0 3 0;
#X connect 56 0 57 0;
#X connect 57 0 65 0;
#X connect 58 0 29 0;
#X connect 58 0 51 0;
#X connect 59 0 8 0;
#X connect 61 0 53 0;
#X connect 61 0 41 1;
#X connect 62 0 5 0;
#X connect 66 0 48 1;
#X restore 1614 289 pd pl;
#X obj 169 849 loadbang;
#X obj 1741 1089 s gap;
#X msg 1742 1059 500000;
#X floatatom 594 145 5 0 0 0 - - - 0;
#X obj 594 123 r #abl_link_num_peers;
#X connect 0 0 8 0;
#X connect 1 0 8 0;
#X connect 2 0 1 0;
#X connect 7 0 12 0;
#X connect 8 0 5 0;
#X connect 8 1 4 0;
#X connect 8 2 3 0;
#X connect 8 3 6 0;
#X connect 8 4 13 0;
#X connect 9 0 0 0;
#X connect 10 0 2 1;
#X connect 11 0 2 0;
#X connect 12 0 8 0;
#X connect 14 0 15 0;
#X connect 15 0 8 0;
#X connect 16 0 17 0;
#X connect 17 0 8 0;
#X connect 19 0 21 0;
#X connect 19 1 22 0;
#X connect 19 2 21 0;
#X connect 19 3 22 0;
#X connect 20 0 19 2;
#X connect 23 0 19 3;
#X connect 24 0 19 4;
#X connect 25 0 19 5;
#X connect 26 0 28 0;
#X connect 27 0 29 0;
#X connect 28 0 19 0;
#X connect 29 0 19 1;
#X connect 30 0 20 0;
#X connect 30 1 23 0;
#X connect 30 2 24 0;
#X connect 30 3 25 0;
#X connect 33 0 31 0;
#X connect 33 0 32 0;
#X connect 34 0 35 0;
#X connect 35 0 36 0;
#X connect 36 0 33 1;
#X connect 37 0 30 0;
#X connect 40 0 38 0;
#X connect 40 0 39 0;
#X connect 41 0 42 0;
#X connect 42 0 43 0;
#X connect 43 0 40 1;
#X connect 46 0 44 0;
#X connect 46 0 45 0;
#X connect 47 0 48 0;
#X connect 48 0 49 0;
#X connect 49 0 46 1;
#X connect 62 0 46 0;
#X connect 62 0 60 0;
#X connect 62 0 61 0;
#X connect 63 0 37 0;
#X connect 65 0 64 0;
#X connect 67 0 66 0;
