#N canvas -6 3 2876 549 12;
#X declare -lib Gem;
#X obj 2764 124 dac~ 1 2;
#X obj 2753 93 outputstage;
#X msg 379 104 tempo \$1;
#X msg 193 104 resolution \$1;
#X msg 289 104 reset \$1 \$2;
#X obj 289 83 pack f f;
#X floatatom 223 230 5 0 0 1 beat_time - - 0;
#X floatatom 195 251 5 0 0 1 phase - - 0;
#X msg 64 204 \; pd dsp 1;
#X floatatom 168 279 5 0 0 1 step - - 0;
#X floatatom 251 208 5 0 0 1 tempo - - 0;
#X obj 50 84 tgl 15 0 empty empty empty 17 7 0 10 #fcfcfc #000000 #000000 0 1;
#X obj 168 167 abl_link~ 1 0 4 134;
#X floatatom 379 85 5 0 0 2 tempo - - 0;
#X floatatom 334 64 5 0 0 2 quantum - - 0;
#X floatatom 289 64 5 0 0 2 beat - - 0;
#X floatatom 193 84 5 0 0 2 resolution - - 0;
#X msg 50 105 connect \$1;
#X floatatom 2592 33 5 0 0 0 - - - 0;
#X obj 2592 11 r #abl_link_num_peers;
#X floatatom 279 189 5 0 0 1 is_playing - - 0;
#X obj 133 84 tgl 15 0 empty empty empty 17 7 0 10 #fcfcfc #000000 #000000 0 1;
#X msg 133 104 play \$1;
#X floatatom 449 85 5 0 0 0 - - - 0;
#X msg 449 104 offset \$1;
#X obj 2747 10 declare -lib Gem;
#X obj 2753 43 catch~ mainl;
#X obj 2763 67 catch~ mainr;
#X obj 2469 202 gemwin;
#X msg 2468 160 destroy \, reset \, dimen 2880 200 \, offset 0 600 \, border 0 \, create \, 1 \, topmost 1;
#X connect 1 0 0 0;
#X connect 1 1 0 1;
#X connect 2 0 12 0;
#X connect 3 0 12 0;
#X connect 4 0 12 0;
#X connect 5 0 4 0;
#X connect 11 0 17 0;
#X connect 12 0 9 0;
#X connect 12 1 7 0;
#X connect 12 2 6 0;
#X connect 12 3 10 0;
#X connect 13 0 2 0;
#X connect 14 0 5 1;
#X connect 15 0 5 0;
#X connect 16 0 3 0;
#X connect 17 0 12 0;
#X connect 19 0 18 0;
#X connect 21 0 22 0;
#X connect 22 0 12 0;
#X connect 23 0 24 0;
#X connect 24 0 12 0;
#X connect 26 0 1 0;
#X connect 27 0 1 1;
#X connect 29 0 28 0;
