#N canvas 981 569 1920 1109 12;
#X obj 355 517 morph~;
#X obj 441 516 morph~;
#X obj 527 517 morph~;
#X obj 613 516 morph~;
#X obj 403 340 noise~;
#X obj 351 440 +~;
#X obj 1391 729 dac~ 1 2;
#X obj 546 347 noise~;
#X obj 494 447 +~;
#X obj 663 351 noise~;
#X obj 611 451 +~;
#X obj 479 419 *~ 2;
#X obj 620 421 *~ 4;
#X obj 558 374 lop~ 10;
#X obj 561 401 lop~ 10;
#X obj 415 367 lop~ 10;
#X obj 418 394 lop~ 10;
#X obj 675 378 lop~ 10;
#X obj 678 405 lop~ 10;
#X obj 808 345 noise~;
#X obj 756 445 +~;
#X obj 820 372 lop~ 10;
#X obj 823 399 lop~ 10;
#X obj 753 410 *~ 0.5;
#X obj 927 542 morph~;
#X obj 1013 541 morph~;
#X obj 1099 542 morph~;
#X obj 1185 541 morph~;
#X obj 975 365 noise~;
#X obj 923 465 +~;
#X obj 1118 372 noise~;
#X obj 1066 472 +~;
#X obj 1235 376 noise~;
#X obj 1183 476 +~;
#X obj 1051 444 *~ 2;
#X obj 1192 446 *~ 4;
#X obj 1130 399 lop~ 10;
#X obj 1133 426 lop~ 10;
#X obj 987 392 lop~ 10;
#X obj 990 419 lop~ 10;
#X obj 1247 403 lop~ 10;
#X obj 1250 430 lop~ 10;
#X obj 1380 370 noise~;
#X obj 1328 470 +~;
#X obj 1392 397 lop~ 10;
#X obj 1395 424 lop~ 10;
#X obj 1325 435 *~ 0.5;
#X obj 417 439 *~ 50;
#X obj 537 462 *~ 50;
#X obj 673 435 *~ 50;
#X obj 818 429 *~ 50;
#X obj 989 464 *~ 50;
#X obj 1109 487 *~ 50;
#X obj 1245 460 *~ 50;
#X obj 1390 454 *~ 50;
#X obj 901 239 skew~;
#X obj 951 208 sig~ 0.5;
#X obj 1066 237 skew~;
#X obj 1116 206 sig~ 0.5;
#X obj 1227 233 skew~;
#X obj 1277 202 sig~ 0.5;
#X obj 1393 233 skew~;
#X obj 1443 202 sig~ 0.5;
#X obj 173 234 skew~;
#X obj 223 203 sig~ 0.5;
#X obj 338 232 skew~;
#X obj 388 201 sig~ 0.5;
#X obj 499 228 skew~;
#X obj 549 197 sig~ 0.5;
#X obj 665 228 skew~;
#X obj 715 197 sig~ 0.5;
#X obj 132 182 phasor~ 0.1253;
#X obj 297 180 phasor~ 0.136;
#X obj 458 176 phasor~ 0.163;
#X obj 624 176 phasor~ 0.143;
#X obj 860 187 phasor~ 0.153;
#X obj 1025 185 phasor~ 0.183;
#X obj 1186 181 phasor~ 0.193;
#X obj 1352 181 phasor~ 0.133;
#X obj 1407 592 rev3~, f 37;
#X msg 1531 518 98;
#X msg 1660 516 50;
#X msg 1594 516 2000;
#X obj 801 282 +~;
#X obj 803 245 mtof~;
#X obj 796 158 sig~ 34;
#X obj 1747 510 morph~;
#X obj 1833 509 morph~;
#X obj 1919 510 morph~;
#X obj 2005 509 morph~;
#X obj 1795 333 noise~;
#X obj 1743 433 +~;
#X obj 1938 340 noise~;
#X obj 1886 440 +~;
#X obj 2055 344 noise~;
#X obj 2003 444 +~;
#X obj 1871 412 *~ 2;
#X obj 2012 414 *~ 4;
#X obj 1950 367 lop~ 10;
#X obj 1953 394 lop~ 10;
#X obj 1807 360 lop~ 10;
#X obj 1810 387 lop~ 10;
#X obj 2067 371 lop~ 10;
#X obj 2070 398 lop~ 10;
#X obj 2200 338 noise~;
#X obj 2148 438 +~;
#X obj 2212 365 lop~ 10;
#X obj 2215 392 lop~ 10;
#X obj 2145 403 *~ 0.5;
#X obj 2319 535 morph~;
#X obj 2405 534 morph~;
#X obj 2491 535 morph~;
#X obj 2577 534 morph~;
#X obj 2367 358 noise~;
#X obj 2315 458 +~;
#X obj 2510 365 noise~;
#X obj 2458 465 +~;
#X obj 2627 369 noise~;
#X obj 2575 469 +~;
#X obj 2443 437 *~ 2;
#X obj 2584 439 *~ 4;
#X obj 2522 392 lop~ 10;
#X obj 2525 419 lop~ 10;
#X obj 2379 385 lop~ 10;
#X obj 2382 412 lop~ 10;
#X obj 2639 396 lop~ 10;
#X obj 2642 423 lop~ 10;
#X obj 2772 363 noise~;
#X obj 2720 463 +~;
#X obj 2784 390 lop~ 10;
#X obj 2787 417 lop~ 10;
#X obj 2717 428 *~ 0.5;
#X obj 1809 432 *~ 50;
#X obj 1929 455 *~ 50;
#X obj 2065 428 *~ 50;
#X obj 2210 422 *~ 50;
#X obj 2381 457 *~ 50;
#X obj 2501 480 *~ 50;
#X obj 2637 453 *~ 50;
#X obj 2782 447 *~ 50;
#X obj 2293 232 skew~;
#X obj 2343 201 sig~ 0.5;
#X obj 2458 230 skew~;
#X obj 2508 199 sig~ 0.5;
#X obj 2619 226 skew~;
#X obj 2669 195 sig~ 0.5;
#X obj 2785 226 skew~;
#X obj 2835 195 sig~ 0.5;
#X obj 1565 227 skew~;
#X obj 1615 196 sig~ 0.5;
#X obj 1730 225 skew~;
#X obj 1780 194 sig~ 0.5;
#X obj 1891 221 skew~;
#X obj 1941 190 sig~ 0.5;
#X obj 2057 221 skew~;
#X obj 2107 190 sig~ 0.5;
#X obj 1524 175 phasor~ 0.1253;
#X obj 1689 173 phasor~ 0.136;
#X obj 1850 169 phasor~ 0.163;
#X obj 2016 169 phasor~ 0.143;
#X obj 2252 180 phasor~ 0.153;
#X obj 2417 178 phasor~ 0.183;
#X obj 2578 174 phasor~ 0.193;
#X obj 2744 174 phasor~ 0.133;
#X obj 2193 275 +~;
#X obj 2195 238 mtof~;
#X obj 1083 1140 morph~;
#X obj 1169 1139 morph~;
#X obj 1255 1140 morph~;
#X obj 1341 1139 morph~;
#X obj 1131 963 noise~;
#X obj 1079 1063 +~;
#X obj 1274 970 noise~;
#X obj 1222 1070 +~;
#X obj 1391 974 noise~;
#X obj 1339 1074 +~;
#X obj 1207 1042 *~ 2;
#X obj 1348 1044 *~ 4;
#X obj 1286 997 lop~ 10;
#X obj 1289 1024 lop~ 10;
#X obj 1143 990 lop~ 10;
#X obj 1146 1017 lop~ 10;
#X obj 1403 1001 lop~ 10;
#X obj 1406 1028 lop~ 10;
#X obj 1536 968 noise~;
#X obj 1484 1068 +~;
#X obj 1548 995 lop~ 10;
#X obj 1551 1022 lop~ 10;
#X obj 1481 1033 *~ 0.5;
#X obj 1655 1165 morph~;
#X obj 1741 1164 morph~;
#X obj 1827 1165 morph~;
#X obj 1913 1164 morph~;
#X obj 1703 988 noise~;
#X obj 1651 1088 +~;
#X obj 1846 995 noise~;
#X obj 1794 1095 +~;
#X obj 1963 999 noise~;
#X obj 1911 1099 +~;
#X obj 1779 1067 *~ 2;
#X obj 1920 1069 *~ 4;
#X obj 1858 1022 lop~ 10;
#X obj 1861 1049 lop~ 10;
#X obj 1715 1015 lop~ 10;
#X obj 1718 1042 lop~ 10;
#X obj 1975 1026 lop~ 10;
#X obj 1978 1053 lop~ 10;
#X obj 2108 993 noise~;
#X obj 2056 1093 +~;
#X obj 2120 1020 lop~ 10;
#X obj 2123 1047 lop~ 10;
#X obj 2053 1058 *~ 0.5;
#X obj 1145 1062 *~ 50;
#X obj 1265 1085 *~ 50;
#X obj 1401 1058 *~ 50;
#X obj 1546 1052 *~ 50;
#X obj 1717 1087 *~ 50;
#X obj 1837 1110 *~ 50;
#X obj 1973 1083 *~ 50;
#X obj 2118 1077 *~ 50;
#X obj 1629 862 skew~;
#X obj 1691 813 sig~ 0.5;
#X obj 1794 860 skew~;
#X obj 1844 829 sig~ 0.5;
#X obj 1955 856 skew~;
#X obj 2005 825 sig~ 0.5;
#X obj 2121 856 skew~;
#X obj 2171 825 sig~ 0.5;
#X obj 901 857 skew~;
#X obj 967 807 sig~ 0.5;
#X obj 1066 855 skew~;
#X obj 1125 804 sig~ 0.5;
#X obj 1227 851 skew~;
#X obj 1291 800 sig~ 0.5;
#X obj 1393 851 skew~;
#X obj 1462 799 sig~ 0.5;
#X obj 860 805 phasor~ 0.1253;
#X obj 1025 803 phasor~ 0.136;
#X obj 1186 799 phasor~ 0.163;
#X obj 1352 799 phasor~ 0.143;
#X obj 1588 810 phasor~ 0.153;
#X obj 1753 808 phasor~ 0.183;
#X obj 1914 804 phasor~ 0.193;
#X obj 2080 804 phasor~ 0.133;
#X obj 1529 905 +~;
#X obj 1531 868 mtof~;
#X obj 1200 1211 *~ 0.05;
#X obj 1774 1222 *~ 0.05;
#X obj 2439 582 *~ 0.05;
#X obj 1876 568 *~ 0.05;
#X obj 2188 151 sig~ 43;
#X obj 1528 836 sig~ 38;
#X obj 475 565 *~ 0.08;
#X obj 1054 586 *~ 0.08;
#X obj 1430 83 unpack 0 0 0;
#X msg 1420 -1 38 35 49;
#X connect 0 0 252 0;
#X connect 1 0 252 0;
#X connect 2 0 252 0;
#X connect 3 0 252 0;
#X connect 4 0 15 0;
#X connect 5 0 0 0;
#X connect 7 0 13 0;
#X connect 8 0 1 0;
#X connect 9 0 17 0;
#X connect 10 0 2 0;
#X connect 11 0 8 0;
#X connect 12 0 10 0;
#X connect 13 0 14 0;
#X connect 14 0 48 0;
#X connect 15 0 16 0;
#X connect 16 0 47 0;
#X connect 17 0 18 0;
#X connect 18 0 49 0;
#X connect 19 0 21 0;
#X connect 20 0 3 0;
#X connect 21 0 22 0;
#X connect 22 0 50 0;
#X connect 23 0 20 0;
#X connect 24 0 253 0;
#X connect 25 0 253 0;
#X connect 26 0 253 0;
#X connect 27 0 253 0;
#X connect 28 0 38 0;
#X connect 29 0 24 0;
#X connect 30 0 36 0;
#X connect 31 0 25 0;
#X connect 32 0 40 0;
#X connect 33 0 26 0;
#X connect 34 0 31 0;
#X connect 35 0 33 0;
#X connect 36 0 37 0;
#X connect 37 0 52 0;
#X connect 38 0 39 0;
#X connect 39 0 51 0;
#X connect 40 0 41 0;
#X connect 41 0 53 0;
#X connect 42 0 44 0;
#X connect 43 0 27 0;
#X connect 44 0 45 0;
#X connect 45 0 54 0;
#X connect 46 0 43 0;
#X connect 47 0 5 1;
#X connect 48 0 8 1;
#X connect 49 0 10 1;
#X connect 50 0 20 1;
#X connect 51 0 29 1;
#X connect 52 0 31 1;
#X connect 53 0 33 1;
#X connect 54 0 43 1;
#X connect 55 0 24 1;
#X connect 56 0 55 1;
#X connect 57 0 25 1;
#X connect 58 0 57 1;
#X connect 59 0 26 1;
#X connect 60 0 59 1;
#X connect 61 0 27 1;
#X connect 62 0 61 1;
#X connect 63 0 0 1;
#X connect 64 0 63 1;
#X connect 65 0 1 1;
#X connect 66 0 65 1;
#X connect 67 0 2 1;
#X connect 68 0 67 1;
#X connect 69 0 3 1;
#X connect 70 0 69 1;
#X connect 71 0 63 0;
#X connect 72 0 65 0;
#X connect 73 0 67 0;
#X connect 74 0 69 0;
#X connect 75 0 55 0;
#X connect 76 0 57 0;
#X connect 77 0 59 0;
#X connect 78 0 61 0;
#X connect 79 0 6 0;
#X connect 79 1 6 1;
#X connect 79 2 6 0;
#X connect 79 3 6 1;
#X connect 80 0 79 2;
#X connect 80 0 79 3;
#X connect 81 0 79 5;
#X connect 82 0 79 4;
#X connect 83 0 5 0;
#X connect 83 0 11 0;
#X connect 83 0 12 0;
#X connect 83 0 23 0;
#X connect 83 0 29 0;
#X connect 83 0 34 0;
#X connect 83 0 35 0;
#X connect 83 0 46 0;
#X connect 84 0 83 0;
#X connect 85 0 84 0;
#X connect 86 0 249 0;
#X connect 87 0 249 0;
#X connect 88 0 249 0;
#X connect 89 0 249 0;
#X connect 90 0 100 0;
#X connect 91 0 86 0;
#X connect 92 0 98 0;
#X connect 93 0 87 0;
#X connect 94 0 102 0;
#X connect 95 0 88 0;
#X connect 96 0 93 0;
#X connect 97 0 95 0;
#X connect 98 0 99 0;
#X connect 99 0 133 0;
#X connect 100 0 101 0;
#X connect 101 0 132 0;
#X connect 102 0 103 0;
#X connect 103 0 134 0;
#X connect 104 0 106 0;
#X connect 105 0 89 0;
#X connect 106 0 107 0;
#X connect 107 0 135 0;
#X connect 108 0 105 0;
#X connect 109 0 248 0;
#X connect 110 0 248 0;
#X connect 111 0 248 0;
#X connect 112 0 248 0;
#X connect 113 0 123 0;
#X connect 114 0 109 0;
#X connect 115 0 121 0;
#X connect 116 0 110 0;
#X connect 117 0 125 0;
#X connect 118 0 111 0;
#X connect 119 0 116 0;
#X connect 120 0 118 0;
#X connect 121 0 122 0;
#X connect 122 0 137 0;
#X connect 123 0 124 0;
#X connect 124 0 136 0;
#X connect 125 0 126 0;
#X connect 126 0 138 0;
#X connect 127 0 129 0;
#X connect 128 0 112 0;
#X connect 129 0 130 0;
#X connect 130 0 139 0;
#X connect 131 0 128 0;
#X connect 132 0 91 1;
#X connect 133 0 93 1;
#X connect 134 0 95 1;
#X connect 135 0 105 1;
#X connect 136 0 114 1;
#X connect 137 0 116 1;
#X connect 138 0 118 1;
#X connect 139 0 128 1;
#X connect 140 0 109 1;
#X connect 141 0 140 1;
#X connect 142 0 110 1;
#X connect 143 0 142 1;
#X connect 144 0 111 1;
#X connect 145 0 144 1;
#X connect 146 0 112 1;
#X connect 147 0 146 1;
#X connect 148 0 86 1;
#X connect 149 0 148 1;
#X connect 150 0 87 1;
#X connect 151 0 150 1;
#X connect 152 0 88 1;
#X connect 153 0 152 1;
#X connect 154 0 89 1;
#X connect 155 0 154 1;
#X connect 156 0 148 0;
#X connect 157 0 150 0;
#X connect 158 0 152 0;
#X connect 159 0 154 0;
#X connect 160 0 140 0;
#X connect 161 0 142 0;
#X connect 162 0 144 0;
#X connect 163 0 146 0;
#X connect 164 0 91 0;
#X connect 164 0 96 0;
#X connect 164 0 97 0;
#X connect 164 0 108 0;
#X connect 164 0 114 0;
#X connect 164 0 119 0;
#X connect 164 0 120 0;
#X connect 164 0 131 0;
#X connect 165 0 164 0;
#X connect 166 0 246 0;
#X connect 167 0 246 0;
#X connect 168 0 246 0;
#X connect 169 0 246 0;
#X connect 170 0 180 0;
#X connect 171 0 166 0;
#X connect 172 0 178 0;
#X connect 173 0 167 0;
#X connect 174 0 182 0;
#X connect 175 0 168 0;
#X connect 176 0 173 0;
#X connect 177 0 175 0;
#X connect 178 0 179 0;
#X connect 179 0 213 0;
#X connect 180 0 181 0;
#X connect 181 0 212 0;
#X connect 182 0 183 0;
#X connect 183 0 214 0;
#X connect 184 0 186 0;
#X connect 185 0 169 0;
#X connect 186 0 187 0;
#X connect 187 0 215 0;
#X connect 188 0 185 0;
#X connect 189 0 247 0;
#X connect 190 0 247 0;
#X connect 191 0 247 0;
#X connect 192 0 247 0;
#X connect 193 0 203 0;
#X connect 194 0 189 0;
#X connect 195 0 201 0;
#X connect 196 0 190 0;
#X connect 197 0 205 0;
#X connect 198 0 191 0;
#X connect 199 0 196 0;
#X connect 200 0 198 0;
#X connect 201 0 202 0;
#X connect 202 0 217 0;
#X connect 203 0 204 0;
#X connect 204 0 216 0;
#X connect 205 0 206 0;
#X connect 206 0 218 0;
#X connect 207 0 209 0;
#X connect 208 0 192 0;
#X connect 209 0 210 0;
#X connect 210 0 219 0;
#X connect 211 0 208 0;
#X connect 212 0 171 1;
#X connect 213 0 173 1;
#X connect 214 0 175 1;
#X connect 215 0 185 1;
#X connect 216 0 194 1;
#X connect 217 0 196 1;
#X connect 218 0 198 1;
#X connect 219 0 208 1;
#X connect 220 0 189 1;
#X connect 221 0 220 1;
#X connect 222 0 190 1;
#X connect 223 0 222 1;
#X connect 224 0 191 1;
#X connect 225 0 224 1;
#X connect 226 0 192 1;
#X connect 227 0 226 1;
#X connect 228 0 166 1;
#X connect 229 0 228 1;
#X connect 230 0 167 1;
#X connect 231 0 230 1;
#X connect 232 0 168 1;
#X connect 233 0 232 1;
#X connect 234 0 169 1;
#X connect 235 0 234 1;
#X connect 236 0 228 0;
#X connect 237 0 230 0;
#X connect 238 0 232 0;
#X connect 239 0 234 0;
#X connect 240 0 220 0;
#X connect 241 0 222 0;
#X connect 242 0 224 0;
#X connect 243 0 226 0;
#X connect 244 0 171 0;
#X connect 244 0 176 0;
#X connect 244 0 177 0;
#X connect 244 0 188 0;
#X connect 244 0 194 0;
#X connect 244 0 199 0;
#X connect 244 0 200 0;
#X connect 244 0 211 0;
#X connect 245 0 244 0;
#X connect 246 0 79 0;
#X connect 246 0 6 0;
#X connect 247 0 79 1;
#X connect 247 0 6 1;
#X connect 248 0 79 1;
#X connect 248 0 6 1;
#X connect 249 0 79 0;
#X connect 249 0 6 0;
#X connect 250 0 165 0;
#X connect 251 0 245 0;
#X connect 252 0 6 0;
#X connect 252 0 79 0;
#X connect 253 0 6 1;
#X connect 253 0 79 1;
#X connect 254 0 85 0;
#X connect 254 1 250 0;
#X connect 254 2 251 0;
#X connect 255 0 254 0;
