#N canvas 232 371 1156 713 12;
#X obj 652 372 pow~ 2;
#X obj 647 256 line~;
#X obj 105 110 vsl 40 180 0 1 0 0 empty empty empty 0 -9 0 12 #fcfcfc #000000 #000000 0 1;
#X msg 650 230 \$1 20;
#X obj 648 285 clip~ 0 1;
#X obj 645 319 *~ 0.5;
#X floatatom 105 297 5 0 0 0 - - - 0;
#X msg 726 230 \$1 20;
#X obj 724 285 clip 0 1;
#X obj 723 256 line;
#X obj 721 319 * 0.5;
#X obj 740 358 pow 2;
#X obj 742 398 log 10;
#X obj 749 427 * 20;
#X obj 609 467 *~;
#X obj 553 464 *~;
#X obj 510 422 inlet~;
#X obj 580 421 inlet~;
#X obj 516 501 outlet~;
#X obj 595 503 outlet~;
#X connect 0 0 14 1;
#X connect 0 0 15 1;
#X connect 1 0 4 0;
#X connect 2 0 3 0;
#X connect 2 0 7 0;
#X connect 3 0 1 0;
#X connect 4 0 5 0;
#X connect 5 0 0 0;
#X connect 7 0 9 0;
#X connect 8 0 10 0;
#X connect 9 0 8 0;
#X connect 10 0 11 0;
#X connect 11 0 12 0;
#X connect 12 0 13 0;
#X connect 13 0 6 0;
#X connect 14 0 19 0;
#X connect 15 0 18 0;
#X connect 16 0 15 0;
#X connect 17 0 14 0;
#X coords 0 -1 1 1 50 220 2 100 100;
