#N canvas 595 176 503 917 12;
#X obj 114 199 +~;
#X obj 223 246 clip~ -1 1;
#X obj 116 281 *~ -1;
#X obj 302 281 *~ -1;
#X obj 138 146 +~ 1;
#X obj 115 174 *~;
#X obj 117 330 +~;
#X obj 236 408 clip~ -1 1;
#X obj 129 456 *~ -1;
#X obj 309 438 *~ -1;
#X obj 121 502 +~;
#X obj 229 553 clip~ -1 1;
#X obj 125 604 *~ -1;
#X obj 125 669 +~;
#X obj 305 586 *~ -1;
#X obj 139 121 *~ 6;
#X obj 141 92 clip~ 0 1;
#X obj 111 249 clip~ -100 -1;
#X obj 304 247 clip~ 1 100;
#X obj 124 411 clip~ -100 -1;
#X obj 317 409 clip~ 1 100;
#X obj 117 556 clip~ -100 -1;
#X obj 310 554 clip~ 1 100;
#X obj 121 705 *~ 0.9;
#X obj 94 55 inlet~;
#X obj 149 55 inlet~;
#X obj 111 777 outlet~;
#X connect 0 0 1 0;
#X connect 0 0 17 0;
#X connect 0 0 18 0;
#X connect 1 0 6 0;
#X connect 2 0 6 0;
#X connect 3 0 6 0;
#X connect 4 0 5 1;
#X connect 5 0 0 0;
#X connect 6 0 7 0;
#X connect 6 0 19 0;
#X connect 6 0 20 0;
#X connect 7 0 10 0;
#X connect 8 0 10 0;
#X connect 9 0 10 0;
#X connect 10 0 11 0;
#X connect 10 0 21 0;
#X connect 10 0 22 0;
#X connect 11 0 13 0;
#X connect 12 0 13 0;
#X connect 13 0 23 0;
#X connect 14 0 13 0;
#X connect 15 0 4 0;
#X connect 16 0 15 0;
#X connect 17 0 2 0;
#X connect 18 0 3 0;
#X connect 19 0 8 0;
#X connect 20 0 9 0;
#X connect 21 0 12 0;
#X connect 22 0 14 0;
#X connect 23 0 26 0;
#X connect 24 0 5 0;
#X connect 25 0 16 0;
