#N canvas 724 45 629 1043 12;
#X obj 78 69 adc~ 1 2;
#X obj 79 116 env~;
#X obj 134 115 env~;
#X obj 79 154 +;
#X obj 79 186 / 2;
#X obj 194 570 dac~ 1 2;
#X obj 192 118 fft~;
#X obj 11 1008 comport;
#X msg 11 971 devices;
#X msg 121 973 open 8 112500;
#X obj 15 618 vsl 19 50 -5 5 0 0 empty empty empty 0 -9 0 12 #fcfcfc #000000 #000000 0 1;
#X obj 14 701 list fromsymbol;
#X obj 15 677 makefilename %f;
#X obj 13 727 list prepend 111 117 116 112 117 116 91 49 93 46 118 111 108 116 115 32 61 32, f 16;
#X obj 50 945 list append 13;
#X obj 40 618 vsl 19 50 -5 5 0 0 empty empty empty 0 -9 0 12 #fcfcfc #000000 #000000 0 1;
#X obj 135 697 list fromsymbol;
#X obj 134 675 makefilename %f;
#X obj 64 618 vsl 19 50 -5 5 0 0 empty empty empty 0 -9 0 12 #fcfcfc #000000 #000000 0 1;
#X obj 12 832 list fromsymbol;
#X obj 13 811 makefilename %f;
#X obj 89 617 vsl 19 50 -5 5 0 0 empty empty empty 0 -9 0 12 #fcfcfc #000000 #000000 0 1;
#X obj 132 835 list fromsymbol;
#X obj 133 811 makefilename %f;
#X obj 133 725 list prepend 111 117 116 112 117 116 91 50 93 46 118 111 108 116 115 32 61 32, f 16;
#X obj 12 862 list prepend 111 117 116 112 117 116 91 51 93 46 118 111 108 116 115 32 61 32, f 16;
#X obj 132 862 list prepend 111 117 116 112 117 116 91 52 93 46 118 111 108 116 115 32 61 32, f 16;
#X msg 72 972 close;
#X obj 195 532 outputstage;
#X obj 197 446 rev3~, f 17;
#X obj 124 447 *~;
#X obj 159 446 *~;
#X obj 220 263 scope;
#X obj 345 258 scope;
#X connect 0 0 1 0;
#X connect 0 0 32 0;
#X connect 0 1 2 0;
#X connect 0 1 33 0;
#X connect 1 0 3 0;
#X connect 2 0 3 1;
#X connect 3 0 4 0;
#X connect 8 0 7 0;
#X connect 9 0 7 0;
#X connect 10 0 12 0;
#X connect 11 0 13 0;
#X connect 12 0 11 0;
#X connect 13 0 14 0;
#X connect 14 0 7 0;
#X connect 15 0 17 0;
#X connect 16 0 24 0;
#X connect 17 0 16 0;
#X connect 18 0 20 0;
#X connect 19 0 25 0;
#X connect 20 0 19 0;
#X connect 21 0 23 0;
#X connect 22 0 26 0;
#X connect 23 0 22 0;
#X connect 24 0 14 0;
#X connect 25 0 14 0;
#X connect 26 0 14 0;
#X connect 27 0 7 0;
#X connect 28 0 5 0;
#X connect 28 1 5 1;
#X connect 29 0 28 0;
#X connect 29 1 28 1;
#X connect 29 2 28 0;
#X connect 29 3 28 1;
#X connect 30 0 28 0;
#X connect 31 0 28 1;
