#N canvas 1 1 1902 1139 12;
#X declare -lib Gem;
#X obj 41 39 declare -lib Gem;
#X obj 53 234 gemhead;
#X obj 183 101 gemwin;
#X msg 185 12 destroy;
#X msg 249 10 topmost 1;
#X obj 62 79 tgl 19 0 empty empty empty 0 -10 0 12 #fcfcfc #000000 #000000 0 1;
#X obj 330 844 osc~;
#X obj 289 887 scope;
#X obj 160 902 scopeXYZ~;
#X obj 113 743 *~ 2;
#X obj 113 778 -~ 1;
#X obj 111 829 *~ 10;
#X obj 208 733 gemhead;
#X obj 114 704 phasor~ 44;
#X msg 378 686 length 1000;
#X msg 220 1032 width 1;
#X obj 2023 132 adc~ 3;
#X obj 1673 675 scopeXYZ~;
#X obj 1574 327 gemhead;
#X msg 1518 652 width 1;
#X obj 1098 30 adc~ 3;
#X obj 1207 99 hip~ 2000;
#X obj 1033 98 lop~ 100;
#X obj 1033 130 lop~ 100;
#X obj 1116 132 hip~ 200;
#X obj 1122 98 hip~ 200;
#X obj 1116 189 lop~ 1000;
#X obj 1118 157 lop~ 1000;
#X obj 1210 129 hip~ 2000;
#X obj 1117 226 env~;
#X obj 1212 173 env~;
#X obj 1215 226 / 100;
#X obj 1133 255 / 100;
#X obj 1714 336 noise~;
#X obj 1706 470 clip~ -1 1;
#X obj 1708 439 *~;
#X obj 1790 468 clip~ -1 1;
#X obj 1792 437 *~;
#X obj 1871 470 clip~ -1 1;
#X obj 1873 439 *~;
#X obj 1784 336 noise~;
#X obj 1848 332 noise~;
#X obj 1722 612 *~;
#X obj 1911 613 line~;
#X msg 1911 571 \$1 20;
#X obj 1974 572 vsl 19 162 0 1000 0 0 empty empty empty 0 -9 0 12 #fcfcfc #000000 #000000 0 1;
#X obj 1806 610 *~;
#X obj 1887 612 *~;
#X obj 1544 377 accumrotate;
#X obj 1631 461 bang;
#X obj 1726 378 lop~ 1;
#X obj 1791 371 lop~ 1;
#X obj 1859 366 lop~ 1;
#X obj 1705 416 lop~ 1;
#X obj 1788 409 lop~ 1;
#X obj 1875 403 lop~ 1;
#X msg 1211 331 \$1 50;
#X obj 166 526 sigmund~;
#X floatatom 169 610 5 0 0 0 - - - 0;
#X obj 84 602 mtof~;
#X obj 207 585 clip 30 127;
#X obj 81 563 line~;
#X msg 80 533 \$1 20;
#X obj 1638 267 *~;
#X obj 1459 345 line~;
#X obj 1211 368 line~;
#X obj 1734 267 *~;
#X obj 1830 272 *~;
#X obj 193 440 tgl 19 0 empty empty empty 0 -10 0 12 #fcfcfc #000000 #000000 0 1;
#X msg 1515 616 length 44100;
#X obj 1219 264 pow 20;
#X obj 1405 351 line;
#X obj 1342 177 vu 19 200 empty empty -1 -10 0 12 #404040 #000000 1 0;
#N canvas 329 161 625 417 vu 0;
#X obj 59 129 env~ 1024;
#X obj 161 111 abs~;
#X obj 161 213 snapshot~;
#X obj 161 256 rmstodb;
#X obj 161 21 inlet~;
#X obj 161 288 - 100;
#X obj 59 287 - 100;
#X obj 59 361 outlet;
#X obj 161 361 outlet;
#X text 344 307 Check the help file of env~ and slop~ for more details., f 31;
#X obj 239 89 expr 1000 / $f1;
#X floatatom 239 117 5 0 0 0 - - - 0;
#X obj 161 146 slop~ 0 0 0 0 1e+09;
#X obj 239 18 inlet;
#X floatatom 239 57 5 0 0 0 - - - 0;
#X text 359 89 convert to hz;
#X text 282 118 hz;
#X text 284 57 peak decay time in ms;
#X obj 59 171 t f b;
#X text 345 132 The env~ object is dedicated to RMS analysis. Its output is in dB (0-100 range \, pd style) but needs to be converted to dBFS (and we do that by simply subtracting 100)., f 31;
#X text 345 225 The slop~ object is used here for peak detection. We need to convert the output to dB with rmstodb and also subtract by 100 to convert it to dBFS., f 31;
#X connect 0 0 18 0;
#X connect 1 0 12 0;
#X connect 2 0 3 0;
#X connect 3 0 5 0;
#X connect 4 0 0 0;
#X connect 4 0 1 0;
#X connect 5 0 8 0;
#X connect 6 0 7 0;
#X connect 10 0 11 0;
#X connect 11 0 12 3;
#X connect 12 0 2 0;
#X connect 13 0 14 0;
#X connect 14 0 10 0;
#X connect 18 0 6 0;
#X connect 18 1 2 0;
#X restore 1331 86 pd vu;
#X text 1378 85 <-- open for analysis;
#X floatatom 1313 123 5 0 0 0 - - - 0;
#X floatatom 1372 121 5 0 0 0 - - - 0;
#X obj 1288 152 vsl 19 162 -100 0 0 0 empty empty empty 0 -9 0 12 #fcfcfc #000000 #000000 0 1;
#X obj 1062 73 hip~ 20;
#X obj 1915 294 tgl 19 0 empty empty empty 0 -10 0 12 #fcfcfc #000000 #000000 0 1;
#X msg 1375 27 500;
#X obj 1397 161 + 100;
#X floatatom 1398 190 5 0 0 0 - - - 0;
#X floatatom 1402 254 5 0 0 0 - - - 0;
#X obj 1403 223 - 80;
#X obj 1402 285 / 5;
#X obj 1664 83 noise~;
#X msg 1462 313 \$1 20;
#X obj 1760 58 noise~;
#X obj 1842 66 noise~;
#X obj 1657 235 *~ 3;
#X obj 1753 235 *~ 3;
#X obj 1849 240 *~ 3;
#X obj 1643 176 lop~ 400;
#X obj 1643 144 lop~ 400;
#X obj 1739 119 lop~ 400;
#X obj 1739 151 lop~ 400;
#X obj 1821 159 lop~ 400;
#X obj 1821 127 lop~ 400;
#X msg 236 107 frame 120;
#X msg 1647 525 0.1;
#X obj 104 284 translateXYZ;
#X obj 87 182 bang;
#X obj 140 185 random 200;
#X obj 138 224 - 100;
#X obj 139 259 / 10;
#X obj 1663 196 *~;
#X obj 1747 194 *~;
#X obj 1828 196 *~;
#X obj 1941 24 ad;
#X obj 1574 230 tgl 19 0 empty empty empty 0 -10 0 12 #fcfcfc #000000 #000000 0 1;
#X obj 260 233 random 100;
#X obj 57 325 rectangle 0.01 10;
#X obj 996 471 accumrotate;
#X obj 1000 549 rectangle 1 10;
#X obj 1135 367 line;
#X floatatom 1135 391 5 0 0 0 - - - 0;
#X msg 1004 507 draw line;
#X obj 994 427 gemhead;
#X obj 1072 431 * 5;
#X obj 970 804 accumrotate;
#X obj 974 882 rectangle 1 10;
#X msg 978 840 draw line;
#X obj 950 676 gemhead;
#X obj 1099 749 * -6;
#X obj 961 723 loadbang;
#X obj 1193 812 accumrotate;
#X obj 1197 890 rectangle 1 10;
#X msg 1201 848 draw line;
#X obj 1173 684 gemhead;
#X obj 1231 737 loadbang;
#X obj 1322 757 * -3;
#X obj 1392 841 accumrotate;
#X obj 1396 919 rectangle 1 10;
#X msg 1400 877 draw line;
#X obj 1372 713 gemhead;
#X obj 1430 766 loadbang;
#X obj 1521 786 * 20;
#X msg 1135 330 \$1 50;
#X msg 1302 857 0.1;
#X obj 257 268 / 1000;
#X obj 1258 606 tgl 19 0 empty empty empty 0 -10 0 12 #fcfcfc #000000 #000000 0 1;
#X obj 771 366 circle;
#X msg 796 155 draw line;
#X obj 905 289 snapshot~;
#X obj 813 233 gemhead;
#X obj 834 277 bang;
#X obj 900 348 * 10;
#X obj 909 250 phasor~ 0.1;
#X obj 889 178 loadbang;
#X obj 687 614 circle;
#X msg 712 403 draw line;
#X obj 821 537 snapshot~;
#X obj 729 481 gemhead;
#X obj 750 525 bang;
#X obj 816 596 * 10;
#X obj 805 426 loadbang;
#X obj 825 498 phasor~ -0.1;
#X msg 719 729 draw line;
#X obj 828 863 snapshot~;
#X obj 736 807 gemhead;
#X obj 757 851 bang;
#X obj 823 922 * 10;
#X obj 812 752 loadbang;
#X obj 694 940 square;
#X obj 711 904 accumrotate;
#X msg 782 871 0.1;
#X obj 832 824 phasor~ 0.01;
#X obj 1745 1124 textextruded;
#X msg 1773 908 depth 0;
#X obj 1835 786 gemhead;
#X obj 1841 1086 translateXYZ;
#X obj 1911 849 bang;
#X obj 1864 967 random 200;
#X obj 1862 1006 - 100;
#X obj 1863 1041 / 10;
#X obj 1944 966 random 200;
#X obj 1942 1005 - 100;
#X obj 1943 1040 / 10;
#X obj 2028 964 random 200;
#X obj 2026 1003 - 100;
#X obj 2027 1038 / 10;
#X obj 1083 999 random 256;
#X obj 1166 999 random 256;
#X obj 1217 1083 list tosymbol;
#X obj 1229 1054 pack 0 0 0 0 0 0 0 0;
#X obj 1254 1002 random 256;
#X obj 1337 1002 random 256;
#X obj 1419 1001 random 256;
#X obj 1502 1001 random 256;
#X obj 1590 1004 random 256;
#X obj 1673 1004 random 256;
#X obj 1681 737 tgl 19 0 empty empty empty 0 -10 0 12 #fcfcfc #000000 #000000 0 1;
#X obj 1404 588 > 1;
#X msg 1868 890 20;
#X msg 1926 330 2;
#X obj 1137 293 pow 15;
#X msg 221 64 dimen 1024 768 \, offset 1920 0 \, create \, 1;
#X obj 713 244 tgl 19 0 empty empty empty 0 -10 0 12 #fcfcfc #000000 #000000 0 1;
#X obj 677 1149 osc~;
#X obj 636 1192 scope;
#X obj 507 1207 scopeXYZ~;
#X obj 460 1048 *~ 2;
#X obj 460 1083 -~ 1;
#X obj 458 1134 *~ 10;
#X obj 555 1038 gemhead;
#X msg 725 991 length 1000;
#X msg 567 1337 width 1;
#X obj 513 831 sigmund~;
#X floatatom 516 915 5 0 0 0 - - - 0;
#X obj 541 875 clip 30 127;
#X obj 540 745 tgl 19 0 empty empty empty 0 -10 0 12 #fcfcfc #000000 #000000 0 1;
#X obj 350 593 translateXYZ;
#X msg 400 553 1;
#X obj 464 599 translateXYZ;
#X msg 514 559 -1;
#X obj 339 1485 osc~;
#X obj 298 1528 scope;
#X obj 169 1543 scopeXYZ~;
#X obj 122 1384 *~ 2;
#X obj 122 1419 -~ 1;
#X obj 217 1374 gemhead;
#X obj 175 1167 sigmund~;
#X floatatom 178 1251 5 0 0 0 - - - 0;
#X obj 93 1243 mtof~;
#X obj 203 1211 clip 30 127;
#X obj 90 1204 line~;
#X msg 89 1174 \$1 20;
#X obj 202 1081 tgl 19 0 empty empty empty 0 -10 0 12 #fcfcfc #000000 #000000 0 1;
#X obj 359 1234 translateXYZ;
#X obj 284 1168 -~;
#X msg 409 1194 0;
#X obj 120 1470 *~ 5.2;
#X obj 123 1345 phasor~ 100;
#X msg 387 1327 length 480;
#X msg 229 1673 width 2;
#X obj 246 1103 adc~ 3 3;
#X obj 569 805 adc~ 3;
#X obj 201 480 adc~ 4 4;
#X obj 576 1151 *~ 5;
#X obj 229 846 *~ 5;
#X obj 238 1487 *~ 1;
#X connect 1 0 101 0;
#X connect 1 0 102 0;
#X connect 3 0 2 0;
#X connect 4 0 2 0;
#X connect 5 0 1 0;
#X connect 9 0 10 0;
#X connect 10 0 11 0;
#X connect 11 0 8 1;
#X connect 12 0 212 0;
#X connect 13 0 9 0;
#X connect 13 0 202 0;
#X connect 14 0 8 0;
#X connect 15 0 8 0;
#X connect 18 0 48 0;
#X connect 18 0 49 0;
#X connect 19 0 17 0;
#X connect 20 0 25 0;
#X connect 20 0 21 0;
#X connect 20 0 78 0;
#X connect 21 0 28 0;
#X connect 22 0 23 0;
#X connect 23 0 73 0;
#X connect 24 0 27 0;
#X connect 25 0 24 0;
#X connect 26 0 29 0;
#X connect 27 0 26 0;
#X connect 28 0 30 0;
#X connect 29 0 32 0;
#X connect 30 0 31 0;
#X connect 31 0 70 0;
#X connect 32 0 196 0;
#X connect 33 0 50 0;
#X connect 34 0 42 0;
#X connect 35 0 34 0;
#X connect 36 0 46 0;
#X connect 37 0 36 0;
#X connect 38 0 47 0;
#X connect 39 0 38 0;
#X connect 40 0 51 0;
#X connect 41 0 52 0;
#X connect 42 0 17 1;
#X connect 43 0 42 1;
#X connect 43 0 46 1;
#X connect 43 0 47 1;
#X connect 44 0 43 0;
#X connect 45 0 44 0;
#X connect 46 0 17 2;
#X connect 47 0 17 3;
#X connect 48 0 17 0;
#X connect 49 0 100 0;
#X connect 50 0 53 0;
#X connect 51 0 54 0;
#X connect 52 0 55 0;
#X connect 53 0 35 0;
#X connect 54 0 37 0;
#X connect 55 0 39 0;
#X connect 56 0 65 0;
#X connect 57 0 60 0;
#X connect 58 0 62 0;
#X connect 59 0 13 0;
#X connect 60 0 58 0;
#X connect 61 0 59 0;
#X connect 62 0 61 0;
#X connect 63 0 17 1;
#X connect 64 0 90 0;
#X connect 64 0 91 0;
#X connect 64 0 92 0;
#X connect 66 0 17 2;
#X connect 67 0 17 3;
#X connect 68 0 12 0;
#X connect 69 0 17 0;
#X connect 70 0 56 0;
#X connect 73 0 75 0;
#X connect 73 0 72 0;
#X connect 73 1 76 0;
#X connect 73 1 72 1;
#X connect 75 0 77 0;
#X connect 76 0 81 0;
#X connect 78 0 22 0;
#X connect 79 0 18 0;
#X connect 80 0 73 1;
#X connect 81 0 82 0;
#X connect 82 0 84 0;
#X connect 83 0 85 0;
#X connect 84 0 83 0;
#X connect 85 0 87 0;
#X connect 86 0 94 0;
#X connect 87 0 64 0;
#X connect 87 0 71 0;
#X connect 88 0 95 0;
#X connect 89 0 98 0;
#X connect 90 0 63 1;
#X connect 91 0 66 1;
#X connect 92 0 67 1;
#X connect 93 0 106 0;
#X connect 94 0 93 0;
#X connect 95 0 96 0;
#X connect 96 0 107 0;
#X connect 97 0 108 0;
#X connect 98 0 97 0;
#X connect 99 0 2 0;
#X connect 100 0 48 1;
#X connect 100 0 48 3;
#X connect 101 0 112 0;
#X connect 102 0 103 0;
#X connect 102 0 111 0;
#X connect 103 0 104 0;
#X connect 104 0 105 0;
#X connect 105 0 101 1;
#X connect 106 0 63 0;
#X connect 107 0 66 0;
#X connect 108 0 67 0;
#X connect 109 0 106 1;
#X connect 109 0 107 1;
#X connect 109 0 108 1;
#X connect 109 1 35 1;
#X connect 109 1 37 1;
#X connect 109 1 39 1;
#X connect 110 0 18 0;
#X connect 111 0 140 0;
#X connect 113 0 114 0;
#X connect 115 0 116 0;
#X connect 116 0 119 0;
#X connect 116 0 124 0;
#X connect 116 0 131 0;
#X connect 116 0 137 0;
#X connect 117 0 114 0;
#X connect 118 0 113 0;
#X connect 119 0 113 3;
#X connect 119 0 120 1;
#X connect 120 0 121 0;
#X connect 122 0 121 0;
#X connect 123 0 120 0;
#X connect 124 0 120 3;
#X connect 124 0 126 2;
#X connect 124 0 132 2;
#X connect 125 0 122 0;
#X connect 126 0 127 0;
#X connect 128 0 127 0;
#X connect 129 0 126 0;
#X connect 130 0 128 0;
#X connect 131 0 126 3;
#X connect 131 0 120 2;
#X connect 131 0 132 1;
#X connect 131 0 113 2;
#X connect 132 0 133 0;
#X connect 134 0 133 0;
#X connect 135 0 132 0;
#X connect 136 0 134 0;
#X connect 137 0 132 3;
#X connect 137 0 120 1;
#X connect 138 0 115 0;
#X connect 139 0 127 1;
#X connect 139 0 133 1;
#X connect 139 0 121 1;
#X connect 139 0 114 1;
#X connect 140 0 112 1;
#X connect 141 0 123 0;
#X connect 141 0 129 0;
#X connect 141 0 135 0;
#X connect 141 0 118 0;
#X connect 143 0 142 0;
#X connect 144 0 147 0;
#X connect 145 0 146 0;
#X connect 145 0 142 0;
#X connect 146 0 144 0;
#X connect 147 0 142 1;
#X connect 148 0 144 0;
#X connect 149 0 143 0;
#X connect 151 0 150 0;
#X connect 152 0 155 0;
#X connect 153 0 154 0;
#X connect 153 0 150 0;
#X connect 154 0 152 0;
#X connect 155 0 150 1;
#X connect 156 0 151 0;
#X connect 157 0 152 0;
#X connect 158 0 164 0;
#X connect 159 0 162 0;
#X connect 160 0 161 0;
#X connect 160 0 165 0;
#X connect 161 0 159 0;
#X connect 161 0 166 0;
#X connect 162 0 164 1;
#X connect 163 0 158 0;
#X connect 165 0 164 0;
#X connect 166 0 165 3;
#X connect 167 0 159 0;
#X connect 169 0 168 0;
#X connect 170 0 171 0;
#X connect 170 0 172 0;
#X connect 171 0 168 0;
#X connect 172 0 173 0;
#X connect 172 0 176 0;
#X connect 172 0 179 0;
#X connect 172 0 182 0;
#X connect 172 0 183 0;
#X connect 172 0 187 0;
#X connect 172 0 186 0;
#X connect 172 0 188 0;
#X connect 172 0 191 0;
#X connect 172 0 190 0;
#X connect 172 0 189 0;
#X connect 173 0 174 0;
#X connect 174 0 175 0;
#X connect 175 0 171 1;
#X connect 176 0 177 0;
#X connect 177 0 178 0;
#X connect 178 0 171 2;
#X connect 179 0 180 0;
#X connect 180 0 181 0;
#X connect 181 0 171 3;
#X connect 182 0 185 0;
#X connect 183 0 185 1;
#X connect 184 0 168 0;
#X connect 185 0 184 0;
#X connect 186 0 185 2;
#X connect 187 0 185 3;
#X connect 188 0 185 4;
#X connect 189 0 185 5;
#X connect 190 0 185 6;
#X connect 191 0 185 7;
#X connect 192 0 170 0;
#X connect 193 0 192 0;
#X connect 193 0 141 0;
#X connect 194 0 168 1;
#X connect 195 0 52 1;
#X connect 195 0 55 1;
#X connect 195 0 54 1;
#X connect 195 0 53 1;
#X connect 195 0 51 1;
#X connect 195 0 50 1;
#X connect 196 0 138 0;
#X connect 197 0 2 0;
#X connect 198 0 145 0;
#X connect 198 0 160 0;
#X connect 198 0 153 0;
#X connect 202 0 203 0;
#X connect 203 0 204 0;
#X connect 204 0 201 1;
#X connect 205 0 214 0;
#X connect 206 0 201 0;
#X connect 207 0 201 0;
#X connect 208 0 210 0;
#X connect 210 0 209 0;
#X connect 211 0 205 0;
#X connect 212 0 8 0;
#X connect 213 0 212 2;
#X connect 214 0 201 0;
#X connect 215 0 214 2;
#X connect 219 0 220 0;
#X connect 220 0 232 0;
#X connect 221 0 229 0;
#X connect 222 0 225 0;
#X connect 223 0 227 0;
#X connect 225 0 223 0;
#X connect 226 0 224 0;
#X connect 227 0 226 0;
#X connect 228 0 221 0;
#X connect 229 0 218 0;
#X connect 230 0 222 0;
#X connect 230 0 241 0;
#X connect 231 0 229 2;
#X connect 232 0 218 1;
#X connect 233 0 219 0;
#X connect 234 0 218 0;
#X connect 235 0 218 0;
#X connect 236 0 230 0;
#X connect 237 0 200 0;
#X connect 237 0 208 0;
#X connect 237 0 239 0;
#X connect 238 0 7 0;
#X connect 238 0 57 0;
#X connect 238 0 240 0;
#X connect 239 0 201 2;
#X connect 240 0 8 2;
#X connect 241 0 218 2;
