#N canvas 182 182 1920 1157 12;
#X obj 241 373 noise~;
#X obj 289 490 hip~ 1000;
#X obj 289 519 lop~ 1000;
#X obj 194 790 scope;
#X obj 479 1039 dac~ 1 2;
#X msg 330 416 \$1;
#X obj 302 710 clip~ -1 1;
#X obj 243 445 vcf~ 100;
#X obj 476 364 mtof;
#X obj 302 599 *~;
#X msg 476 319 \$1;
#X obj 557 240 t b f;
#X obj 546 402 vline~;
#X obj 242 409 lop~ 200;
#X obj 293 551 *~ 50;
#X obj 532 903 rev3~, f 31;
#X msg 636 848 98;
#X obj 307 639 lop~ 300;
#X obj 523 579 osc~;
#X obj 558 634 *~ 0.1;
#X obj 510 507 *~ 100;
#X obj 306 674 *~;
#X obj 605 474 line~;
#X obj 543 549 +~;
#X msg 604 441 \$1 50;
#X obj 620 509 /~ 2;
#X msg 528 320 0 10 \, 1 100 15 \, 0 3000 150;
#X obj 732 400 noise~;
#X obj 780 517 hip~ 1000;
#X obj 780 546 lop~ 1000;
#X msg 821 443 \$1;
#X obj 793 737 clip~ -1 1;
#X obj 734 472 vcf~ 100;
#X obj 967 391 mtof;
#X obj 793 626 *~;
#X msg 967 346 \$1;
#X obj 1048 267 t b f;
#X obj 1037 429 vline~;
#X obj 733 436 lop~ 200;
#X obj 784 578 *~ 50;
#X obj 798 666 lop~ 300;
#X obj 1014 606 osc~;
#X obj 1049 661 *~ 0.1;
#X obj 1001 534 *~ 100;
#X obj 797 701 *~;
#X obj 1096 501 line~;
#X obj 1034 576 +~;
#X msg 1095 468 \$1 50;
#X obj 1111 536 /~ 2;
#X msg 1019 347 0 10 \, 1 100 15 \, 0 3000 150;
#X obj 1212 423 noise~;
#X obj 1260 540 hip~ 1000;
#X obj 1260 569 lop~ 1000;
#X msg 1301 466 \$1;
#X obj 1273 760 clip~ -1 1;
#X obj 1214 495 vcf~ 100;
#X obj 1447 414 mtof;
#X obj 1273 649 *~;
#X msg 1447 369 \$1;
#X obj 1528 290 t b f;
#X obj 1517 452 vline~;
#X obj 1213 459 lop~ 200;
#X obj 1264 601 *~ 50;
#X obj 1278 689 lop~ 300;
#X obj 1494 629 osc~;
#X obj 1529 684 *~ 0.1;
#X obj 1481 557 *~ 100;
#X obj 1277 724 *~;
#X obj 1576 524 line~;
#X obj 1514 599 +~;
#X msg 1575 491 \$1 50;
#X obj 1591 559 /~ 2;
#X msg 1499 370 0 10 \, 1 100 15 \, 0 3000 150;
#X obj 1702 411 noise~;
#X obj 1750 528 hip~ 1000;
#X obj 1750 557 lop~ 1000;
#X msg 1791 454 \$1;
#X obj 1763 748 clip~ -1 1;
#X obj 1704 483 vcf~ 100;
#X obj 1937 402 mtof;
#X obj 1763 637 *~;
#X msg 1937 357 \$1;
#X obj 2018 278 t b f;
#X obj 2007 440 vline~;
#X obj 1703 447 lop~ 200;
#X obj 1754 589 *~ 50;
#X obj 1768 677 lop~ 300;
#X obj 1984 617 osc~;
#X obj 2019 672 *~ 0.1;
#X obj 1971 545 *~ 100;
#X obj 1767 712 *~;
#X obj 2066 512 line~;
#X obj 2004 587 +~;
#X msg 2065 479 \$1 50;
#X obj 2081 547 /~ 2;
#X msg 1989 358 0 10 \, 1 100 15 \, 0 3000 150;
#X obj 1027 141 unpack 0 0 0 0;
#X obj 485 816 *~ 0.3;
#X msg 1027 97 80 85 79 97;
#X msg 1125 97 80 85 79 98;
#X msg 751 845 50;
#X msg 697 853 1000;
#X connect 0 0 13 0;
#X connect 1 0 2 0;
#X connect 2 0 14 0;
#X connect 5 0 1 1;
#X connect 5 0 2 1;
#X connect 5 0 7 1;
#X connect 6 0 97 0;
#X connect 7 1 1 0;
#X connect 8 0 5 0;
#X connect 8 0 24 0;
#X connect 9 0 17 0;
#X connect 10 0 8 0;
#X connect 11 0 26 0;
#X connect 11 1 10 0;
#X connect 12 0 9 1;
#X connect 12 0 21 1;
#X connect 13 0 7 0;
#X connect 14 0 9 0;
#X connect 15 0 4 0;
#X connect 15 1 4 1;
#X connect 15 2 4 0;
#X connect 15 3 4 1;
#X connect 16 0 15 2;
#X connect 16 0 15 3;
#X connect 17 0 20 0;
#X connect 17 0 21 0;
#X connect 18 0 19 0;
#X connect 19 0 21 0;
#X connect 20 0 23 0;
#X connect 21 0 6 0;
#X connect 22 0 25 0;
#X connect 23 0 18 0;
#X connect 24 0 22 0;
#X connect 25 0 23 1;
#X connect 26 0 12 0;
#X connect 27 0 38 0;
#X connect 28 0 29 0;
#X connect 29 0 39 0;
#X connect 30 0 28 1;
#X connect 30 0 29 1;
#X connect 30 0 32 1;
#X connect 31 0 97 0;
#X connect 32 1 28 0;
#X connect 33 0 30 0;
#X connect 33 0 47 0;
#X connect 34 0 40 0;
#X connect 35 0 33 0;
#X connect 36 0 49 0;
#X connect 36 1 35 0;
#X connect 37 0 34 1;
#X connect 37 0 44 1;
#X connect 38 0 32 0;
#X connect 39 0 34 0;
#X connect 40 0 43 0;
#X connect 40 0 44 0;
#X connect 41 0 42 0;
#X connect 42 0 44 0;
#X connect 43 0 46 0;
#X connect 44 0 31 0;
#X connect 45 0 48 0;
#X connect 46 0 41 0;
#X connect 47 0 45 0;
#X connect 48 0 46 1;
#X connect 49 0 37 0;
#X connect 50 0 61 0;
#X connect 51 0 52 0;
#X connect 52 0 62 0;
#X connect 53 0 51 1;
#X connect 53 0 52 1;
#X connect 53 0 55 1;
#X connect 54 0 97 0;
#X connect 55 1 51 0;
#X connect 56 0 53 0;
#X connect 56 0 70 0;
#X connect 57 0 63 0;
#X connect 58 0 56 0;
#X connect 59 0 72 0;
#X connect 59 1 58 0;
#X connect 60 0 57 1;
#X connect 60 0 67 1;
#X connect 61 0 55 0;
#X connect 62 0 57 0;
#X connect 63 0 66 0;
#X connect 63 0 67 0;
#X connect 64 0 65 0;
#X connect 65 0 67 0;
#X connect 66 0 69 0;
#X connect 67 0 54 0;
#X connect 68 0 71 0;
#X connect 69 0 64 0;
#X connect 70 0 68 0;
#X connect 71 0 69 1;
#X connect 72 0 60 0;
#X connect 73 0 84 0;
#X connect 74 0 75 0;
#X connect 75 0 85 0;
#X connect 76 0 74 1;
#X connect 76 0 75 1;
#X connect 76 0 78 1;
#X connect 77 0 97 0;
#X connect 78 1 74 0;
#X connect 79 0 76 0;
#X connect 79 0 93 0;
#X connect 80 0 86 0;
#X connect 81 0 79 0;
#X connect 82 0 95 0;
#X connect 82 1 81 0;
#X connect 83 0 80 1;
#X connect 83 0 90 1;
#X connect 84 0 78 0;
#X connect 85 0 80 0;
#X connect 86 0 89 0;
#X connect 86 0 90 0;
#X connect 87 0 88 0;
#X connect 88 0 90 0;
#X connect 89 0 92 0;
#X connect 90 0 77 0;
#X connect 91 0 94 0;
#X connect 92 0 87 0;
#X connect 93 0 91 0;
#X connect 94 0 92 1;
#X connect 95 0 83 0;
#X connect 96 0 11 0;
#X connect 96 1 36 0;
#X connect 96 2 59 0;
#X connect 96 3 82 0;
#X connect 97 0 4 0;
#X connect 97 0 4 1;
#X connect 97 0 15 0;
#X connect 97 0 15 1;
#X connect 97 0 3 0;
#X connect 98 0 96 0;
#X connect 99 0 96 0;
#X connect 100 0 15 5;
#X connect 101 0 15 4;
