#N canvas -32 48 1920 1157 12;
#X obj 102 327 adc~ 1 2;
#X obj 318 424 scope;
#X obj 440 425 scope;
#X obj 90 394 hip~ 10;
#X obj 169 393 hip~ 10;
#N canvas 208 53 1118 1109 spec 0;
#X obj 68 136 lop~ 100;
#X obj 66 194 bp~ 150 10, f 16;
#X obj 67 251 bp~ 250 10, f 16;
#X obj 66 308 bp~ 350 10, f 16;
#X obj 70 358 bp~ 500 10, f 16;
#X obj 70 418 bp~ 630 10, f 16;
#X obj 67 475 bp~ 800 10, f 16;
#X obj 68 528 bp~ 1000 10, f 16;
#X obj 68 584 bp~ 1300 10, f 16;
#X obj 63 642 bp~ 1600 10, f 16;
#X obj 63 698 bp~ 2000 10, f 16;
#X obj 56 752 bp~ 3500 10, f 16;
#X obj 57 806 bp~ 5000 10, f 16;
#X obj 58 860 bp~ 8000 10, f 16;
#X obj 58 914 hip~ 10000, f 16;
#X obj 47 112 +~;
#X obj 69 165 delwrite~ 100hz 2000;
#X obj 66 224 delwrite~ 150hz 2000;
#X obj 67 333 delwrite~ 350hz 2000;
#X obj 71 389 delwrite~ 500hz 2000;
#X obj 68 442 delwrite~ 630hz 2000;
#X obj 65 278 delwrite~ 250hz 2000;
#X obj 67 500 delwrite~ 800hz 2000;
#X obj 67 553 delwrite~ 1000hz 2000;
#X obj 58 939 delwrite~ 10000hz 2000;
#X obj 56 882 delwrite~ 8000hz 2000;
#X obj 54 834 delwrite~ 5000hz 2000;
#X obj 57 779 delwrite~ 3500hz 2000;
#X obj 60 729 delwrite~ 2000hz 2000;
#X obj 64 670 delwrite~ 1600hz 2000;
#X obj 69 611 delwrite~ 1300hz 2000;
#X obj 300 882 delread4~ 5000hz;
#X obj 300 909 delread4~ 8000hz;
#X obj 297 939 delread4~ 10000hz;
#X obj 285 548 delread4~ 100hz;
#X obj 285 573 delread4~ 150hz;
#X obj 285 599 delread4~ 250hz;
#X obj 288 626 delread4~ 350hz;
#X obj 292 651 delread4~ 500hz;
#X obj 294 680 delread4~ 630hz;
#X obj 297 707 delread4~ 800hz;
#X obj 293 734 delread4~ 1000hz;
#X obj 294 761 delread4~ 1300hz;
#X obj 292 790 delread4~ 1600hz;
#X obj 294 817 delread4~ 2000hz;
#X obj 297 850 delread4~ 3500hz;
#X obj 304 133 random 2000;
#X obj 304 158 random 2000;
#X obj 304 186 random 2000;
#X obj 305 211 random 2000;
#X obj 308 236 random 2000;
#X obj 310 265 random 2000;
#X obj 311 291 random 2000;
#X obj 307 322 random 2000;
#X obj 266 133 bng 19 250 50 0 empty empty empty 0 -10 0 12 #fcfcfc #000000 #000000;
#X obj 309 347 random 2000;
#X obj 306 373 random 2000;
#X obj 308 403 random 2000;
#X obj 311 438 random 2000;
#X obj 315 468 random 2000;
#X obj 312 495 random 2000;
#X obj 313 524 random 2000;
#X obj 266 78 tgl 19 0 empty empty empty 0 -10 0 12 #fcfcfc #000000 #000000 0 1;
#X msg 240 570 \$1;
#X obj 244 393 vsl 19 162 0 100 0 0 empty empty empty 0 -9 0 12 #fcfcfc #000000 #000000 0 1;
#X obj 267 104 metro 10000;
#X obj 284 986 *~ 1;
#X obj 442 131 lop~ 100;
#X obj 440 189 bp~ 150 10, f 16;
#X obj 441 246 bp~ 250 10, f 16;
#X obj 440 303 bp~ 350 10, f 16;
#X obj 444 353 bp~ 500 10, f 16;
#X obj 444 413 bp~ 630 10, f 16;
#X obj 441 470 bp~ 800 10, f 16;
#X obj 442 523 bp~ 1000 10, f 16;
#X obj 442 579 bp~ 1300 10, f 16;
#X obj 437 637 bp~ 1600 10, f 16;
#X obj 437 693 bp~ 2000 10, f 16;
#X obj 430 747 bp~ 3500 10, f 16;
#X obj 431 801 bp~ 5000 10, f 16;
#X obj 432 855 bp~ 8000 10, f 16;
#X obj 432 909 hip~ 10000, f 16;
#X obj 421 107 +~;
#X obj 678 128 random 2000;
#X obj 678 153 random 2000;
#X obj 678 181 random 2000;
#X obj 679 206 random 2000;
#X obj 682 231 random 2000;
#X obj 684 260 random 2000;
#X obj 685 286 random 2000;
#X obj 681 317 random 2000;
#X obj 640 128 bng 19 250 50 0 empty empty empty 0 -10 0 12 #fcfcfc #000000 #000000;
#X obj 683 342 random 2000;
#X obj 680 368 random 2000;
#X obj 682 398 random 2000;
#X obj 685 433 random 2000;
#X obj 689 463 random 2000;
#X obj 686 490 random 2000;
#X obj 687 519 random 2000;
#X msg 614 565 \$1;
#X obj 618 388 vsl 19 162 0 100 0 0 empty empty empty 0 -9 0 12 #fcfcfc #000000 #000000 0 1;
#X obj 590 996 *~ 1;
#X obj 443 160 delwrite~ 100hzr 2000;
#X obj 440 219 delwrite~ 150hzr 2000;
#X obj 439 273 delwrite~ 250hzr 2000;
#X obj 441 328 delwrite~ 350hzr 2000;
#X obj 445 384 delwrite~ 500hzr 2000;
#X obj 442 437 delwrite~ 630hzr 2000;
#X obj 441 495 delwrite~ 800hzr 2000;
#X obj 441 548 delwrite~ 1000hzr 2000;
#X obj 443 606 delwrite~ 1300hzr 2000;
#X obj 438 665 delwrite~ 1600hzr 2000;
#X obj 434 724 delwrite~ 2000hzr 2000;
#X obj 431 774 delwrite~ 3500hzr 2000;
#X obj 428 829 delwrite~ 5000hzr 2000;
#X obj 430 877 delwrite~ 8000hzr 2000;
#X obj 432 934 delwrite~ 10000hzr 2000;
#X obj 671 934 delread4~ 10000hzr;
#X obj 674 904 delread4~ 8000hzr;
#X obj 674 877 delread4~ 5000hzr;
#X obj 671 845 delread4~ 3500hzr;
#X obj 668 812 delread4~ 2000hzr;
#X obj 666 785 delread4~ 1600hzr;
#X obj 668 756 delread4~ 1300hzr;
#X obj 667 729 delread4~ 1000hzr;
#X obj 671 702 delread4~ 800hzr;
#X obj 668 675 delread4~ 630hzr;
#X obj 666 646 delread4~ 500hzr;
#X obj 662 621 delread4~ 350hzr;
#X obj 659 594 delread4~ 250hzr;
#X obj 659 568 delread4~ 150hzr;
#X obj 659 543 delread4~ 100hzr;
#X obj 787 391 vsl 19 162 0 100 0 0 empty empty empty 0 -9 0 12 #fcfcfc #000000 #000000 0 1;
#X obj 787 328 loadbang;
#X msg 787 358 50;
#X obj 368 1038 outlet~;
#X obj 468 1040 outlet~;
#X obj 415 33 loadbang;
#X obj 860 313 inlet;
#X obj 127 43 catch~ tospecl;
#X obj 506 33 catch~ tospecr;
#X connect 0 0 16 0;
#X connect 1 0 17 0;
#X connect 2 0 21 0;
#X connect 3 0 18 0;
#X connect 4 0 19 0;
#X connect 5 0 20 0;
#X connect 6 0 22 0;
#X connect 7 0 23 0;
#X connect 8 0 30 0;
#X connect 9 0 29 0;
#X connect 10 0 28 0;
#X connect 11 0 27 0;
#X connect 12 0 26 0;
#X connect 13 0 25 0;
#X connect 14 0 24 0;
#X connect 15 0 0 0;
#X connect 15 0 1 0;
#X connect 15 0 2 0;
#X connect 15 0 3 0;
#X connect 15 0 4 0;
#X connect 15 0 5 0;
#X connect 15 0 6 0;
#X connect 15 0 7 0;
#X connect 15 0 8 0;
#X connect 15 0 9 0;
#X connect 15 0 10 0;
#X connect 15 0 11 0;
#X connect 15 0 12 0;
#X connect 15 0 13 0;
#X connect 15 0 14 0;
#X connect 31 0 66 0;
#X connect 32 0 66 0;
#X connect 33 0 66 0;
#X connect 34 0 66 0;
#X connect 35 0 66 0;
#X connect 36 0 66 0;
#X connect 37 0 66 0;
#X connect 38 0 66 0;
#X connect 39 0 66 0;
#X connect 40 0 66 0;
#X connect 41 0 66 0;
#X connect 42 0 66 0;
#X connect 43 0 66 0;
#X connect 44 0 66 0;
#X connect 45 0 66 0;
#X connect 46 0 34 0;
#X connect 47 0 35 0;
#X connect 48 0 36 0;
#X connect 49 0 37 0;
#X connect 50 0 38 0;
#X connect 51 0 39 0;
#X connect 52 0 40 0;
#X connect 53 0 41 0;
#X connect 54 0 48 0;
#X connect 54 0 53 0;
#X connect 54 0 52 0;
#X connect 54 0 51 0;
#X connect 54 0 50 0;
#X connect 54 0 49 0;
#X connect 54 0 47 0;
#X connect 54 0 46 0;
#X connect 54 0 55 0;
#X connect 54 0 61 0;
#X connect 54 0 60 0;
#X connect 54 0 59 0;
#X connect 54 0 58 0;
#X connect 54 0 57 0;
#X connect 54 0 56 0;
#X connect 55 0 42 0;
#X connect 56 0 43 0;
#X connect 57 0 44 0;
#X connect 58 0 45 0;
#X connect 59 0 31 0;
#X connect 60 0 32 0;
#X connect 61 0 33 0;
#X connect 62 0 65 0;
#X connect 63 0 8 2;
#X connect 63 0 7 2;
#X connect 63 0 1 2;
#X connect 63 0 13 2;
#X connect 63 0 12 2;
#X connect 63 0 11 2;
#X connect 63 0 10 2;
#X connect 63 0 9 2;
#X connect 63 0 6 2;
#X connect 63 0 5 2;
#X connect 63 0 4 2;
#X connect 63 0 3 2;
#X connect 63 0 2 2;
#X connect 64 0 63 0;
#X connect 65 0 54 0;
#X connect 65 0 91 0;
#X connect 66 0 135 0;
#X connect 67 0 102 0;
#X connect 68 0 103 0;
#X connect 69 0 104 0;
#X connect 70 0 105 0;
#X connect 71 0 106 0;
#X connect 72 0 107 0;
#X connect 73 0 108 0;
#X connect 74 0 109 0;
#X connect 75 0 110 0;
#X connect 76 0 111 0;
#X connect 77 0 112 0;
#X connect 78 0 113 0;
#X connect 79 0 114 0;
#X connect 80 0 115 0;
#X connect 81 0 116 0;
#X connect 82 0 67 0;
#X connect 82 0 68 0;
#X connect 82 0 69 0;
#X connect 82 0 70 0;
#X connect 82 0 71 0;
#X connect 82 0 72 0;
#X connect 82 0 73 0;
#X connect 82 0 74 0;
#X connect 82 0 75 0;
#X connect 82 0 76 0;
#X connect 82 0 77 0;
#X connect 82 0 78 0;
#X connect 82 0 79 0;
#X connect 82 0 80 0;
#X connect 82 0 81 0;
#X connect 83 0 131 0;
#X connect 84 0 130 0;
#X connect 85 0 129 0;
#X connect 86 0 128 0;
#X connect 87 0 127 0;
#X connect 88 0 126 0;
#X connect 89 0 125 0;
#X connect 90 0 124 0;
#X connect 91 0 85 0;
#X connect 91 0 90 0;
#X connect 91 0 89 0;
#X connect 91 0 88 0;
#X connect 91 0 87 0;
#X connect 91 0 86 0;
#X connect 91 0 84 0;
#X connect 91 0 83 0;
#X connect 91 0 92 0;
#X connect 91 0 98 0;
#X connect 91 0 97 0;
#X connect 91 0 96 0;
#X connect 91 0 95 0;
#X connect 91 0 94 0;
#X connect 91 0 93 0;
#X connect 92 0 123 0;
#X connect 93 0 122 0;
#X connect 94 0 121 0;
#X connect 95 0 120 0;
#X connect 96 0 119 0;
#X connect 97 0 118 0;
#X connect 98 0 117 0;
#X connect 99 0 75 2;
#X connect 99 0 74 2;
#X connect 99 0 68 2;
#X connect 99 0 80 2;
#X connect 99 0 79 2;
#X connect 99 0 78 2;
#X connect 99 0 77 2;
#X connect 99 0 76 2;
#X connect 99 0 73 2;
#X connect 99 0 72 2;
#X connect 99 0 71 2;
#X connect 99 0 70 2;
#X connect 99 0 69 2;
#X connect 100 0 99 0;
#X connect 101 0 136 0;
#X connect 117 0 101 0;
#X connect 118 0 101 0;
#X connect 119 0 101 0;
#X connect 120 0 101 0;
#X connect 121 0 101 0;
#X connect 122 0 101 0;
#X connect 123 0 101 0;
#X connect 124 0 101 0;
#X connect 125 0 101 0;
#X connect 126 0 101 0;
#X connect 127 0 101 0;
#X connect 128 0 101 0;
#X connect 129 0 101 0;
#X connect 130 0 101 0;
#X connect 131 0 101 0;
#X connect 132 0 64 0;
#X connect 132 0 100 0;
#X connect 133 0 134 0;
#X connect 134 0 132 0;
#X connect 137 0 54 0;
#X connect 137 0 91 0;
#X connect 138 0 132 0;
#X connect 139 0 15 0;
#X connect 140 0 82 0;
#X restore 371 375 pd spec;
#X obj 373 199 vsl 19 162 0 100 0 0 empty empty empty 0 -9 0 12 #fcfcfc #000000 #000000 0 1;
#X obj 58 490 throw~ tospecl;
#X obj 176 494 throw~ tospecr;
#X obj 89 455 *~;
#X obj 166 461 *~;
#X msg 310 342 \$1 100;
#X obj 311 163 vsl 19 162 0 1 0 0 empty empty empty 0 -9 0 12 #fcfcfc #000000 #000000 0 1;
#X obj 309 374 line~;
#X obj 150 628 rev3~, f 37;
#X obj 98 546 *~;
#X obj 175 552 *~;
#X msg 440 347 \$1 100;
#X obj 441 174 vsl 19 162 0 0.25 0 0 empty empty empty 0 -9 0 12 #fcfcfc #000000 #000000 0 1;
#X obj 440 378 line~;
#X msg 250 550 98;
#X obj 394 592 *~;
#X obj 424 595 *~;
#X msg 512 356 \$1 100;
#X obj 512 184 vsl 19 162 0 1 0 0 empty empty empty 0 -9 0 12 #fcfcfc #000000 #000000 0 1;
#X obj 512 384 line~;
#X obj 113 739 strec;
#X obj 762 134 cnv 1 20 10 empty playhead empty 20 12 0 12 #000000 #ffffff 0;
#X msg 1007 477 vis_size \$1 \$2;
#X obj 1009 508 s playhead;
#X obj 1007 449 pack 100 10;
#X obj 1009 394 snapshot~;
#X obj 974 272 vline~;
#X obj 657 240 soundfiler;
#X floatatom 724 267 5 0 0 0 - - - 0;
#X floatatom 657 267 5 0 0 0 - - - 0;
#X obj 657 187 openpanel;
#X obj 655 79 bng 100 250 50 0 empty empty empty 0 -10 0 12 #fcfcfc #000000 #000000;
#X obj 1032 342 tgl 19 0 empty empty empty 0 -10 0 12 #fcfcfc #000000 #000000 0 1;
#X obj 984 535 tabread4~ kik;
#X obj 761 160 hsl 400 8 0 1 0 0 end empty empty -2 -10 0 12 #fcfcfc #000000 #000000 0 1;
#X obj 761 150 hsl 400 8 0 1 0 0 start empty empty -2 -10 0 12 #fcfcfc #000000 #000000 0 1;
#X obj 657 326 s range;
#X obj 655 356 r start;
#X obj 711 355 r end;
#X obj 655 383 *;
#X obj 753 352 r range;
#X obj 711 389 *;
#X floatatom 656 415 5 0 0 0 - - - 0;
#X floatatom 711 417 5 0 0 0 - - - 0;
#X obj 673 481 pack 0 0 0;
#X obj 657 681 t b b;
#X obj 813 349 -;
#X obj 813 377 abs;
#X floatatom 813 418 5 0 0 0 - - - 0;
#X obj 658 448 t b f;
#X obj 807 308 t b f;
#X obj 709 446 t b f;
#X obj 813 444 / 44100;
#X obj 694 509 unpack 0 0 0;
#X msg 819 576 set \$1;
#X msg 1272 272 97605.1 \, 1.44446e+06 1196.17;
#X obj 754 548 t f b;
#X msg 786 609 addcomma;
#X msg 754 579 add2 \$1;
#X msg 688 548 add2 \$1;
#X obj 997 307 /~;
#X obj 1008 424 * 400;
#X obj 809 476 * 500;
#X obj 910 390 vsl 19 162 0 2000 0 0 empty empty empty 0 -9 0 12 #fcfcfc #000000 #000000 0 1;
#X obj 904 582 t b f;
#X msg 974 245 0;
#X obj 715 327 bng 19 250 50 0 empty empty empty 0 -10 0 12 #fcfcfc #000000 #000000;
#X obj 648 582 spigot;
#X obj 657 651 bng 19 250 50 0 empty empty empty 0 -10 0 12 #fcfcfc #000000 #000000;
#X obj 1272 79 tgl 100 0 empty empty empty 0 -10 0 12 #fcfcfc #000000 #000000 0 1;
#X obj 655 618 delay 100;
#X obj 803 214 random 100000;
#X obj 804 241 / 100000;
#X obj 903 217 random 100000;
#X obj 903 244 / 100000;
#X obj 865 333 / 100000;
#X obj 1169 79 bng 100 250 50 0 empty empty empty 0 -10 0 12 #fcfcfc #000000 #000000;
#X obj 644 550 t b b;
#X obj 1032 319 loadbang;
#X obj 1271 214 sel 0;
#X msg 1270 240 stop;
#X obj 979 619 *~ 1;
#X obj 1015 369 metro 30;
#X obj 976 585 hip~ 3;
#X obj 1375 78 bng 100 250 50 0 empty empty empty 0 -10 0 12 #fcfcfc #000000 #000000;
#X obj 686 778 spigot;
#X obj 1478 78 tgl 100 0 empty empty empty 0 -10 0 12 #fcfcfc #000000 #000000 0 1;
#X obj 694 745 sel 0;
#X obj 694 719 random 2;
#X obj 948 830 *~;
#X obj 1126 482 vsl 19 162 0 1 0 0 empty empty empty 0 -9 0 12 #fcfcfc #000000 #000000 0 1;
#X obj 1120 691 line~;
#X msg 1123 664 \$1 50;
#X obj 911 831 *~;
#X obj 866 354 * 1000;
#X obj 984 559 *~ 0.8;
#X obj 865 308 random 100000;
#X obj 877 896 throw~ tospecl;
#X obj 984 896 throw~ tospecr;
#X obj 518 940 rev3~, f 37;
#X msg 618 862 98;
#X msg 761 865 50;
#X obj 473 977 strec;
#X obj 481 1113 dac~ 1 2;
#X msg 713 887 1000;
#X msg 550 148 500000;
#X obj 249 520 loadbang;
#X obj 1272 469 noise~;
#X obj 1212 653 bob~;
#X obj 1216 860 scope;
#X obj 1215 583 *~ 500;
#X obj 1215 612 +~ 1000;
#X obj 1258 701 rev3~, f 18;
#X msg 1319 656 98;
#X obj 1214 553 samphold~;
#X obj 1215 522 noise~;
#X obj 1634 249 noise~;
#X obj 1637 279 expr~ $v1 > 0.99;
#X obj 1638 325 *~;
#X obj 1758 316 *~;
#X obj 1638 358 dac~ 1 2;
#X obj 1700 212 pow~ 10;
#X obj 1610 70 scope;
#X obj 1724 119 vline~;
#X msg 1716 69 0 \, 1 10000 1 \, 0 1 10020;
#X obj 1754 248 noise~;
#X obj 1757 278 expr~ $v1 > 0.99;
#X obj 1439 477 noise~;
#X obj 1379 661 bob~;
#X obj 1377 853 dac~ 1 2;
#X obj 1382 591 *~ 500;
#X obj 1382 620 +~ 1000;
#X obj 1411 710 rev3~, f 18;
#X msg 1486 664 98;
#X obj 1381 561 samphold~;
#X obj 1382 530 noise~;
#X msg 546 82 5000;
#X msg 549 108 10000;
#X obj 1602 779 vline~;
#X obj 1309 817 *~;
#X obj 1397 802 *~;
#X obj 1600 580 vsl 19 162 0 1 0 0 empty empty empty 0 -9 0 12 #fcfcfc #000000 #000000 0 1;
#X msg 1599 752 \$1 50;
#X obj 1602 805 pow~ 1;
#X obj 482 616 *~;
#X obj 512 619 *~;
#X msg 600 380 \$1 100;
#X obj 600 208 vsl 19 162 0 1 0 0 empty empty empty 0 -9 0 12 #fcfcfc #000000 #000000 0 1;
#X obj 600 408 line~;
#X obj 1432 955 osc~ 40;
#X obj 1407 1096 dac~ 1 2;
#X obj 1433 1038 *~ 0.5;
#X obj 1791 1025 vline~;
#X obj 1789 812 vsl 19 162 0 1 0 0 empty empty empty 0 -9 0 12 #fcfcfc #000000 #000000 0 1;
#X msg 1791 990 \$1 50;
#X obj 1790 1056 pow~ 1;
#X obj 1445 991 *~;
#X obj 1271 613 sig~ 3.9;
#X obj 1438 621 sig~ 3.9;
#X obj 1442 507 expr~ $v1 > 0.99;
#X obj 1275 499 expr~ $v1 > 0.99;
#X obj 1335 407 noise~;
#X obj 1340 439 expr~ $v1 > 0.9999;
#X text 1780 774 fadeout;
#X msg 548 49 500;
#X msg 593 49 1000;
#X msg 1127 452 1;
#X msg 1743 721 1;
#X obj 1481 402 noise~;
#X obj 1484 432 expr~ $v1 > 0.9999;
#X obj 1696 1024 vline~;
#X obj 1699 811 vsl 19 162 0 1 0 0 empty empty empty 0 -9 0 12 #fcfcfc #000000 #000000 0 1;
#X msg 1696 993 \$1 50;
#X obj 1697 1054 pow~ 1;
#X obj 1345 767 *~;
#X obj 1429 770 *~;
#N canvas 0 50 450 250 (subpatch) 0;
#X array samp 4.07027e+06 float 2;
#X coords 0 1 4.07027e+06 -1 400 50 1 0 0;
#X restore 760 79 graph;
#X msg 657 215 read -resize \$1 samp;
#X obj 1214 981 scope;
#X text 359 175 q spec;
#X text 510 157 id;
#X text 434 147 verb;
#X text 295 136 to spec;
#X connect 0 0 3 0;
#X connect 0 0 21 0;
#X connect 0 0 22 0;
#X connect 0 1 4 0;
#X connect 0 1 22 0;
#X connect 0 1 21 0;
#X connect 3 0 9 0;
#X connect 3 0 15 0;
#X connect 4 0 10 0;
#X connect 4 0 16 0;
#X connect 5 0 1 0;
#X connect 5 0 150 0;
#X connect 5 1 2 0;
#X connect 6 0 5 0;
#X connect 9 0 7 0;
#X connect 10 0 8 0;
#X connect 11 0 13 0;
#X connect 12 0 11 0;
#X connect 13 0 9 1;
#X connect 13 0 10 1;
#X connect 14 0 26 0;
#X connect 14 1 26 1;
#X connect 15 0 14 0;
#X connect 16 0 14 1;
#X connect 17 0 19 0;
#X connect 18 0 17 0;
#X connect 19 0 15 1;
#X connect 19 0 16 1;
#X connect 19 0 151 0;
#X connect 20 0 14 2;
#X connect 20 0 14 3;
#X connect 21 0 26 0;
#X connect 22 0 26 1;
#X connect 23 0 25 0;
#X connect 24 0 23 0;
#X connect 25 0 21 1;
#X connect 25 0 22 1;
#X connect 26 0 108 0;
#X connect 26 1 108 1;
#X connect 28 0 29 0;
#X connect 30 0 28 0;
#X connect 31 0 67 0;
#X connect 32 0 66 0;
#X connect 32 0 39 0;
#X connect 33 0 35 0;
#X connect 33 1 34 0;
#X connect 34 0 58 1;
#X connect 35 0 42 0;
#X connect 35 0 66 1;
#X connect 35 0 72 0;
#X connect 36 0 183 0;
#X connect 37 0 36 0;
#X connect 38 0 88 0;
#X connect 39 0 101 0;
#X connect 43 0 45 0;
#X connect 44 0 47 0;
#X connect 45 0 48 0;
#X connect 46 0 47 1;
#X connect 46 0 45 1;
#X connect 47 0 49 0;
#X connect 48 0 52 0;
#X connect 48 0 55 0;
#X connect 49 0 56 0;
#X connect 49 0 57 0;
#X connect 50 0 59 0;
#X connect 51 0 82 0;
#X connect 51 1 91 0;
#X connect 51 1 94 0;
#X connect 52 0 53 0;
#X connect 53 0 54 0;
#X connect 54 0 58 0;
#X connect 55 0 50 0;
#X connect 55 1 50 2;
#X connect 56 0 52 0;
#X connect 56 1 52 1;
#X connect 57 0 50 0;
#X connect 57 1 50 1;
#X connect 58 0 68 0;
#X connect 59 0 65 0;
#X connect 59 1 62 0;
#X connect 59 2 60 0;
#X connect 60 0 61 0;
#X connect 61 0 32 0;
#X connect 62 0 64 0;
#X connect 62 1 63 0;
#X connect 63 0 61 0;
#X connect 64 0 61 0;
#X connect 65 0 61 0;
#X connect 66 0 31 0;
#X connect 67 0 30 0;
#X connect 68 0 50 0;
#X connect 68 0 76 1;
#X connect 69 0 70 0;
#X connect 70 0 68 0;
#X connect 70 1 68 1;
#X connect 71 0 32 0;
#X connect 72 0 71 0;
#X connect 72 0 45 0;
#X connect 72 0 47 0;
#X connect 73 0 76 0;
#X connect 74 0 51 0;
#X connect 75 0 73 1;
#X connect 75 0 85 0;
#X connect 76 0 74 0;
#X connect 77 0 78 0;
#X connect 78 0 41 0;
#X connect 79 0 80 0;
#X connect 80 0 40 0;
#X connect 81 0 100 0;
#X connect 82 0 61 0;
#X connect 82 0 83 0;
#X connect 83 0 73 0;
#X connect 83 1 61 0;
#X connect 84 0 38 0;
#X connect 85 0 86 0;
#X connect 86 0 76 0;
#X connect 87 0 95 0;
#X connect 87 0 99 0;
#X connect 88 0 31 0;
#X connect 89 0 87 0;
#X connect 90 0 79 0;
#X connect 90 0 69 0;
#X connect 90 0 77 0;
#X connect 90 0 102 0;
#X connect 91 0 90 0;
#X connect 92 0 91 1;
#X connect 93 0 90 0;
#X connect 94 0 93 0;
#X connect 95 0 105 1;
#X connect 95 0 108 1;
#X connect 95 0 104 0;
#X connect 96 0 98 0;
#X connect 97 0 95 1;
#X connect 97 0 99 1;
#X connect 98 0 97 0;
#X connect 99 0 105 0;
#X connect 99 0 108 0;
#X connect 99 0 103 0;
#X connect 100 0 69 0;
#X connect 101 0 89 0;
#X connect 102 0 81 0;
#X connect 105 0 108 0;
#X connect 105 1 108 1;
#X connect 106 0 105 2;
#X connect 106 0 105 3;
#X connect 107 0 105 5;
#X connect 108 0 109 0;
#X connect 108 1 109 1;
#X connect 110 0 105 4;
#X connect 111 0 102 1;
#X connect 112 0 107 0;
#X connect 112 0 110 0;
#X connect 112 0 106 0;
#X connect 112 0 20 0;
#X connect 113 0 166 0;
#X connect 114 0 115 0;
#X connect 114 0 118 0;
#X connect 114 0 118 1;
#X connect 114 0 145 0;
#X connect 116 0 117 0;
#X connect 117 0 114 1;
#X connect 118 0 145 0;
#X connect 119 0 118 2;
#X connect 119 0 118 3;
#X connect 120 0 116 0;
#X connect 121 0 120 0;
#X connect 122 0 123 0;
#X connect 123 0 124 0;
#X connect 124 0 126 0;
#X connect 124 0 128 0;
#X connect 125 0 126 1;
#X connect 127 0 124 1;
#X connect 127 0 125 1;
#X connect 129 0 127 0;
#X connect 130 0 129 0;
#X connect 131 0 132 0;
#X connect 132 0 125 0;
#X connect 133 0 165 0;
#X connect 134 0 138 0;
#X connect 134 0 138 1;
#X connect 134 0 146 0;
#X connect 136 0 137 0;
#X connect 137 0 134 1;
#X connect 138 0 146 0;
#X connect 139 0 138 2;
#X connect 139 0 138 3;
#X connect 140 0 136 0;
#X connect 141 0 140 0;
#X connect 142 0 102 1;
#X connect 143 0 102 1;
#X connect 144 0 149 0;
#X connect 145 0 135 0;
#X connect 146 0 135 1;
#X connect 147 0 148 0;
#X connect 148 0 144 0;
#X connect 149 0 146 1;
#X connect 149 0 145 1;
#X connect 150 0 108 0;
#X connect 151 0 108 1;
#X connect 152 0 154 0;
#X connect 153 0 152 0;
#X connect 154 0 150 1;
#X connect 154 0 151 1;
#X connect 155 0 162 0;
#X connect 157 0 156 0;
#X connect 157 0 156 1;
#X connect 158 0 161 0;
#X connect 159 0 160 0;
#X connect 160 0 158 0;
#X connect 161 0 162 1;
#X connect 162 0 157 0;
#X connect 162 0 184 0;
#X connect 163 0 114 2;
#X connect 164 0 134 2;
#X connect 165 0 134 0;
#X connect 166 0 114 0;
#X connect 167 0 168 0;
#X connect 168 0 120 1;
#X connect 168 0 140 1;
#X connect 168 0 180 0;
#X connect 170 0 102 1;
#X connect 171 0 102 1;
#X connect 172 0 96 0;
#X connect 173 0 159 0;
#X connect 173 0 177 0;
#X connect 174 0 175 0;
#X connect 175 0 181 0;
#X connect 176 0 179 0;
#X connect 177 0 178 0;
#X connect 178 0 176 0;
#X connect 179 0 180 1;
#X connect 179 0 181 1;
#X connect 180 0 135 0;
#X connect 180 0 184 0;
#X connect 181 0 135 1;
#X connect 181 0 184 0;
#X connect 183 0 33 0;
