#N canvas 130 130 450 300 12;
#X obj 120 84 inlet;
#X obj 537 404 outlet~;
#X obj 191 48 block~ 1;
#X obj 522 237 noise~;
#X obj 339 257 *~;
#X obj 250 228 *~ 0.8;
#X obj 525 268 lop~ 500;
#X obj 650 158 line~;
#X obj 853 210 noise~;
#X obj 670 230 *~;
#X obj 581 201 *~ 0.8;
#X obj 589 112 *~ 2;
#X obj 766 125 lop~ 500;
#X obj 1151 443 outlet~;
#X obj 1227 251 noise~;
#X obj 1044 271 *~;
#X obj 955 242 *~ 0.8;
#X obj 1230 282 lop~ 500;
#X obj 1355 172 line~;
#X obj 1558 224 noise~;
#X obj 1375 244 *~;
#X obj 1286 215 *~ 0.8;
#X obj 1561 255 lop~ 500;
#X obj 1294 126 *~ 2;
#X obj 1471 139 lop~ 500;
#X obj 1093 159 lop~ 1000;
#X obj 395 152 lop~ 1000;
#X obj 444 12 sig~ 15;
#X obj 856 241 lop~ 500;
#X obj 319 185 vline~;
#X obj 1024 199 vline~;
#X msg 320 137 1 10 \, 0 10 11;
#X msg 1025 151 1 0 \, 0 10 11;
#X obj 328 89 bng 19 250 50 0 empty empty empty 0 -10 0 12 #fcfcfc #000000 #000000;
#X obj 271 54 t b f;
#X obj 152 200 mtof;
#X floatatom 149 269 5 0 0 0 - - - 0;
#X obj 154 319 swap 1000;
#X obj 149 379 /;
#X floatatom 147 417 5 0 0 0 - - - 0;
#X obj 556 551 hip~ 1;
#X obj 1153 519 hip~ 1;
#X obj 1091 108 *~ 0.999;
#X obj 1482 93 *~ 0.999;
#X obj 777 79 *~ 0.999;
#X obj 386 94 *~ 0.999;
#X obj 376 200 delwrite~ tap\$0 2000;
#X obj 387 53 delread4~ tap\$0;
#X obj 777 48 delread4~ tap2\$0;
#X obj 729 189 delwrite~ tap2\$0 2000;
#X obj 1092 67 delread4~ tapr\$0;
#X obj 1081 214 delwrite~ tapr\$0 2000;
#X obj 1434 203 delwrite~ tap2r\$0 2000;
#X obj 1482 62 delread4~ tap2r\$0;
#X connect 0 0 35 0;
#X connect 3 0 6 0;
#X connect 4 0 46 0;
#X connect 5 0 40 0;
#X connect 6 0 4 0;
#X connect 7 0 9 1;
#X connect 8 0 28 0;
#X connect 9 0 49 0;
#X connect 10 0 40 0;
#X connect 11 0 48 0;
#X connect 12 0 49 0;
#X connect 14 0 17 0;
#X connect 15 0 51 0;
#X connect 16 0 41 0;
#X connect 17 0 15 0;
#X connect 18 0 20 1;
#X connect 19 0 22 0;
#X connect 20 0 52 0;
#X connect 21 0 41 0;
#X connect 22 0 20 0;
#X connect 23 0 53 0;
#X connect 24 0 52 0;
#X connect 25 0 51 0;
#X connect 26 0 46 0;
#X connect 27 0 11 0;
#X connect 27 0 23 0;
#X connect 27 0 47 0;
#X connect 27 0 50 0;
#X connect 28 0 9 0;
#X connect 29 0 4 1;
#X connect 30 0 15 1;
#X connect 31 0 7 0;
#X connect 31 0 29 0;
#X connect 32 0 18 0;
#X connect 32 0 30 0;
#X connect 33 0 31 0;
#X connect 33 0 32 0;
#X connect 34 0 33 0;
#X connect 34 1 27 0;
#X connect 35 0 36 0;
#X connect 36 0 37 0;
#X connect 36 0 6 1;
#X connect 36 0 28 1;
#X connect 36 0 17 1;
#X connect 36 0 22 1;
#X connect 36 0 12 1;
#X connect 36 0 24 1;
#X connect 37 0 38 0;
#X connect 37 1 38 1;
#X connect 38 0 39 0;
#X connect 39 0 34 0;
#X connect 40 0 1 0;
#X connect 41 0 13 0;
#X connect 42 0 25 0;
#X connect 43 0 24 0;
#X connect 44 0 12 0;
#X connect 45 0 26 0;
#X connect 47 0 5 0;
#X connect 47 0 45 0;
#X connect 48 0 10 0;
#X connect 48 0 44 0;
#X connect 50 0 16 0;
#X connect 50 0 42 0;
#X connect 53 0 21 0;
#X connect 53 0 43 0;
