#N canvas 869 375 765 631 12;
#X obj 129 485 scope;
#X obj 221 445 dac~ 1 2;
#X obj 219 412 *~ 0.3;
#X obj 272 411 *~ 0.3;
#X obj 277 344 kps;
#X obj 354 343 kps;
#X obj 146 341 kps;
#X obj 210 340 kps;
#X obj 207 141 poly, f 13;
#X obj 205 212 route 1 2 3 4;
#X obj 135 248 unpack 0 0;
#X obj 137 275 stripnote;
#X obj 199 176 pack 0 0 0;
#X obj 214 248 unpack 0 0;
#X obj 216 275 stripnote;
#X obj 292 249 unpack 0 0;
#X obj 294 276 stripnote;
#X obj 371 249 unpack 0 0;
#X obj 373 276 stripnote;
#X obj 209 112 notein;
#X connect 2 0 1 0;
#X connect 3 0 1 1;
#X connect 4 0 2 0;
#X connect 4 1 3 0;
#X connect 5 0 2 0;
#X connect 5 1 3 0;
#X connect 6 0 2 0;
#X connect 6 1 3 0;
#X connect 7 0 2 0;
#X connect 7 1 3 0;
#X connect 8 0 12 0;
#X connect 8 1 12 1;
#X connect 8 2 12 2;
#X connect 9 0 10 0;
#X connect 9 1 13 0;
#X connect 9 2 15 0;
#X connect 9 3 17 0;
#X connect 10 0 11 0;
#X connect 10 1 11 1;
#X connect 11 0 6 0;
#X connect 12 0 9 0;
#X connect 13 0 14 0;
#X connect 13 1 14 1;
#X connect 14 0 7 0;
#X connect 15 0 16 0;
#X connect 15 1 16 1;
#X connect 16 0 4 0;
#X connect 17 0 18 0;
#X connect 17 1 18 1;
#X connect 18 0 5 0;
#X connect 19 0 8 0;
#X connect 19 1 8 1;
