#N canvas 1057 294 450 547 12;
#X obj 39 298 cos~;
#X obj 43 378 *~;
#X obj 91 398 *~;
#X obj 152 258 *~ -1;
#X obj 150 289 +~ 1;
#X obj 43 442 +~;
#X obj 145 362 pow~ 1;
#X obj 149 323 pow~ 1;
#X obj 88 294 skew~;
#X obj 36 334 *~ -1;
#X obj 93 336 *~ 2;
#X obj 93 365 -~ 1;
#X obj 238 176 -~ 1;
#X obj 122 189 *~ 0.5;
#X obj 121 224 +~ 0.5;
#X obj 318 132 clip~ 0 1;
#X obj 238 133 clip~ 1 2;
#X obj 245 100 +~;
#X obj 245 72 *~ 2;
#X obj 36 42 inlet~;
#X obj 97 38 inlet~;
#X obj 157 37 inlet;
#X obj 42 478 outlet~;
#X obj 360 49 loadbang;
#X obj 360 77 f \$1;
#X obj 38 190 phasor~;
#X connect 0 0 9 0;
#X connect 1 0 5 0;
#X connect 2 0 5 1;
#X connect 3 0 4 0;
#X connect 4 0 7 0;
#X connect 5 0 22 0;
#X connect 6 0 2 1;
#X connect 7 0 1 1;
#X connect 8 0 10 0;
#X connect 9 0 1 0;
#X connect 10 0 11 0;
#X connect 11 0 2 0;
#X connect 12 0 13 0;
#X connect 13 0 14 0;
#X connect 14 0 8 1;
#X connect 15 0 6 0;
#X connect 15 0 3 0;
#X connect 16 0 12 0;
#X connect 17 0 16 0;
#X connect 17 0 15 0;
#X connect 18 0 17 0;
#X connect 19 0 25 0;
#X connect 20 0 18 0;
#X connect 21 0 25 1;
#X connect 23 0 24 0;
#X connect 24 0 19 0;
#X connect 25 0 0 0;
#X connect 25 0 8 0;
