#N canvas 411 320 1391 706 12;
#X obj 148 93 vsl 19 162 -1 1 0 0 empty empty empty 0 -9 0 12 #fcfcfc #000000 #000000 0 1;
#X obj 108 284 clip 0 1;
#X obj 173 284 clip -1 0;
#X obj 172 315 * -1;
#X obj 117 387 * 255;
#X obj 116 411 int;
#X obj 165 388 * 255;
#X obj 164 412 int;
#X obj 172 341 change;
#X obj 116 344 change;
#X connect 0 0 1 0;
#X connect 0 0 2 0;
#X connect 1 0 9 0;
#X connect 2 0 3 0;
#X connect 3 0 8 0;
#X connect 4 0 5 0;
#X connect 6 0 7 0;
#X connect 8 0 6 0;
#X connect 9 0 4 0;
