#N canvas 953 0 958 1148 12;
#X obj -40 392 netreceive -u -b;
#X msg -39 361 listen 10000;
#X obj -38 417 oscparse;
#X obj -44 444 list trim;
#X obj 109 378 comport;
#X msg 109 298 devices;
#X msg 126 330 open 8 112500;
#X obj 242 104 vsl 19 162 -5 5 0 0 empty empty empty 0 -9 0 12 #fcfcfc #000000 #000000 0 1;
#X obj 434 53 list fromsymbol;
#X obj 435 29 makefilename %f;
#X obj 434 80 list prepend 111 117 116 112 117 116 91 49 93 46 118 111 108 116 115 32 61 32, f 39;
#X obj 223 293 list append 13;
#X obj 276 103 vsl 19 162 -5 5 0 0 empty empty empty 0 -9 0 12 #fcfcfc #000000 #000000 0 1;
#X obj 434 147 list fromsymbol;
#X obj 435 123 makefilename %f;
#X obj 314 103 vsl 19 162 -5 5 0 0 empty empty empty 0 -9 0 12 #fcfcfc #000000 #000000 0 1;
#X obj 433 238 list fromsymbol;
#X obj 434 214 makefilename %f;
#X obj 350 103 vsl 19 162 -5 5 0 0 empty empty empty 0 -9 0 12 #fcfcfc #000000 #000000 0 1;
#X obj 429 329 list fromsymbol;
#X obj 430 305 makefilename %f;
#X obj 434 174 list prepend 111 117 116 112 117 116 91 50 93 46 118 111 108 116 115 32 61 32, f 40;
#X obj 433 265 list prepend 111 117 116 112 117 116 91 51 93 46 118 111 108 116 115 32 61 32, f 40;
#X obj 429 356 list prepend 111 117 116 112 117 116 91 52 93 46 118 111 108 116 115 32 61 32, f 40;
#X msg 172 296 close;
#X msg 231 336 99 114 111 119 46 114 101 115 101 116 40 41, f 19;
#X obj 49 856 ctlout;
#X obj 38 821 unpack 0 0 0;
#X msg -15 759 \$1 1 1;
#X msg 51 760 \$1 2 1;
#X msg 113 764 \$1 3 1;
#X msg 171 760 \$1 4 1;
#X obj 273 868 ctlout;
#X obj 262 833 unpack 0 0 0;
#X msg 237 759 \$1 79 17;
#X msg 325 754 \$1 80 17;
#X msg 408 750 \$1 81 17;
#X msg 486 750 \$1 82 17;
#X msg 561 751 \$1 83 17;
#X msg 112 401 \$1 84 17;
#X obj 274 42 * 5;
#X obj 325 42 * 5;
#X obj 380 41 * 5;
#X obj 223 41 * 5;
#X obj -42 503 vsl 19 162 0 1 0 0 empty empty empty 0 -9 0 12 #fcfcfc #000000 #000000 0 1;
#X obj -15 505 vsl 19 162 0 1 0 0 empty empty empty 0 -9 0 12 #fcfcfc #000000 #000000 0 1;
#X obj 14 505 vsl 19 162 0 1 0 0 empty empty empty 0 -9 0 12 #fcfcfc #000000 #000000 0 1;
#X obj 41 507 vsl 19 162 0 1 0 0 empty empty empty 0 -9 0 12 #fcfcfc #000000 #000000 0 1;
#X obj 66 504 vsl 19 162 0 1 0 0 empty empty empty 0 -9 0 12 #fcfcfc #000000 #000000 0 1;
#X obj 93 506 vsl 19 162 0 1 0 0 empty empty empty 0 -9 0 12 #fcfcfc #000000 #000000 0 1;
#X obj 122 506 vsl 19 162 0 1 0 0 empty empty empty 0 -9 0 12 #fcfcfc #000000 #000000 0 1;
#X obj 149 508 vsl 19 162 0 1 0 0 empty empty empty 0 -9 0 12 #fcfcfc #000000 #000000 0 1;
#X obj 175 506 vsl 19 162 0 1 0 0 empty empty empty 0 -9 0 12 #fcfcfc #000000 #000000 0 1;
#X obj 202 508 vsl 19 162 0 1 0 0 empty empty empty 0 -9 0 12 #fcfcfc #000000 #000000 0 1;
#X obj 231 508 vsl 19 162 0 1 0 0 empty empty empty 0 -9 0 12 #fcfcfc #000000 #000000 0 1;
#X obj 258 510 vsl 19 162 0 1 0 0 empty empty empty 0 -9 0 12 #fcfcfc #000000 #000000 0 1;
#X obj 283 507 vsl 19 162 0 1 0 0 empty empty empty 0 -9 0 12 #fcfcfc #000000 #000000 0 1;
#X obj 310 509 vsl 19 162 0 1 0 0 empty empty empty 0 -9 0 12 #fcfcfc #000000 #000000 0 1;
#X obj 339 509 vsl 19 162 0 1 0 0 empty empty empty 0 -9 0 12 #fcfcfc #000000 #000000 0 1;
#X obj 366 511 vsl 19 162 0 1 0 0 empty empty empty 0 -9 0 12 #fcfcfc #000000 #000000 0 1;
#X obj 392 507 vsl 19 162 0 1 0 0 empty empty empty 0 -9 0 12 #fcfcfc #000000 #000000 0 1;
#X obj 419 509 vsl 19 162 0 1 0 0 empty empty empty 0 -9 0 12 #fcfcfc #000000 #000000 0 1;
#X obj 448 509 vsl 19 162 0 1 0 0 empty empty empty 0 -9 0 12 #fcfcfc #000000 #000000 0 1;
#X obj -4 721 * 127;
#X obj 42 722 * 127;
#X obj 93 720 * 127;
#X obj 139 721 * 127;
#X obj 188 719 * 127;
#X obj 234 720 * 127;
#X obj 285 718 * 127;
#X obj 331 719 * 127;
#X obj 384 719 * 127;
#X obj 430 720 * 127;
#X obj -34 461 route g1x g1y g2x g2y p0 p1 p2 p3 p4 p5 p6 p7 p8 p9 p10 p11 p12 p13 p14 p15, f 74;
#X obj 477 509 vsl 19 162 0 1 0 0 empty empty empty 0 -9 0 12 #fcfcfc #000000 #000000 0 1;
#N canvas 0 50 450 250 (subpatch) 0;
#X array peak 16 float 5;
#A 0 0 0 0 0 0 0 0 0 0 0 0 0 0 0 0 0;
#X coords 0 1 15 0 500 250 1 0 0;
#X restore -299 26 graph;
#X obj -200 993 s peak;
#X obj -210 905 list split 1;
#X obj -212 967 list prepend 0;
#X obj -109 906 list split 1;
#X obj -13 907 list split 1;
#X obj 88 908 list split 1;
#X obj 188 907 list split 1;
#X obj 289 908 list split 1;
#X obj 385 909 list split 1;
#X obj 486 910 list split 1;
#X obj -210 941 pack 0 0 0 0 0 0 0 0;
#X obj -198 1108 s peak;
#X obj -214 1026 list split 1;
#X obj -113 1027 list split 1;
#X obj -17 1028 list split 1;
#X obj 84 1029 list split 1;
#X obj 184 1028 list split 1;
#X obj 285 1029 list split 1;
#X obj 381 1030 list split 1;
#X obj 482 1031 list split 1;
#X obj -208 1056 pack 0 0 0 0 0 0 0 0;
#X obj -210 1082 list prepend 8;
#X obj -297 486 array max peak;
#X obj -292 424 tgl 19 0 empty empty empty 0 -10 0 12 #fcfcfc #000000 #000000 0 1;
#X floatatom -294 511 5 0 0 0 - - - 0;
#X floatatom -238 512 5 0 0 0 - - - 0;
#X obj -284 536 pack 0 0;
#X obj -298 285 route 0 1 2 3 4 5 6 7 8 9 10 11 12 13 14 15;
#X obj -189 316 +;
#X floatatom -94 333 5 0 0 0 - - - 0;
#X obj -188 347 +;
#X floatatom -93 364 5 0 0 0 - - - 0;
#X msg -278 563 \$2 \$1;
#X obj -187 379 +;
#X floatatom -92 396 5 0 0 0 - - - 0;
#X obj -186 410 +;
#X floatatom -91 427 5 0 0 0 - - - 0;
#X obj -187 439 +;
#X floatatom -92 456 5 0 0 0 - - - 0;
#X obj -186 470 +;
#X floatatom -91 487 5 0 0 0 - - - 0;
#X obj -185 502 +;
#X floatatom -90 519 5 0 0 0 - - - 0;
#X obj -184 533 +;
#X floatatom -89 550 5 0 0 0 - - - 0;
#X obj -186 565 +;
#X floatatom -91 582 5 0 0 0 - - - 0;
#X obj -185 596 +;
#X floatatom -90 613 5 0 0 0 - - - 0;
#X obj -184 628 +;
#X floatatom -89 645 5 0 0 0 - - - 0;
#X obj -183 659 +;
#X floatatom -88 676 5 0 0 0 - - - 0;
#X obj -184 688 +;
#X floatatom -87 704 5 0 0 0 - - - 0;
#X obj -183 719 +;
#X floatatom -88 736 5 0 0 0 - - - 0;
#X obj -182 751 +;
#X floatatom -87 768 5 0 0 0 - - - 0;
#X obj -181 782 +;
#X floatatom -86 799 5 0 0 0 - - - 0;
#X msg -231 559 0;
#X obj -290 829 pack 0 0 0 0 0 0 0 0 0 0 0 0 0 0 0 0;
#X obj -286 863 list prepend 0;
#N canvas 0 50 450 250 (subpatch) 0;
#X array trace 16 float 5;
#A 0 217.861 125.13 167.483 59.7386 69.7239 82.0361 307.517 266.598 116.156 100.203 128.926 125.905 73.9524 209.232 291.792 618.216;
#X coords 0 1000 15 0 500 250 1 0 0;
#X restore -299 26 graph;
#X obj -287 923 s trace;
#X obj -288 892 list trim;
#X obj 514 486 array max trace;
#X floatatom 523 534 7 0 0 0 - - - 0;
#X floatatom 590 536 5 0 0 0 - - - 0;
#X obj -297 462 metro 100;
#X obj 575 595 bng 19 250 50 0 empty empty empty 0 -10 0 12 #fcfcfc #000000 #000000;
#X floatatom 534 612 5 0 0 0 - - - 0;
#X obj 533 710 sel 1;
#X obj 518 673 > 1000;
#X obj 729 833 netsend -u -b;
#X msg 723 761 connect 192.168.1.196 5555;
#X obj 662 678 oscformat x1;
#X obj 755 678 oscformat x2;
#X obj 693 714 oscformat y1;
#X obj 786 714 oscformat y2;
#X obj 609 591 / 15;
#X floatatom 603 635 5 0 0 0 - - - 0;
#X obj 517 576 / 2000;
#X connect 0 0 2 0;
#X connect 1 0 0 0;
#X connect 2 0 3 0;
#X connect 3 0 73 0;
#X connect 5 0 4 0;
#X connect 6 0 4 0;
#X connect 7 0 9 0;
#X connect 8 0 10 0;
#X connect 9 0 8 0;
#X connect 10 0 11 0;
#X connect 11 0 4 0;
#X connect 12 0 14 0;
#X connect 13 0 21 0;
#X connect 14 0 13 0;
#X connect 15 0 17 0;
#X connect 16 0 22 0;
#X connect 17 0 16 0;
#X connect 18 0 20 0;
#X connect 19 0 23 0;
#X connect 20 0 19 0;
#X connect 21 0 11 0;
#X connect 22 0 11 0;
#X connect 23 0 11 0;
#X connect 24 0 4 0;
#X connect 25 0 4 0;
#X connect 27 0 26 0;
#X connect 27 1 26 1;
#X connect 27 2 26 2;
#X connect 28 0 27 0;
#X connect 29 0 27 0;
#X connect 30 0 27 0;
#X connect 31 0 27 0;
#X connect 33 0 32 0;
#X connect 33 1 32 1;
#X connect 33 2 32 2;
#X connect 34 0 33 0;
#X connect 35 0 33 0;
#X connect 36 0 33 0;
#X connect 37 0 33 0;
#X connect 38 0 33 0;
#X connect 39 0 33 0;
#X connect 40 0 12 0;
#X connect 41 0 15 0;
#X connect 42 0 18 0;
#X connect 43 0 7 0;
#X connect 44 0 153 0;
#X connect 45 0 155 0;
#X connect 46 0 154 0;
#X connect 47 0 156 0;
#X connect 48 0 67 0;
#X connect 49 0 68 0;
#X connect 50 0 69 0;
#X connect 51 0 70 0;
#X connect 52 0 71 0;
#X connect 53 0 72 0;
#X connect 53 0 66 0;
#X connect 54 0 43 0;
#X connect 54 0 65 0;
#X connect 55 0 40 0;
#X connect 55 0 63 0;
#X connect 56 0 64 0;
#X connect 63 0 28 0;
#X connect 64 0 29 0;
#X connect 65 0 30 0;
#X connect 66 0 31 0;
#X connect 67 0 34 0;
#X connect 68 0 35 0;
#X connect 69 0 36 0;
#X connect 70 0 37 0;
#X connect 71 0 38 0;
#X connect 72 0 39 0;
#X connect 73 0 44 0;
#X connect 73 1 45 0;
#X connect 73 2 46 0;
#X connect 73 3 47 0;
#X connect 73 4 48 0;
#X connect 73 4 77 0;
#X connect 73 5 49 0;
#X connect 73 5 79 0;
#X connect 73 6 50 0;
#X connect 73 6 80 0;
#X connect 73 7 51 0;
#X connect 73 7 81 0;
#X connect 73 8 52 0;
#X connect 73 8 82 0;
#X connect 73 9 53 0;
#X connect 73 9 83 0;
#X connect 73 10 54 0;
#X connect 73 10 84 0;
#X connect 73 11 55 0;
#X connect 73 11 85 0;
#X connect 73 12 56 0;
#X connect 73 12 88 0;
#X connect 73 13 57 0;
#X connect 73 13 89 0;
#X connect 73 14 58 0;
#X connect 73 14 90 0;
#X connect 73 15 59 0;
#X connect 73 15 91 0;
#X connect 73 16 60 0;
#X connect 73 16 92 0;
#X connect 73 17 61 0;
#X connect 73 17 93 0;
#X connect 73 18 62 0;
#X connect 73 18 94 0;
#X connect 73 19 74 0;
#X connect 73 19 95 0;
#X connect 77 0 86 0;
#X connect 78 0 76 0;
#X connect 79 0 86 1;
#X connect 80 0 86 2;
#X connect 81 0 86 3;
#X connect 82 0 86 4;
#X connect 83 0 86 5;
#X connect 84 0 86 6;
#X connect 85 0 86 7;
#X connect 86 0 78 0;
#X connect 88 0 96 0;
#X connect 89 0 96 1;
#X connect 90 0 96 2;
#X connect 91 0 96 3;
#X connect 92 0 96 4;
#X connect 93 0 96 5;
#X connect 94 0 96 6;
#X connect 95 0 96 7;
#X connect 96 0 97 0;
#X connect 97 0 87 0;
#X connect 98 0 100 0;
#X connect 98 1 101 0;
#X connect 99 0 146 0;
#X connect 100 0 102 0;
#X connect 101 0 102 1;
#X connect 101 0 157 0;
#X connect 102 0 108 0;
#X connect 103 0 104 0;
#X connect 103 1 106 0;
#X connect 103 2 109 0;
#X connect 103 3 111 0;
#X connect 103 4 113 0;
#X connect 103 5 115 0;
#X connect 103 6 117 0;
#X connect 103 7 119 0;
#X connect 103 8 121 0;
#X connect 103 9 123 0;
#X connect 103 10 125 0;
#X connect 103 11 127 0;
#X connect 103 12 129 0;
#X connect 103 13 131 0;
#X connect 103 14 133 0;
#X connect 103 15 135 0;
#X connect 104 0 105 0;
#X connect 105 0 104 1;
#X connect 105 0 138 0;
#X connect 106 0 107 0;
#X connect 107 0 106 1;
#X connect 107 0 138 1;
#X connect 108 0 103 0;
#X connect 109 0 110 0;
#X connect 110 0 109 1;
#X connect 110 0 138 2;
#X connect 111 0 112 0;
#X connect 112 0 111 1;
#X connect 112 0 138 3;
#X connect 113 0 114 0;
#X connect 114 0 113 1;
#X connect 114 0 138 4;
#X connect 115 0 116 0;
#X connect 116 0 115 1;
#X connect 116 0 138 5;
#X connect 117 0 118 0;
#X connect 118 0 117 1;
#X connect 118 0 138 6;
#X connect 119 0 120 0;
#X connect 120 0 119 1;
#X connect 120 0 138 7;
#X connect 121 0 122 0;
#X connect 122 0 121 1;
#X connect 122 0 138 8;
#X connect 123 0 124 0;
#X connect 124 0 123 1;
#X connect 124 0 138 9;
#X connect 125 0 126 0;
#X connect 126 0 125 1;
#X connect 126 0 138 10;
#X connect 127 0 128 0;
#X connect 128 0 127 1;
#X connect 128 0 138 11;
#X connect 129 0 130 0;
#X connect 130 0 129 1;
#X connect 130 0 138 12;
#X connect 131 0 132 0;
#X connect 132 0 131 1;
#X connect 132 0 138 13;
#X connect 133 0 134 0;
#X connect 134 0 133 1;
#X connect 134 0 138 14;
#X connect 135 0 136 0;
#X connect 136 0 135 1;
#X connect 136 0 138 15;
#X connect 137 0 105 0;
#X connect 137 0 136 0;
#X connect 137 0 134 0;
#X connect 137 0 132 0;
#X connect 137 0 130 0;
#X connect 137 0 128 0;
#X connect 137 0 126 0;
#X connect 137 0 124 0;
#X connect 137 0 122 0;
#X connect 137 0 120 0;
#X connect 137 0 118 0;
#X connect 137 0 116 0;
#X connect 137 0 114 0;
#X connect 137 0 112 0;
#X connect 137 0 110 0;
#X connect 137 0 107 0;
#X connect 138 0 139 0;
#X connect 139 0 142 0;
#X connect 142 0 141 0;
#X connect 143 0 144 0;
#X connect 143 1 145 0;
#X connect 144 0 150 0;
#X connect 144 0 159 0;
#X connect 146 0 98 0;
#X connect 146 0 138 0;
#X connect 146 0 143 0;
#X connect 148 0 158 0;
#X connect 149 0 137 0;
#X connect 150 0 149 0;
#X connect 152 0 151 0;
#X connect 153 0 151 0;
#X connect 154 0 151 0;
#X connect 155 0 151 0;
#X connect 156 0 151 0;
#X connect 157 0 41 0;
#X connect 158 0 42 0;
#X connect 159 0 148 0;
