#N canvas 708 511 623 536 12;
#X obj 157 188 lop~ 20000;
#X obj 257 187 lop~ 20000;
#X obj 157 251 clip~ -1 1;
#X obj 257 250 clip~ -1 1;
#X obj 159 383 -~;
#X obj 177 313 pow~ 3;
#X obj 177 353 /~ 3;
#X obj 157 285 +~;
#X obj 259 385 -~;
#X obj 277 315 pow~ 3;
#X obj 277 355 /~ 3;
#X obj 257 287 +~;
#X obj 255 -24 *~ 0.7;
#X obj 141 453 outlet~;
#X obj 275 456 outlet~;
#X obj 256 -56 inlet~;
#X obj 157 221 hip~ 10;
#X obj 257 220 hip~ 10;
#X obj 251 57 slop~ 0 0 0 0 1e+09;
#X obj 253 25 abs~;
#X obj 255 152 /~;
#X obj 277 112 clip~ 1 20;
#X obj 253 2 *~ 1;
#X obj 107 -26 *~ 0.7;
#X obj 108 -58 inlet~;
#X obj 103 55 slop~ 0 0 0 0 1e+09;
#X obj 105 23 abs~;
#X obj 107 150 /~;
#X obj 129 110 clip~ 1 20;
#X obj 182 3 loadbang;
#X obj 105 0 *~ 1;
#X msg 182 25 6;
#X obj 278 418 *~ 0.25;
#X obj 150 421 *~ 0.25;
#X obj 342 199 block~ 128 1;
#X connect 0 0 16 0;
#X connect 1 0 17 0;
#X connect 2 0 7 0;
#X connect 3 0 11 0;
#X connect 4 0 33 0;
#X connect 5 0 6 0;
#X connect 6 0 4 1;
#X connect 7 0 4 0;
#X connect 7 0 5 0;
#X connect 8 0 32 0;
#X connect 9 0 10 0;
#X connect 10 0 8 1;
#X connect 11 0 8 0;
#X connect 11 0 9 0;
#X connect 12 0 22 0;
#X connect 15 0 12 0;
#X connect 16 0 2 0;
#X connect 17 0 3 0;
#X connect 18 0 21 0;
#X connect 19 0 18 0;
#X connect 20 0 1 0;
#X connect 21 0 20 1;
#X connect 22 0 19 0;
#X connect 22 0 20 0;
#X connect 23 0 30 0;
#X connect 24 0 23 0;
#X connect 25 0 28 0;
#X connect 26 0 25 0;
#X connect 27 0 0 0;
#X connect 28 0 27 1;
#X connect 29 0 31 0;
#X connect 30 0 26 0;
#X connect 30 0 27 0;
#X connect 31 0 25 3;
#X connect 31 0 18 3;
#X connect 32 0 14 0;
#X connect 33 0 13 0;
