#N canvas 854 534 649 473 12;
#X obj 67 239 outputstage;
#X obj 71 311 dac~ 1 2;
#X obj 14 368 scope;
#X obj 79 151 tabplay~ drums1 drums2;
#X obj 431 203 array define drums1;
#X obj 432 233 array define drums2;
#X obj 72 112 bng 19 250 50 0 empty empty empty 0 -10 0 12 #fcfcfc #000000 #000000;
#X obj 75 207 snake~ out;
#X obj 331 106 bng 19 250 50 0 empty empty empty 0 -10 0 12 #fcfcfc #000000 #000000;
#X obj 317 200 soundfiler;
#X obj 365 124 openpanel;
#X msg 316 152 read -resize \$1 drums1 drums2;
#X obj 81 180 *~ 2;
#X obj 258 51 vsl 19 162 0 100 0 0 empty empty empty 0 -9 0 12 #fcfcfc #000000 #000000 0 1;
#X obj 133 370 scope;
#X obj 60 277 *~ 0.3;
#X obj 132 278 *~ 0.3;
#X connect 0 0 15 0;
#X connect 0 1 16 0;
#X connect 3 0 12 0;
#X connect 3 1 6 0;
#X connect 6 0 3 0;
#X connect 7 0 0 0;
#X connect 7 0 0 1;
#X connect 8 0 10 0;
#X connect 10 0 11 0;
#X connect 11 0 9 0;
#X connect 12 0 7 0;
#X connect 13 0 12 1;
#X connect 15 0 1 0;
#X connect 15 0 2 0;
#X connect 16 0 1 1;
#X connect 16 0 14 0;
