#N canvas 26 26 450 798 12;
#X obj 189 141 adc~ 1 2;
#X obj 97 163 *~ 5;
#X obj 83 191 +~ 0.149;
#X obj 84 215 /~ 1.1336;
#X obj 81 244 *~ -1;
#X obj 243 170 *~ 5;
#X obj 241 200 +~ 0.0773;
#X obj 254 241 /~ 1.1446;
#X obj 249 272 *~ -1;
#X obj 117 408 mtof~;
#X obj 94 301 *~ 12;
#X obj 120 454 osc~;
#X obj 128 541 dac~ 1 2;
#X obj 96 340 +~ 24;
#X obj 218 434 mtof~;
#X obj 195 327 *~ 12;
#X obj 221 480 osc~;
#X obj 197 366 +~ 24;
#X connect 0 0 1 0;
#X connect 0 1 5 0;
#X connect 1 0 2 0;
#X connect 2 0 3 0;
#X connect 3 0 4 0;
#X connect 4 0 10 0;
#X connect 5 0 6 0;
#X connect 6 0 7 0;
#X connect 7 0 8 0;
#X connect 8 0 15 0;
#X connect 9 0 11 0;
#X connect 10 0 13 0;
#X connect 11 0 12 0;
#X connect 13 0 9 0;
#X connect 14 0 16 0;
#X connect 15 0 17 0;
#X connect 16 0 12 1;
#X connect 17 0 14 0;
