#N canvas 471 547 1920 1109 12;
#X listbox 106 128 64 0 0 0 - - - 0;
#X obj 207 196 bng 50 100 50 0 empty empty RECORDING 50 25 1 50 #000000 #ff0400 #000000;
#X obj 218 363 spigot;
#X obj 106 146 tgl 100 0 empty empty empty 0 -10 0 12 #fcfcfc #ff0400 #000000 0 1;
#X obj 243 263 loadbang;
#X msg 242 289 1;
#X listbox 187 470 20 0 0 0 - - - 0;
#X obj 237 688 writesf~ 2;
#X obj 187 445 makefilename %s.WAV;
#X obj 187 494 list prepend open -bytes 4;
#X listbox 187 518 36 0 0 0 - - - 0;
#X obj 187 541 list trim;
#X obj 226 585 inlet~;
#X obj 286 586 inlet~;
#X obj 97 369 sel 1 0;
#X msg 87 430 start;
#X msg 99 474 stop;
#X obj 207 146 bng 50 100 50 0 empty empty READY 50 25 1 50 #000000 #00ff04 #000000;
#X msg 324 292 1;
#X obj 322 316 metro 500;
#X msg 155 396 0;
#X obj 146 576 bang;
#X msg 135 622 1;
#X obj 311 355 spigot;
#X obj 240 313 metro 250;
#X msg 455 428 1;
#X obj 455 478 +;
#X floatatom 492 481 5 0 0 0 - - - 0;
#X msg 492 454 -1;
#X obj 464 333 tgl 19 0 empty empty empty 0 -10 0 12 #fcfcfc #000000 #000000 0 1;
#X obj 495 361 sel 0;
#X floatatom 564 545 5 0 0 0 - - - 0;
#X obj 456 387 metro 10;
#X obj 567 588 % 100;
#X floatatom 228 106 5 0 0 0 - - - 0;
#X obj 512 578 / 100;
#X obj 516 608 int;
#X floatatom 187 106 5 0 0 0 - - - 0;
#X obj 455 597 int;
#X floatatom 460 622 5 0 0 0 - - - 0;
#X obj 451 567 / 60;
#X obj 408 596 int;
#X floatatom 106 106 5 0 0 0 - - - 0;
#X obj 404 566 / 60;
#X obj 518 639 % 60;
#X obj 463 646 % 60;
#X floatatom 147 106 5 0 0 0 - - - 0;
#X connect 0 0 8 0;
#X connect 2 0 1 0;
#X connect 3 0 2 1;
#X connect 3 0 14 0;
#X connect 3 0 29 0;
#X connect 4 0 5 0;
#X connect 4 0 18 0;
#X connect 5 0 24 0;
#X connect 6 0 9 0;
#X connect 8 0 6 0;
#X connect 9 0 10 0;
#X connect 10 0 11 0;
#X connect 11 0 7 0;
#X connect 11 0 21 0;
#X connect 12 0 7 0;
#X connect 13 0 7 1;
#X connect 14 0 15 0;
#X connect 14 0 20 0;
#X connect 14 1 16 0;
#X connect 15 0 7 0;
#X connect 16 0 7 0;
#X connect 18 0 19 0;
#X connect 19 0 23 0;
#X connect 20 0 23 1;
#X connect 21 0 22 0;
#X connect 22 0 23 1;
#X connect 23 0 17 0;
#X connect 24 0 2 0;
#X connect 25 0 26 0;
#X connect 26 0 27 0;
#X connect 26 0 31 0;
#X connect 27 0 26 1;
#X connect 28 0 27 0;
#X connect 29 0 30 0;
#X connect 29 0 32 0;
#X connect 30 0 28 0;
#X connect 31 0 33 0;
#X connect 31 0 35 0;
#X connect 32 0 25 0;
#X connect 33 0 34 0;
#X connect 35 0 36 0;
#X connect 36 0 44 0;
#X connect 36 0 40 0;
#X connect 38 0 39 0;
#X connect 38 0 45 0;
#X connect 39 0 43 0;
#X connect 40 0 38 0;
#X connect 41 0 42 0;
#X connect 43 0 41 0;
#X connect 44 0 37 0;
#X connect 45 0 46 0;
#X coords 0 -1 1 1 500 150 1 100 100;
