#N canvas -60 119 1920 1157 12;
#X obj 175 467 skew~;
#X obj 228 971 scope;
#X obj 308 594 cos~;
#X obj 173 522 clip~ 0 1;
#X obj 174 496 *~ 0.5;
#X obj 393 1081 dac~ 1 2;
#X obj 309 562 *~;
#X obj 353 511 +~ 1;
#X obj 352 535 clip~ 1 20;
#X obj 383 443 line~;
#X obj 270 715 lop~ 5000;
#X msg 383 408 1 \, 0 200;
#X obj 290 476 skew~;
#X obj 289 502 *~ 0.5;
#X obj 298 524 +~ 0.25;
#X obj 278 319 +~ 0.1;
#X obj 179 404 phasor~;
#X obj 235 437 phasor~;
#X msg 228 373 0;
#X obj 471 470 skew~;
#X obj 604 597 cos~;
#X obj 469 525 clip~ 0 1;
#X obj 470 499 *~ 0.5;
#X obj 605 565 *~;
#X obj 649 514 +~ 1;
#X obj 648 538 clip~ 1 20;
#X obj 679 446 line~;
#X obj 679 473 *~ 3;
#X msg 679 411 1 \, 0 200;
#X obj 586 479 skew~;
#X obj 615 442 sig~ 0.5;
#X obj 585 505 *~ 0.5;
#X obj 594 527 +~ 0.25;
#X obj 574 322 +~ 0.1;
#X obj 475 407 phasor~;
#X obj 531 440 phasor~;
#X msg 524 376 0;
#X obj 766 479 skew~;
#X obj 899 606 cos~;
#X obj 764 534 clip~ 0 1;
#X obj 765 508 *~ 0.5;
#X obj 900 574 *~;
#X obj 944 523 +~ 1;
#X obj 943 547 clip~ 1 20;
#X obj 974 455 line~;
#X obj 974 482 *~ 3;
#X msg 974 420 1 \, 0 200;
#X obj 881 488 skew~;
#X obj 910 451 sig~ 0.5;
#X obj 880 514 *~ 0.5;
#X obj 889 536 +~ 0.25;
#X obj 869 331 +~ 0.1;
#X obj 770 416 phasor~;
#X obj 826 449 phasor~;
#X msg 819 385 0;
#X obj 904 360 noise~;
#X obj 453 311 *~ 2;
#X obj 354 671 *~ 0.15;
#X obj 296 672 *~ 0.5;
#X obj 378 335 bng 19 250 50 0 empty empty empty 0 -10 0 12 #fcfcfc #000000 #000000;
#X obj 300 381 phasor~ 0.1;
#X obj 319 273 +~;
#X obj 271 156 mtof~;
#N canvas 0 50 450 250 (subpatch) 0;
#X array array1 8 float 3;
#A 0 33.6857 3.85714 3.85714 19.5429 5.39999 28.5429 6.17141 6.17141;
#X coords 0 36 8 0 200 140 1 0 0;
#X restore 890 712 graph;
#X obj 491 741 tabread array1;
#X obj 521 672 +;
#X obj 554 672 % 8;
#X obj 506 582 tgl 19 0 empty empty empty 0 -10 0 12 #fcfcfc #000000 #000000 0 1;
#X msg 519 644 1;
#X obj 491 799 + 24;
#X obj 495 770 int;
#X obj 271 216 lop~ 1000;
#X obj 273 188 lop~ 1000;
#X obj 355 840 *~;
#X obj 356 744 vline~;
#X obj 728 298 *~ 8;
#X obj 423 668 *~ 0.05;
#X obj 543 804 > 12;
#X obj 528 844 sel 1 0;
#X obj 383 470 *~ 1;
#X obj 470 870 line~;
#X msg 474 834 \$1 20;
#X obj 503 610 metro 115;
#X obj 484 1008 rev3~, f 21;
#X msg 553 936 98;
#X obj 483 937 hip~ 200;
#X msg 649 957 50;
#X obj 408 882 *~ 0.05;
#X obj 892 391 lop~ 10000;
#X obj 1005 374 *~;
#X obj 1023 344 skew~;
#X obj 1054 318 sig~ 0.5;
#X obj 1023 294 phasor~ 0.03;
#X obj 349 770 pow~ 2;
#X msg 597 953 2000;
#X msg 357 716 1 1 \, 0 100 2;
#X obj 78 436 noise~;
#X obj 78 492 *~ 0.2;
#X obj 79 463 lop~ 500;
#X obj 352 882 *~ 0.3;
#X obj 271 752 hip~ 2;
#X connect 0 0 4 0;
#X connect 2 0 58 0;
#X connect 3 0 6 0;
#X connect 4 0 3 0;
#X connect 6 0 2 0;
#X connect 7 0 8 0;
#X connect 8 0 6 1;
#X connect 9 0 79 0;
#X connect 10 0 100 0;
#X connect 11 0 9 0;
#X connect 12 0 13 0;
#X connect 13 0 14 0;
#X connect 14 0 0 1;
#X connect 15 0 17 0;
#X connect 16 0 0 0;
#X connect 17 0 12 0;
#X connect 18 0 16 1;
#X connect 18 0 17 1;
#X connect 19 0 22 0;
#X connect 20 0 57 0;
#X connect 21 0 23 0;
#X connect 22 0 21 0;
#X connect 23 0 20 0;
#X connect 24 0 25 0;
#X connect 25 0 23 1;
#X connect 26 0 27 0;
#X connect 27 0 24 0;
#X connect 28 0 26 0;
#X connect 29 0 31 0;
#X connect 30 0 29 1;
#X connect 31 0 32 0;
#X connect 32 0 19 1;
#X connect 33 0 35 0;
#X connect 34 0 19 0;
#X connect 35 0 29 0;
#X connect 36 0 34 1;
#X connect 36 0 35 1;
#X connect 37 0 40 0;
#X connect 38 0 76 0;
#X connect 39 0 41 0;
#X connect 40 0 39 0;
#X connect 41 0 38 0;
#X connect 42 0 43 0;
#X connect 43 0 41 1;
#X connect 44 0 45 0;
#X connect 45 0 42 0;
#X connect 46 0 44 0;
#X connect 47 0 49 0;
#X connect 48 0 47 1;
#X connect 49 0 50 0;
#X connect 50 0 37 1;
#X connect 51 0 53 0;
#X connect 52 0 37 0;
#X connect 53 0 47 0;
#X connect 54 0 52 1;
#X connect 54 0 53 1;
#X connect 55 0 88 0;
#X connect 56 0 34 0;
#X connect 56 0 33 0;
#X connect 57 0 10 0;
#X connect 58 0 10 0;
#X connect 59 0 18 0;
#X connect 59 0 36 0;
#X connect 59 0 54 0;
#X connect 60 0 12 1;
#X connect 61 0 15 0;
#X connect 61 0 16 0;
#X connect 61 0 56 0;
#X connect 61 0 75 0;
#X connect 62 0 72 0;
#X connect 64 0 70 0;
#X connect 65 0 66 0;
#X connect 66 0 65 1;
#X connect 66 0 64 0;
#X connect 67 0 82 0;
#X connect 68 0 65 0;
#X connect 69 0 81 0;
#X connect 70 0 69 0;
#X connect 70 0 77 0;
#X connect 71 0 61 0;
#X connect 72 0 71 0;
#X connect 73 0 1 0;
#X connect 73 0 87 0;
#X connect 73 0 99 0;
#X connect 74 0 93 0;
#X connect 75 0 52 0;
#X connect 75 0 51 0;
#X connect 76 0 10 0;
#X connect 77 0 78 0;
#X connect 78 0 46 0;
#X connect 79 0 7 0;
#X connect 80 0 62 0;
#X connect 81 0 80 0;
#X connect 82 0 68 0;
#X connect 82 0 95 0;
#X connect 83 0 5 0;
#X connect 83 1 5 1;
#X connect 83 2 5 0;
#X connect 83 3 5 1;
#X connect 84 0 83 2;
#X connect 84 0 83 3;
#X connect 85 0 83 0;
#X connect 85 0 83 1;
#X connect 86 0 83 5;
#X connect 87 0 85 0;
#X connect 88 0 89 0;
#X connect 89 0 47 1;
#X connect 90 0 89 1;
#X connect 91 0 90 1;
#X connect 92 0 90 0;
#X connect 93 0 73 1;
#X connect 94 0 83 4;
#X connect 95 0 74 0;
#X connect 96 0 98 0;
#X connect 97 0 10 0;
#X connect 98 0 97 0;
#X connect 99 0 5 0;
#X connect 99 0 5 1;
#X connect 100 0 73 0;
