#N canvas 1104 415 1920 1109 12;
#X obj 557 103 cnv 1 55 10 empty playhead empty 20 12 0 12 #000000 #ffffff 0;
#X msg 898 458 vis_size \$1 \$2;
#X obj 900 489 s playhead;
#X obj 898 430 pack 100 10;
#X obj 900 375 snapshot~;
#X obj 865 253 vline~;
#X obj 548 221 soundfiler;
#X floatatom 615 248 5 0 0 0 - - - 0;
#X floatatom 548 248 5 0 0 0 - - - 0;
#X obj 548 168 openpanel;
#X obj 450 48 bng 100 250 50 0 empty empty empty 0 -10 0 12 #fcfcfc #000000 #000000;
#X obj 923 323 tgl 19 0 empty empty empty 0 -10 0 12 #fcfcfc #000000 #000000 0 1;
#X obj 879 550 tabread4~ kik;
#X msg 548 196 read -resize \$1 kik;
#X obj 849 983 dac~ 1 2;
#N canvas 0 50 450 250 (subpatch) 0;
#X array kik 155944 float 0;
#X coords 0 1 155943 -1 400 50 1 0 0;
#X restore 557 48 graph;
#X obj 556 129 hsl 400 8 0 1 0 0 end empty empty -2 -10 0 12 #fcfcfc #000000 #000000 0 1;
#X obj 556 119 hsl 400 8 0 1 0 0 start empty empty -2 -10 0 12 #fcfcfc #000000 #000000 0 1;
#X obj 548 307 s range;
#X obj 546 337 r start;
#X obj 602 336 r end;
#X obj 546 364 *;
#X obj 644 333 r range;
#X obj 602 370 *;
#X floatatom 547 396 5 0 0 0 - - - 0;
#X floatatom 602 398 5 0 0 0 - - - 0;
#X obj 582 468 pack 0 0 0;
#X obj 548 662 t b b;
#X obj 704 330 -;
#X obj 704 358 abs;
#X floatatom 704 399 5 0 0 0 - - - 0;
#X obj 549 429 t b f;
#X obj 698 289 t b f;
#X obj 600 427 t b f;
#X obj 704 425 / 44100;
#X obj 585 490 unpack 0 0 0;
#X msg 710 557 set \$1;
#X msg 976 155 84333 \, 21524.9 980.603;
#X obj 645 529 t f b;
#X msg 677 590 addcomma;
#X msg 645 560 add2 \$1;
#X msg 579 529 add2 \$1;
#X obj 867 287 /~;
#X obj 899 405 * 400;
#X obj 700 457 * 500;
#X obj 801 371 vsl 19 162 0 2000 0 0 empty empty empty 0 -9 0 12 #fcfcfc #000000 #000000 0 1;
#X obj 795 563 t b f;
#X msg 865 226 0;
#X obj 569 272 bng 19 250 50 0 empty empty empty 0 -10 0 12 #fcfcfc #000000 #000000;
#X obj 539 563 spigot;
#X obj 548 632 bng 19 250 50 0 empty empty empty 0 -10 0 12 #fcfcfc #000000 #000000;
#X obj 1065 47 tgl 100 0 empty empty empty 0 -10 0 12 #fcfcfc #000000 #000000 0 1;
#X obj 546 599 delay 100;
#X obj 694 195 random 100000;
#X obj 695 222 / 100000;
#X obj 794 198 random 100000;
#X obj 794 225 / 100000;
#X obj 756 289 random 100000;
#X obj 756 314 / 100000;
#X obj 753 339 * 1000;
#X obj 962 47 bng 100 250 50 0 empty empty empty 0 -10 0 12 #fcfcfc #000000 #000000;
#X obj 535 531 t b b;
#X obj 873 915 rev3~, f 24;
#X obj 923 300 loadbang;
#X obj 1040 181 sel 0;
#X msg 1029 226 stop;
#X obj 1131 209 lop~ 100;
#X obj 1129 267 bp~ 150 10, f 16;
#X obj 1130 324 bp~ 250 10, f 16;
#X obj 1129 381 bp~ 350 10, f 16;
#X obj 1133 431 bp~ 500 10, f 16;
#X obj 1133 491 bp~ 630 10, f 16;
#X obj 1130 548 bp~ 800 10, f 16;
#X obj 1131 601 bp~ 1000 10, f 16;
#X obj 1131 657 bp~ 1300 10, f 16;
#X obj 1126 715 bp~ 1600 10, f 16;
#X obj 1126 771 bp~ 2000 10, f 16;
#X obj 1119 825 bp~ 3500 10, f 16;
#X obj 1120 879 bp~ 5000 10, f 16;
#X obj 1121 933 bp~ 8000 10, f 16;
#X obj 1121 987 hip~ 10000, f 16;
#X obj 1110 185 +~;
#X obj 1132 238 delwrite~ 100hz 2000;
#X obj 1129 297 delwrite~ 150hz 2000;
#X obj 1130 406 delwrite~ 350hz 2000;
#X obj 1134 462 delwrite~ 500hz 2000;
#X obj 1131 515 delwrite~ 630hz 2000;
#X obj 1128 351 delwrite~ 250hz 2000;
#X obj 1130 573 delwrite~ 800hz 2000;
#X obj 1130 626 delwrite~ 1000hz 2000;
#X obj 1121 1012 delwrite~ 10000hz 2000;
#X obj 1119 955 delwrite~ 8000hz 2000;
#X obj 1117 907 delwrite~ 5000hz 2000;
#X obj 1120 852 delwrite~ 3500hz 2000;
#X obj 1123 802 delwrite~ 2000hz 2000;
#X obj 1127 743 delwrite~ 1600hz 2000;
#X obj 1132 684 delwrite~ 1300hz 2000;
#X obj 1363 955 delread4~ 5000hz;
#X obj 1363 982 delread4~ 8000hz;
#X obj 1360 1012 delread4~ 10000hz;
#X obj 1348 621 delread4~ 100hz;
#X obj 1348 646 delread4~ 150hz;
#X obj 1348 672 delread4~ 250hz;
#X obj 1351 699 delread4~ 350hz;
#X obj 1355 724 delread4~ 500hz;
#X obj 1357 753 delread4~ 630hz;
#X obj 1360 780 delread4~ 800hz;
#X obj 1356 807 delread4~ 1000hz;
#X obj 1357 834 delread4~ 1300hz;
#X obj 1355 863 delread4~ 1600hz;
#X obj 1357 890 delread4~ 2000hz;
#X obj 1360 923 delread4~ 3500hz;
#X obj 1367 206 random 2000;
#X obj 1367 231 random 2000;
#X obj 1367 259 random 2000;
#X obj 1368 284 random 2000;
#X obj 1371 309 random 2000;
#X obj 1373 338 random 2000;
#X obj 1374 364 random 2000;
#X obj 1370 395 random 2000;
#X obj 1329 206 bng 19 250 50 0 empty empty empty 0 -10 0 12 #fcfcfc #000000 #000000;
#X obj 1372 420 random 2000;
#X obj 1369 446 random 2000;
#X obj 1371 476 random 2000;
#X obj 1374 511 random 2000;
#X obj 1378 541 random 2000;
#X obj 1375 568 random 2000;
#X obj 1376 597 random 2000;
#X obj 944 783 hip~ 20;
#X obj 1329 151 tgl 19 0 empty empty empty 0 -10 0 12 #fcfcfc #000000 #000000 0 1;
#X msg 1303 643 \$1;
#X obj 1307 466 vsl 19 162 0 100 0 0 empty empty empty 0 -9 0 12 #fcfcfc #000000 #000000 0 1;
#X obj 1330 177 metro 10000;
#X obj 906 784 *~ 1;
#X obj 947 755 *~ 1;
#X obj 957 813 *~ 1;
#X obj 906 350 metro 30;
#X obj 1505 204 lop~ 100;
#X obj 1503 262 bp~ 150 10, f 16;
#X obj 1504 319 bp~ 250 10, f 16;
#X obj 1503 376 bp~ 350 10, f 16;
#X obj 1507 426 bp~ 500 10, f 16;
#X obj 1507 486 bp~ 630 10, f 16;
#X obj 1504 543 bp~ 800 10, f 16;
#X obj 1505 596 bp~ 1000 10, f 16;
#X obj 1505 652 bp~ 1300 10, f 16;
#X obj 1500 710 bp~ 1600 10, f 16;
#X obj 1500 766 bp~ 2000 10, f 16;
#X obj 1493 820 bp~ 3500 10, f 16;
#X obj 1494 874 bp~ 5000 10, f 16;
#X obj 1495 928 bp~ 8000 10, f 16;
#X obj 1495 982 hip~ 10000, f 16;
#X obj 1484 180 +~;
#X obj 1741 201 random 2000;
#X obj 1741 226 random 2000;
#X obj 1741 254 random 2000;
#X obj 1742 279 random 2000;
#X obj 1745 304 random 2000;
#X obj 1747 333 random 2000;
#X obj 1748 359 random 2000;
#X obj 1744 390 random 2000;
#X obj 1703 201 bng 19 250 50 0 empty empty empty 0 -10 0 12 #fcfcfc #000000 #000000;
#X obj 1746 415 random 2000;
#X obj 1743 441 random 2000;
#X obj 1745 471 random 2000;
#X obj 1748 506 random 2000;
#X obj 1752 536 random 2000;
#X obj 1749 563 random 2000;
#X obj 1750 592 random 2000;
#X obj 1002 778 hip~ 20;
#X msg 1677 638 \$1;
#X obj 1681 461 vsl 19 162 0 100 0 0 empty empty empty 0 -9 0 12 #fcfcfc #000000 #000000 0 1;
#X obj 1005 750 *~ 1;
#X obj 1506 233 delwrite~ 100hzr 2000;
#X obj 1503 292 delwrite~ 150hzr 2000;
#X obj 1502 346 delwrite~ 250hzr 2000;
#X obj 1504 401 delwrite~ 350hzr 2000;
#X obj 1508 457 delwrite~ 500hzr 2000;
#X obj 1505 510 delwrite~ 630hzr 2000;
#X obj 1504 568 delwrite~ 800hzr 2000;
#X obj 1504 621 delwrite~ 1000hzr 2000;
#X obj 1506 679 delwrite~ 1300hzr 2000;
#X obj 1501 738 delwrite~ 1600hzr 2000;
#X obj 1497 797 delwrite~ 2000hzr 2000;
#X obj 1494 847 delwrite~ 3500hzr 2000;
#X obj 1491 902 delwrite~ 5000hzr 2000;
#X obj 1493 950 delwrite~ 8000hzr 2000;
#X obj 1495 1007 delwrite~ 10000hzr 2000;
#X obj 1734 1007 delread4~ 10000hzr;
#X obj 1737 977 delread4~ 8000hzr;
#X obj 1737 950 delread4~ 5000hzr;
#X obj 1734 918 delread4~ 3500hzr;
#X obj 1731 885 delread4~ 2000hzr;
#X obj 1729 858 delread4~ 1600hzr;
#X obj 1731 829 delread4~ 1300hzr;
#X obj 1730 802 delread4~ 1000hzr;
#X obj 1734 775 delread4~ 800hzr;
#X obj 1731 748 delread4~ 630hzr;
#X obj 1729 719 delread4~ 500hzr;
#X obj 1725 694 delread4~ 350hzr;
#X obj 1722 667 delread4~ 250hzr;
#X obj 1722 641 delread4~ 150hzr;
#X obj 1722 616 delread4~ 100hzr;
#X obj 1015 808 *~ 1;
#X msg 1057 872 50;
#X msg 1004 873 2000;
#X obj 1850 464 vsl 19 162 0 100 0 0 empty empty empty 0 -9 0 12 #fcfcfc #000000 #000000 0 1;
#X msg 956 870 96;
#X connect 1 0 2 0;
#X connect 3 0 1 0;
#X connect 4 0 43 0;
#X connect 5 0 42 0;
#X connect 5 0 12 0;
#X connect 6 0 8 0;
#X connect 6 1 7 0;
#X connect 7 0 34 1;
#X connect 8 0 18 0;
#X connect 8 0 42 1;
#X connect 8 0 48 0;
#X connect 9 0 13 0;
#X connect 10 0 9 0;
#X connect 11 0 136 0;
#X connect 12 0 62 1;
#X connect 12 0 62 0;
#X connect 12 0 133 0;
#X connect 13 0 6 0;
#X connect 19 0 21 0;
#X connect 20 0 23 0;
#X connect 21 0 24 0;
#X connect 22 0 23 1;
#X connect 22 0 21 1;
#X connect 23 0 25 0;
#X connect 24 0 28 0;
#X connect 24 0 31 0;
#X connect 25 0 32 0;
#X connect 25 0 33 0;
#X connect 26 0 35 0;
#X connect 27 0 60 0;
#X connect 27 1 53 0;
#X connect 27 1 55 0;
#X connect 27 1 57 0;
#X connect 28 0 29 0;
#X connect 29 0 30 0;
#X connect 30 0 34 0;
#X connect 31 0 26 0;
#X connect 31 1 26 2;
#X connect 32 0 28 0;
#X connect 32 1 28 1;
#X connect 33 0 26 0;
#X connect 33 1 26 1;
#X connect 34 0 44 0;
#X connect 35 0 41 0;
#X connect 35 1 38 0;
#X connect 35 2 36 0;
#X connect 36 0 37 0;
#X connect 37 0 5 0;
#X connect 38 0 40 0;
#X connect 38 1 39 0;
#X connect 39 0 37 0;
#X connect 40 0 37 0;
#X connect 41 0 37 0;
#X connect 42 0 4 0;
#X connect 43 0 3 0;
#X connect 44 0 26 0;
#X connect 44 0 52 1;
#X connect 45 0 46 0;
#X connect 46 0 44 0;
#X connect 46 1 44 1;
#X connect 47 0 5 0;
#X connect 48 0 47 0;
#X connect 48 0 21 0;
#X connect 48 0 23 0;
#X connect 49 0 52 0;
#X connect 50 0 27 0;
#X connect 51 0 49 1;
#X connect 51 0 64 0;
#X connect 52 0 50 0;
#X connect 53 0 54 0;
#X connect 54 0 17 0;
#X connect 55 0 56 0;
#X connect 56 0 16 0;
#X connect 57 0 58 0;
#X connect 58 0 59 0;
#X connect 59 0 45 0;
#X connect 60 0 37 0;
#X connect 60 0 61 0;
#X connect 61 0 49 0;
#X connect 61 1 37 0;
#X connect 62 0 14 0;
#X connect 62 1 14 1;
#X connect 62 2 14 0;
#X connect 62 3 14 1;
#X connect 63 0 11 0;
#X connect 64 0 65 0;
#X connect 65 0 52 0;
#X connect 66 0 82 0;
#X connect 67 0 83 0;
#X connect 68 0 87 0;
#X connect 69 0 84 0;
#X connect 70 0 85 0;
#X connect 71 0 86 0;
#X connect 72 0 88 0;
#X connect 73 0 89 0;
#X connect 74 0 96 0;
#X connect 75 0 95 0;
#X connect 76 0 94 0;
#X connect 77 0 93 0;
#X connect 78 0 92 0;
#X connect 79 0 91 0;
#X connect 80 0 90 0;
#X connect 81 0 66 0;
#X connect 81 0 67 0;
#X connect 81 0 68 0;
#X connect 81 0 69 0;
#X connect 81 0 70 0;
#X connect 81 0 71 0;
#X connect 81 0 72 0;
#X connect 81 0 73 0;
#X connect 81 0 74 0;
#X connect 81 0 75 0;
#X connect 81 0 76 0;
#X connect 81 0 77 0;
#X connect 81 0 78 0;
#X connect 81 0 79 0;
#X connect 81 0 80 0;
#X connect 97 0 134 0;
#X connect 98 0 134 0;
#X connect 99 0 134 0;
#X connect 100 0 134 0;
#X connect 101 0 134 0;
#X connect 102 0 134 0;
#X connect 103 0 134 0;
#X connect 104 0 134 0;
#X connect 105 0 134 0;
#X connect 106 0 134 0;
#X connect 107 0 134 0;
#X connect 108 0 134 0;
#X connect 109 0 134 0;
#X connect 110 0 134 0;
#X connect 111 0 134 0;
#X connect 112 0 100 0;
#X connect 113 0 101 0;
#X connect 114 0 102 0;
#X connect 115 0 103 0;
#X connect 116 0 104 0;
#X connect 117 0 105 0;
#X connect 118 0 106 0;
#X connect 119 0 107 0;
#X connect 120 0 114 0;
#X connect 120 0 119 0;
#X connect 120 0 118 0;
#X connect 120 0 117 0;
#X connect 120 0 116 0;
#X connect 120 0 115 0;
#X connect 120 0 113 0;
#X connect 120 0 112 0;
#X connect 120 0 121 0;
#X connect 120 0 127 0;
#X connect 120 0 126 0;
#X connect 120 0 125 0;
#X connect 120 0 124 0;
#X connect 120 0 123 0;
#X connect 120 0 122 0;
#X connect 121 0 108 0;
#X connect 122 0 109 0;
#X connect 123 0 110 0;
#X connect 124 0 111 0;
#X connect 125 0 97 0;
#X connect 126 0 98 0;
#X connect 127 0 99 0;
#X connect 128 0 135 0;
#X connect 129 0 132 0;
#X connect 130 0 74 2;
#X connect 130 0 73 2;
#X connect 130 0 67 2;
#X connect 130 0 79 2;
#X connect 130 0 78 2;
#X connect 130 0 77 2;
#X connect 130 0 76 2;
#X connect 130 0 75 2;
#X connect 130 0 72 2;
#X connect 130 0 71 2;
#X connect 130 0 70 2;
#X connect 130 0 69 2;
#X connect 130 0 68 2;
#X connect 131 0 130 0;
#X connect 132 0 120 0;
#X connect 132 0 161 0;
#X connect 133 0 14 0;
#X connect 133 0 14 1;
#X connect 133 0 81 0;
#X connect 133 0 152 0;
#X connect 134 0 128 0;
#X connect 135 0 14 0;
#X connect 135 0 62 0;
#X connect 136 0 4 0;
#X connect 137 0 173 0;
#X connect 138 0 174 0;
#X connect 139 0 175 0;
#X connect 140 0 176 0;
#X connect 141 0 177 0;
#X connect 142 0 178 0;
#X connect 143 0 179 0;
#X connect 144 0 180 0;
#X connect 145 0 181 0;
#X connect 146 0 182 0;
#X connect 147 0 183 0;
#X connect 148 0 184 0;
#X connect 149 0 185 0;
#X connect 150 0 186 0;
#X connect 151 0 187 0;
#X connect 152 0 137 0;
#X connect 152 0 138 0;
#X connect 152 0 139 0;
#X connect 152 0 140 0;
#X connect 152 0 141 0;
#X connect 152 0 142 0;
#X connect 152 0 143 0;
#X connect 152 0 144 0;
#X connect 152 0 145 0;
#X connect 152 0 146 0;
#X connect 152 0 147 0;
#X connect 152 0 148 0;
#X connect 152 0 149 0;
#X connect 152 0 150 0;
#X connect 152 0 151 0;
#X connect 153 0 202 0;
#X connect 154 0 201 0;
#X connect 155 0 200 0;
#X connect 156 0 199 0;
#X connect 157 0 198 0;
#X connect 158 0 197 0;
#X connect 159 0 196 0;
#X connect 160 0 195 0;
#X connect 161 0 155 0;
#X connect 161 0 160 0;
#X connect 161 0 159 0;
#X connect 161 0 158 0;
#X connect 161 0 157 0;
#X connect 161 0 156 0;
#X connect 161 0 154 0;
#X connect 161 0 153 0;
#X connect 161 0 162 0;
#X connect 161 0 168 0;
#X connect 161 0 167 0;
#X connect 161 0 166 0;
#X connect 161 0 165 0;
#X connect 161 0 164 0;
#X connect 161 0 163 0;
#X connect 162 0 194 0;
#X connect 163 0 193 0;
#X connect 164 0 192 0;
#X connect 165 0 191 0;
#X connect 166 0 190 0;
#X connect 167 0 189 0;
#X connect 168 0 188 0;
#X connect 169 0 203 0;
#X connect 170 0 145 2;
#X connect 170 0 144 2;
#X connect 170 0 138 2;
#X connect 170 0 150 2;
#X connect 170 0 149 2;
#X connect 170 0 148 2;
#X connect 170 0 147 2;
#X connect 170 0 146 2;
#X connect 170 0 143 2;
#X connect 170 0 142 2;
#X connect 170 0 141 2;
#X connect 170 0 140 2;
#X connect 170 0 139 2;
#X connect 171 0 170 0;
#X connect 172 0 169 0;
#X connect 188 0 172 0;
#X connect 189 0 172 0;
#X connect 190 0 172 0;
#X connect 191 0 172 0;
#X connect 192 0 172 0;
#X connect 193 0 172 0;
#X connect 194 0 172 0;
#X connect 195 0 172 0;
#X connect 196 0 172 0;
#X connect 197 0 172 0;
#X connect 198 0 172 0;
#X connect 199 0 172 0;
#X connect 200 0 172 0;
#X connect 201 0 172 0;
#X connect 202 0 172 0;
#X connect 203 0 14 1;
#X connect 203 0 62 1;
#X connect 204 0 62 5;
#X connect 205 0 62 4;
#X connect 206 0 131 0;
#X connect 206 0 171 0;
#X connect 207 0 62 2;
#X connect 207 0 62 3;
