#N canvas 1104 415 1920 1109 12;
#X obj 590 374 cnv 1 1 10 empty playhead empty 20 12 0 12 #000000 #ffffff 0;
#X floatatom 864 389 4 18 100 0 - - - 0;
#X msg 864 472 vis_size \$1 \$2;
#X obj 858 513 s playhead;
#X obj 864 442 pack 100 10;
#X obj 988 370 snapshot~;
#X obj 1068 330 bang~;
#N canvas 0 50 450 250 (subpatch) 0;
#X array s1 9168 float 2;
#X coords 0 1 9168 -1 200 100 1 0 0;
#X restore 590 271 graph;
#X msg 1007 279 0 \, 1 100 2 \, 0 0 103;
#X obj 987 309 vline~;
#X obj 995 419 * 200;
#X obj 1022 530 env~;
#X obj 1189 463 soundfiler;
#X floatatom 1252 508 5 0 0 0 - - - 0;
#X floatatom 1183 508 5 0 0 0 - - - 0;
#X msg 1186 400 read -resize \$1 s1;
#X obj 1203 329 openpanel;
#X obj 1205 294 bng 19 250 50 0 empty empty empty 0 -10 0 12 #fcfcfc #000000 #000000;
#X obj 991 619 array size s1;
#X floatatom 995 665 5 0 0 0 - - - 0;
#X obj 997 581 bng 19 250 50 0 empty empty empty 0 -10 0 12 #fcfcfc #000000 #000000;
#X obj 904 764 *~;
#X obj 894 814 tabread4~ s1;
#X obj 869 881 scope;
#X connect 1 0 4 0;
#X connect 2 0 3 0;
#X connect 4 0 2 0;
#X connect 5 0 10 0;
#X connect 6 0 5 0;
#X connect 8 0 9 0;
#X connect 9 0 5 0;
#X connect 9 0 21 0;
#X connect 10 0 1 0;
#X connect 12 0 14 0;
#X connect 12 1 13 0;
#X connect 15 0 12 0;
#X connect 16 0 15 0;
#X connect 17 0 16 0;
#X connect 18 0 19 0;
#X connect 19 0 21 1;
#X connect 20 0 18 0;
#X connect 21 0 22 0;
#X connect 22 0 23 0;
