#N canvas -55 248 1920 1109 12;
#X obj -246 418 lop~ 100;
#X obj -176 418 bp~ 150 10, f 16;
#X obj 588 976 scope;
#X obj 717 971 dac~ 1 2;
#X obj -49 415 bp~ 250 10, f 16;
#X obj 80 415 bp~ 350 10, f 16;
#X obj 207 412 bp~ 500 10, f 16;
#X obj 345 412 bp~ 630 10, f 16;
#X obj 500 413 bp~ 800 10, f 16;
#X obj 640 410 bp~ 1000 10, f 16;
#X obj 782 406 bp~ 1300 10, f 16;
#X obj 914 404 bp~ 1600 10, f 16;
#X obj 1054 401 bp~ 2000 10, f 16;
#X obj 1196 397 bp~ 3500 10, f 16;
#X obj 1330 400 bp~ 5000 10, f 16;
#X obj 1467 402 bp~ 8000 10, f 16;
#X obj 481 974 scope;
#X obj 1603 402 hip~ 10000, f 16;
#X obj 550 139 +~;
#X obj -238 496 delwrite~ 100hz 2000;
#X obj -178 466 delwrite~ 150hz 2000;
#X obj 25 487 delwrite~ 350hz 2000;
#X obj 210 504 delwrite~ 500hz 2000;
#X obj 270 474 delwrite~ 630hz 2000;
#X obj -35 517 delwrite~ 250hz 2000;
#X obj 504 512 delwrite~ 800hz 2000;
#X obj 635 466 delwrite~ 1000hz 2000;
#X obj 1585 520 delwrite~ 10000hz 2000;
#X obj 1397 474 delwrite~ 8000hz 2000;
#X obj 1308 515 delwrite~ 5000hz 2000;
#X obj 1157 465 delwrite~ 3500hz 2000;
#X obj 1068 506 delwrite~ 2000hz 2000;
#X obj 913 449 delwrite~ 1600hz 2000;
#X obj 791 501 delwrite~ 1300hz 2000;
#X obj 1322 764 delread4~ 5000hz;
#X obj 1460 764 delread4~ 8000hz;
#X obj 1586 765 delread4~ 10000hz;
#X obj -157 770 delread4~ 100hz;
#X obj -42 770 delread4~ 150hz;
#X obj 77 768 delread4~ 250hz;
#X obj 197 767 delread4~ 350hz;
#X obj 313 767 delread4~ 500hz;
#X obj 442 767 delread4~ 630hz;
#X obj 566 768 delread4~ 800hz;
#X obj 683 762 delread4~ 1000hz;
#X obj 808 761 delread4~ 1300hz;
#X obj 934 761 delread4~ 1600hz;
#X obj 1058 762 delread4~ 2000hz;
#X obj 1193 762 delread4~ 3500hz;
#X obj 21 707 random 2000;
#X obj 109 706 random 2000;
#X obj 201 706 random 2000;
#X obj 289 705 random 2000;
#X obj 388 701 random 2000;
#X obj 476 700 random 2000;
#X obj 568 700 random 2000;
#X obj 656 699 random 2000;
#X obj 581 635 bng 19 250 50 0 empty empty empty 0 -10 0 12 #fcfcfc #000000 #000000;
#X obj 757 693 random 2000;
#X obj 845 692 random 2000;
#X obj 937 692 random 2000;
#X obj 1025 691 random 2000;
#X obj 1124 687 random 2000;
#X obj 1212 686 random 2000;
#X obj 1304 686 random 2000;
#X obj 624 855 *~ 0.5;
#X obj 661 883 hip~ 20;
#X obj 809 909 rev3~, f 20;
#X obj 581 580 tgl 19 0 empty empty empty 0 -10 0 12 #fcfcfc #000000 #000000 0 1;
#X obj 582 606 metro 3000;
#X msg 954 869 50;
#X obj 674 913 *~ 0.3;
#X msg 925 852 2000;
#X msg 782 138 \$1;
#X obj 920 72 vsl 19 162 0 100 0 0 empty empty empty 0 -9 0 12 #fcfcfc #000000 #000000 0 1;
#X obj 460 49 random 1000;
#X obj 452 91 osc~ 10;
#X obj 573 46 bng 19 250 50 0 empty empty empty 0 -10 0 12 #fcfcfc #000000 #000000;
#X obj 573 70 metro 100;
#X obj 468 115 *~ 0.2;
#X msg 880 868 98;
#X connect 0 0 19 0;
#X connect 1 0 20 0;
#X connect 4 0 24 0;
#X connect 5 0 21 0;
#X connect 6 0 22 0;
#X connect 7 0 23 0;
#X connect 8 0 25 0;
#X connect 9 0 26 0;
#X connect 10 0 33 0;
#X connect 11 0 32 0;
#X connect 12 0 31 0;
#X connect 13 0 30 0;
#X connect 14 0 29 0;
#X connect 15 0 28 0;
#X connect 17 0 27 0;
#X connect 18 0 0 0;
#X connect 18 0 1 0;
#X connect 18 0 4 0;
#X connect 18 0 5 0;
#X connect 18 0 6 0;
#X connect 18 0 7 0;
#X connect 18 0 8 0;
#X connect 18 0 9 0;
#X connect 18 0 10 0;
#X connect 18 0 11 0;
#X connect 18 0 12 0;
#X connect 18 0 13 0;
#X connect 18 0 14 0;
#X connect 18 0 15 0;
#X connect 18 0 17 0;
#X connect 34 0 65 0;
#X connect 35 0 65 0;
#X connect 36 0 65 0;
#X connect 37 0 65 0;
#X connect 38 0 65 0;
#X connect 39 0 65 0;
#X connect 40 0 65 0;
#X connect 41 0 65 0;
#X connect 42 0 65 0;
#X connect 43 0 65 0;
#X connect 44 0 65 0;
#X connect 45 0 65 0;
#X connect 46 0 65 0;
#X connect 47 0 65 0;
#X connect 48 0 65 0;
#X connect 49 0 37 0;
#X connect 50 0 38 0;
#X connect 51 0 39 0;
#X connect 52 0 40 0;
#X connect 53 0 41 0;
#X connect 54 0 42 0;
#X connect 55 0 43 0;
#X connect 56 0 44 0;
#X connect 57 0 51 0;
#X connect 57 0 56 0;
#X connect 57 0 55 0;
#X connect 57 0 54 0;
#X connect 57 0 53 0;
#X connect 57 0 52 0;
#X connect 57 0 50 0;
#X connect 57 0 49 0;
#X connect 57 0 58 0;
#X connect 57 0 64 0;
#X connect 57 0 63 0;
#X connect 57 0 62 0;
#X connect 57 0 61 0;
#X connect 57 0 60 0;
#X connect 57 0 59 0;
#X connect 58 0 45 0;
#X connect 59 0 46 0;
#X connect 60 0 47 0;
#X connect 61 0 48 0;
#X connect 62 0 34 0;
#X connect 63 0 35 0;
#X connect 64 0 36 0;
#X connect 65 0 66 0;
#X connect 66 0 16 0;
#X connect 66 0 71 0;
#X connect 67 0 3 0;
#X connect 67 1 3 1;
#X connect 67 2 3 0;
#X connect 67 3 3 1;
#X connect 68 0 69 0;
#X connect 69 0 57 0;
#X connect 70 0 67 5;
#X connect 71 0 3 0;
#X connect 71 0 3 1;
#X connect 71 0 67 0;
#X connect 71 0 67 1;
#X connect 72 0 67 4;
#X connect 73 0 10 2;
#X connect 73 0 9 2;
#X connect 73 0 1 2;
#X connect 73 0 15 2;
#X connect 73 0 14 2;
#X connect 73 0 13 2;
#X connect 73 0 12 2;
#X connect 73 0 11 2;
#X connect 73 0 8 2;
#X connect 73 0 7 2;
#X connect 73 0 6 2;
#X connect 73 0 5 2;
#X connect 73 0 4 2;
#X connect 74 0 73 0;
#X connect 75 0 76 0;
#X connect 76 0 79 0;
#X connect 77 0 78 0;
#X connect 78 0 75 0;
#X connect 79 0 18 0;
#X connect 80 0 67 2;
#X connect 80 0 67 3;
