#N canvas 1921 402 1920 1157 12;
#X obj 141 897 strec;
#X obj 578 1031 dac~ 1 2;
#X obj 132 75 cnv 1 38 10 empty playhead empty 20 12 0 12 #000000 #ffffff 0;
#X msg 377 418 vis_size \$1 \$2;
#X obj 379 449 s playhead;
#X obj 377 390 pack 100 10;
#X obj 379 335 snapshot~;
#X obj 344 213 vline~;
#X obj 27 181 soundfiler;
#X floatatom 94 208 5 0 0 0 - - - 0;
#X floatatom 27 208 5 0 0 0 - - - 0;
#X obj 27 128 openpanel;
#X obj 25 20 bng 100 250 50 0 empty empty empty 0 -10 0 12 #fcfcfc #000000 #000000;
#X obj 402 283 tgl 19 0 empty empty empty 0 -10 0 12 #fcfcfc #000000 #000000 0 1;
#X obj 354 476 tabread4~ kik;
#X msg 27 156 read -resize \$1 kik;
#N canvas 234 234 450 250 (subpatch) 0;
#X array kik 531904 float 0;
#X coords 0 1 531903 -1 400 50 1 0 0;
#X restore 132 20 graph;
#X obj 131 101 hsl 400 8 0 1 0 0 end empty empty -2 -10 0 12 #fcfcfc #000000 #000000 0 1;
#X obj 131 91 hsl 400 8 0 1 0 0 start empty empty -2 -10 0 12 #fcfcfc #000000 #000000 0 1;
#X obj 27 267 s range;
#X obj 25 297 r start;
#X obj 81 296 r end;
#X obj 25 324 *;
#X obj 123 293 r range;
#X obj 81 330 *;
#X floatatom 26 356 5 0 0 0 - - - 0;
#X floatatom 81 358 5 0 0 0 - - - 0;
#X obj 43 422 pack 0 0 0;
#X obj 27 622 t b b;
#X obj 183 290 -;
#X obj 183 318 abs;
#X floatatom 183 359 5 0 0 0 - - - 0;
#X obj 28 389 t b f;
#X obj 177 249 t b f;
#X obj 79 387 t b f;
#X obj 183 385 / 44100;
#X obj 64 450 unpack 0 0 0;
#X msg 189 517 set \$1;
#X msg 642 213 504410 \, 50764.9 7839.84;
#X obj 124 489 t f b;
#X msg 156 550 addcomma;
#X msg 124 520 add2 \$1;
#X msg 58 489 add2 \$1;
#X obj 367 248 /~;
#X obj 378 365 * 400;
#X obj 179 417 * 500;
#X obj 280 331 vsl 19 162 0 2000 0 0 empty empty empty 0 -9 0 12 #fcfcfc #000000 #000000 0 1;
#X obj 274 523 t b f;
#X msg 344 186 0;
#X obj 85 268 bng 19 250 50 0 empty empty empty 0 -10 0 12 #fcfcfc #000000 #000000;
#X obj 18 523 spigot;
#X obj 27 592 bng 19 250 50 0 empty empty empty 0 -10 0 12 #fcfcfc #000000 #000000;
#X obj 642 20 tgl 100 0 empty empty empty 0 -10 0 12 #fcfcfc #000000 #000000 0 1;
#X obj 25 559 delay 100;
#X obj 173 155 random 100000;
#X obj 174 182 / 100000;
#X obj 273 158 random 100000;
#X obj 273 185 / 100000;
#X obj 235 274 / 100000;
#X obj 539 20 bng 100 250 50 0 empty empty empty 0 -10 0 12 #fcfcfc #000000 #000000;
#X obj 14 491 t b b;
#X obj 304 686 rev3~, f 24;
#X obj 402 260 loadbang;
#X obj 641 155 sel 0;
#X msg 640 181 stop;
#X obj 350 574 hip~ 20;
#X obj 312 575 *~ 1;
#X obj 363 604 *~ 1;
#X obj 385 310 metro 30;
#X obj 408 569 hip~ 20;
#X obj 421 599 *~ 1;
#X obj 439 624 loadbang;
#X obj 346 526 hip~ 3;
#X obj 745 19 bng 100 250 50 0 empty empty empty 0 -10 0 12 #fcfcfc #000000 #000000;
#X obj 56 719 spigot;
#X obj 848 19 tgl 100 0 empty empty empty 0 -10 0 12 #fcfcfc #000000 #000000 0 1;
#X obj 64 686 sel 0;
#X obj 64 660 random 2;
#X obj 598 690 *~;
#X obj 205 687 throw~ tospec;
#N canvas 208 53 1118 1109 spec 0;
#X obj 68 136 lop~ 100;
#X obj 66 194 bp~ 150 10, f 16;
#X obj 67 251 bp~ 250 10, f 16;
#X obj 66 308 bp~ 350 10, f 16;
#X obj 70 358 bp~ 500 10, f 16;
#X obj 70 418 bp~ 630 10, f 16;
#X obj 67 475 bp~ 800 10, f 16;
#X obj 68 528 bp~ 1000 10, f 16;
#X obj 68 584 bp~ 1300 10, f 16;
#X obj 63 642 bp~ 1600 10, f 16;
#X obj 63 698 bp~ 2000 10, f 16;
#X obj 56 752 bp~ 3500 10, f 16;
#X obj 57 806 bp~ 5000 10, f 16;
#X obj 58 860 bp~ 8000 10, f 16;
#X obj 58 914 hip~ 10000, f 16;
#X obj 47 112 +~;
#X obj 69 165 delwrite~ 100hz 2000;
#X obj 66 224 delwrite~ 150hz 2000;
#X obj 67 333 delwrite~ 350hz 2000;
#X obj 71 389 delwrite~ 500hz 2000;
#X obj 68 442 delwrite~ 630hz 2000;
#X obj 65 278 delwrite~ 250hz 2000;
#X obj 67 500 delwrite~ 800hz 2000;
#X obj 67 553 delwrite~ 1000hz 2000;
#X obj 58 939 delwrite~ 10000hz 2000;
#X obj 56 882 delwrite~ 8000hz 2000;
#X obj 54 834 delwrite~ 5000hz 2000;
#X obj 57 779 delwrite~ 3500hz 2000;
#X obj 60 729 delwrite~ 2000hz 2000;
#X obj 64 670 delwrite~ 1600hz 2000;
#X obj 69 611 delwrite~ 1300hz 2000;
#X obj 300 882 delread4~ 5000hz;
#X obj 300 909 delread4~ 8000hz;
#X obj 297 939 delread4~ 10000hz;
#X obj 285 548 delread4~ 100hz;
#X obj 285 573 delread4~ 150hz;
#X obj 285 599 delread4~ 250hz;
#X obj 288 626 delread4~ 350hz;
#X obj 292 651 delread4~ 500hz;
#X obj 294 680 delread4~ 630hz;
#X obj 297 707 delread4~ 800hz;
#X obj 293 734 delread4~ 1000hz;
#X obj 294 761 delread4~ 1300hz;
#X obj 292 790 delread4~ 1600hz;
#X obj 294 817 delread4~ 2000hz;
#X obj 297 850 delread4~ 3500hz;
#X obj 304 133 random 2000;
#X obj 304 158 random 2000;
#X obj 304 186 random 2000;
#X obj 305 211 random 2000;
#X obj 308 236 random 2000;
#X obj 310 265 random 2000;
#X obj 311 291 random 2000;
#X obj 307 322 random 2000;
#X obj 266 133 bng 19 250 50 0 empty empty empty 0 -10 0 12 #fcfcfc #000000 #000000;
#X obj 309 347 random 2000;
#X obj 306 373 random 2000;
#X obj 308 403 random 2000;
#X obj 311 438 random 2000;
#X obj 315 468 random 2000;
#X obj 312 495 random 2000;
#X obj 313 524 random 2000;
#X obj 266 78 tgl 19 0 empty empty empty 0 -10 0 12 #fcfcfc #000000 #000000 0 1;
#X msg 240 570 \$1;
#X obj 244 393 vsl 19 162 0 100 0 0 empty empty empty 0 -9 0 12 #fcfcfc #000000 #000000 0 1;
#X obj 267 104 metro 10000;
#X obj 284 986 *~ 1;
#X obj 442 131 lop~ 100;
#X obj 440 189 bp~ 150 10, f 16;
#X obj 441 246 bp~ 250 10, f 16;
#X obj 440 303 bp~ 350 10, f 16;
#X obj 444 353 bp~ 500 10, f 16;
#X obj 444 413 bp~ 630 10, f 16;
#X obj 441 470 bp~ 800 10, f 16;
#X obj 442 523 bp~ 1000 10, f 16;
#X obj 442 579 bp~ 1300 10, f 16;
#X obj 437 637 bp~ 1600 10, f 16;
#X obj 437 693 bp~ 2000 10, f 16;
#X obj 430 747 bp~ 3500 10, f 16;
#X obj 431 801 bp~ 5000 10, f 16;
#X obj 432 855 bp~ 8000 10, f 16;
#X obj 432 909 hip~ 10000, f 16;
#X obj 421 107 +~;
#X obj 678 128 random 2000;
#X obj 678 153 random 2000;
#X obj 678 181 random 2000;
#X obj 679 206 random 2000;
#X obj 682 231 random 2000;
#X obj 684 260 random 2000;
#X obj 685 286 random 2000;
#X obj 681 317 random 2000;
#X obj 640 128 bng 19 250 50 0 empty empty empty 0 -10 0 12 #fcfcfc #000000 #000000;
#X obj 683 342 random 2000;
#X obj 680 368 random 2000;
#X obj 682 398 random 2000;
#X obj 685 433 random 2000;
#X obj 689 463 random 2000;
#X obj 686 490 random 2000;
#X obj 687 519 random 2000;
#X msg 614 565 \$1;
#X obj 618 388 vsl 19 162 0 100 0 0 empty empty empty 0 -9 0 12 #fcfcfc #000000 #000000 0 1;
#X obj 590 996 *~ 1;
#X obj 443 160 delwrite~ 100hzr 2000;
#X obj 440 219 delwrite~ 150hzr 2000;
#X obj 439 273 delwrite~ 250hzr 2000;
#X obj 441 328 delwrite~ 350hzr 2000;
#X obj 445 384 delwrite~ 500hzr 2000;
#X obj 442 437 delwrite~ 630hzr 2000;
#X obj 441 495 delwrite~ 800hzr 2000;
#X obj 441 548 delwrite~ 1000hzr 2000;
#X obj 443 606 delwrite~ 1300hzr 2000;
#X obj 438 665 delwrite~ 1600hzr 2000;
#X obj 434 724 delwrite~ 2000hzr 2000;
#X obj 431 774 delwrite~ 3500hzr 2000;
#X obj 428 829 delwrite~ 5000hzr 2000;
#X obj 430 877 delwrite~ 8000hzr 2000;
#X obj 432 934 delwrite~ 10000hzr 2000;
#X obj 671 934 delread4~ 10000hzr;
#X obj 674 904 delread4~ 8000hzr;
#X obj 674 877 delread4~ 5000hzr;
#X obj 671 845 delread4~ 3500hzr;
#X obj 668 812 delread4~ 2000hzr;
#X obj 666 785 delread4~ 1600hzr;
#X obj 668 756 delread4~ 1300hzr;
#X obj 667 729 delread4~ 1000hzr;
#X obj 671 702 delread4~ 800hzr;
#X obj 668 675 delread4~ 630hzr;
#X obj 666 646 delread4~ 500hzr;
#X obj 662 621 delread4~ 350hzr;
#X obj 659 594 delread4~ 250hzr;
#X obj 659 568 delread4~ 150hzr;
#X obj 659 543 delread4~ 100hzr;
#X obj 787 391 vsl 19 162 0 100 0 0 empty empty empty 0 -9 0 12 #fcfcfc #000000 #000000 0 1;
#X obj 787 328 loadbang;
#X msg 787 358 50;
#X obj 288 48 catch~ tospec;
#X obj 368 1038 outlet~;
#X obj 468 1040 outlet~;
#X obj 415 33 loadbang;
#X obj 860 313 inlet;
#X connect 0 0 16 0;
#X connect 1 0 17 0;
#X connect 2 0 21 0;
#X connect 3 0 18 0;
#X connect 4 0 19 0;
#X connect 5 0 20 0;
#X connect 6 0 22 0;
#X connect 7 0 23 0;
#X connect 8 0 30 0;
#X connect 9 0 29 0;
#X connect 10 0 28 0;
#X connect 11 0 27 0;
#X connect 12 0 26 0;
#X connect 13 0 25 0;
#X connect 14 0 24 0;
#X connect 15 0 0 0;
#X connect 15 0 1 0;
#X connect 15 0 2 0;
#X connect 15 0 3 0;
#X connect 15 0 4 0;
#X connect 15 0 5 0;
#X connect 15 0 6 0;
#X connect 15 0 7 0;
#X connect 15 0 8 0;
#X connect 15 0 9 0;
#X connect 15 0 10 0;
#X connect 15 0 11 0;
#X connect 15 0 12 0;
#X connect 15 0 13 0;
#X connect 15 0 14 0;
#X connect 31 0 66 0;
#X connect 32 0 66 0;
#X connect 33 0 66 0;
#X connect 34 0 66 0;
#X connect 35 0 66 0;
#X connect 36 0 66 0;
#X connect 37 0 66 0;
#X connect 38 0 66 0;
#X connect 39 0 66 0;
#X connect 40 0 66 0;
#X connect 41 0 66 0;
#X connect 42 0 66 0;
#X connect 43 0 66 0;
#X connect 44 0 66 0;
#X connect 45 0 66 0;
#X connect 46 0 34 0;
#X connect 47 0 35 0;
#X connect 48 0 36 0;
#X connect 49 0 37 0;
#X connect 50 0 38 0;
#X connect 51 0 39 0;
#X connect 52 0 40 0;
#X connect 53 0 41 0;
#X connect 54 0 48 0;
#X connect 54 0 53 0;
#X connect 54 0 52 0;
#X connect 54 0 51 0;
#X connect 54 0 50 0;
#X connect 54 0 49 0;
#X connect 54 0 47 0;
#X connect 54 0 46 0;
#X connect 54 0 55 0;
#X connect 54 0 61 0;
#X connect 54 0 60 0;
#X connect 54 0 59 0;
#X connect 54 0 58 0;
#X connect 54 0 57 0;
#X connect 54 0 56 0;
#X connect 55 0 42 0;
#X connect 56 0 43 0;
#X connect 57 0 44 0;
#X connect 58 0 45 0;
#X connect 59 0 31 0;
#X connect 60 0 32 0;
#X connect 61 0 33 0;
#X connect 62 0 65 0;
#X connect 63 0 8 2;
#X connect 63 0 7 2;
#X connect 63 0 1 2;
#X connect 63 0 13 2;
#X connect 63 0 12 2;
#X connect 63 0 11 2;
#X connect 63 0 10 2;
#X connect 63 0 9 2;
#X connect 63 0 6 2;
#X connect 63 0 5 2;
#X connect 63 0 4 2;
#X connect 63 0 3 2;
#X connect 63 0 2 2;
#X connect 64 0 63 0;
#X connect 65 0 54 0;
#X connect 65 0 91 0;
#X connect 66 0 136 0;
#X connect 67 0 102 0;
#X connect 68 0 103 0;
#X connect 69 0 104 0;
#X connect 70 0 105 0;
#X connect 71 0 106 0;
#X connect 72 0 107 0;
#X connect 73 0 108 0;
#X connect 74 0 109 0;
#X connect 75 0 110 0;
#X connect 76 0 111 0;
#X connect 77 0 112 0;
#X connect 78 0 113 0;
#X connect 79 0 114 0;
#X connect 80 0 115 0;
#X connect 81 0 116 0;
#X connect 82 0 67 0;
#X connect 82 0 68 0;
#X connect 82 0 69 0;
#X connect 82 0 70 0;
#X connect 82 0 71 0;
#X connect 82 0 72 0;
#X connect 82 0 73 0;
#X connect 82 0 74 0;
#X connect 82 0 75 0;
#X connect 82 0 76 0;
#X connect 82 0 77 0;
#X connect 82 0 78 0;
#X connect 82 0 79 0;
#X connect 82 0 80 0;
#X connect 82 0 81 0;
#X connect 83 0 131 0;
#X connect 84 0 130 0;
#X connect 85 0 129 0;
#X connect 86 0 128 0;
#X connect 87 0 127 0;
#X connect 88 0 126 0;
#X connect 89 0 125 0;
#X connect 90 0 124 0;
#X connect 91 0 85 0;
#X connect 91 0 90 0;
#X connect 91 0 89 0;
#X connect 91 0 88 0;
#X connect 91 0 87 0;
#X connect 91 0 86 0;
#X connect 91 0 84 0;
#X connect 91 0 83 0;
#X connect 91 0 92 0;
#X connect 91 0 98 0;
#X connect 91 0 97 0;
#X connect 91 0 96 0;
#X connect 91 0 95 0;
#X connect 91 0 94 0;
#X connect 91 0 93 0;
#X connect 92 0 123 0;
#X connect 93 0 122 0;
#X connect 94 0 121 0;
#X connect 95 0 120 0;
#X connect 96 0 119 0;
#X connect 97 0 118 0;
#X connect 98 0 117 0;
#X connect 99 0 75 2;
#X connect 99 0 74 2;
#X connect 99 0 68 2;
#X connect 99 0 80 2;
#X connect 99 0 79 2;
#X connect 99 0 78 2;
#X connect 99 0 77 2;
#X connect 99 0 76 2;
#X connect 99 0 73 2;
#X connect 99 0 72 2;
#X connect 99 0 71 2;
#X connect 99 0 70 2;
#X connect 99 0 69 2;
#X connect 100 0 99 0;
#X connect 101 0 137 0;
#X connect 117 0 101 0;
#X connect 118 0 101 0;
#X connect 119 0 101 0;
#X connect 120 0 101 0;
#X connect 121 0 101 0;
#X connect 122 0 101 0;
#X connect 123 0 101 0;
#X connect 124 0 101 0;
#X connect 125 0 101 0;
#X connect 126 0 101 0;
#X connect 127 0 101 0;
#X connect 128 0 101 0;
#X connect 129 0 101 0;
#X connect 130 0 101 0;
#X connect 131 0 101 0;
#X connect 132 0 64 0;
#X connect 132 0 100 0;
#X connect 133 0 134 0;
#X connect 134 0 132 0;
#X connect 135 0 82 0;
#X connect 135 0 15 0;
#X connect 138 0 54 0;
#X connect 138 0 91 0;
#X connect 139 0 132 0;
#X restore 452 527 pd spec;
#X obj 487 355 vsl 19 162 0 100 0 0 empty empty empty 0 -9 0 12 #fcfcfc #000000 #000000 0 1;
#X obj 749 705 vsl 19 162 0 1 0 0 empty empty empty 0 -9 0 12 #fcfcfc #000000 #000000 0 1;
#X obj 749 900 line~;
#X msg 749 875 \$1 50;
#X obj 561 691 *~;
#X obj 374 730 *~;
#X obj 537 346 vsl 19 162 0 1 0 0 empty empty empty 0 -9 0 12 #fcfcfc #000000 #000000 0 1;
#X obj 530 549 line~;
#X msg 533 522 \$1 50;
#X obj 337 731 *~;
#X obj 640 771 clip~ -1 1;
#X obj 644 894 -~;
#X obj 671 857 /~ 5;
#X obj 670 827 pow~ 5;
#X obj 641 748 *~ 1;
#X obj 553 771 clip~ -1 1;
#X obj 555 955 -~;
#X obj 584 857 /~ 5;
#X obj 583 827 pow~ 5;
#X obj 554 748 *~ 1;
#X msg 492 653 20;
#X obj 149 772 strec;
#X msg 439 654 1000;
#X msg 391 651 98;
#X obj 236 295 * 1000;
#X obj 1305 543 scope;
#X obj 1413 545 scope;
#X obj 589 951 *~ 1;
#X obj 629 948 *~ 1;
#X obj 354 500 *~ 0.8;
#X obj 1646 462 osc~ 0.1;
#X obj 1573 437 +~ 1;
#X obj 1578 494 /~ 2;
#X obj 1592 597 dac~ 1 2;
#X obj 1519 540 *~;
#X obj 1541 352 noise~, f 10;
#X obj 1720 376 osc~ 0.001;
#X obj 1566 519 pow~ 0.1;
#X obj 1720 417 *~ 1;
#X obj 1604 552 *~ 0;
#X obj 235 249 random 100000;
#X connect 0 0 85 0;
#X connect 0 1 78 0;
#X connect 3 0 4 0;
#X connect 5 0 3 0;
#X connect 6 0 44 0;
#X connect 7 0 43 0;
#X connect 7 0 14 0;
#X connect 8 0 10 0;
#X connect 8 1 9 0;
#X connect 9 0 35 1;
#X connect 10 0 19 0;
#X connect 10 0 43 1;
#X connect 10 0 49 0;
#X connect 11 0 15 0;
#X connect 12 0 11 0;
#X connect 13 0 68 0;
#X connect 14 0 110 0;
#X connect 15 0 8 0;
#X connect 20 0 22 0;
#X connect 21 0 24 0;
#X connect 22 0 25 0;
#X connect 23 0 24 1;
#X connect 23 0 22 1;
#X connect 24 0 26 0;
#X connect 25 0 29 0;
#X connect 25 0 32 0;
#X connect 26 0 33 0;
#X connect 26 0 34 0;
#X connect 27 0 36 0;
#X connect 28 0 59 0;
#X connect 28 1 74 0;
#X connect 28 1 77 0;
#X connect 29 0 30 0;
#X connect 30 0 31 0;
#X connect 31 0 35 0;
#X connect 32 0 27 0;
#X connect 32 1 27 2;
#X connect 33 0 29 0;
#X connect 33 1 29 1;
#X connect 34 0 27 0;
#X connect 34 1 27 1;
#X connect 35 0 45 0;
#X connect 36 0 42 0;
#X connect 36 1 39 0;
#X connect 36 2 37 0;
#X connect 37 0 38 0;
#X connect 38 0 7 0;
#X connect 39 0 41 0;
#X connect 39 1 40 0;
#X connect 40 0 38 0;
#X connect 41 0 38 0;
#X connect 42 0 38 0;
#X connect 43 0 6 0;
#X connect 44 0 5 0;
#X connect 45 0 27 0;
#X connect 45 0 53 1;
#X connect 46 0 47 0;
#X connect 47 0 45 0;
#X connect 47 1 45 1;
#X connect 48 0 7 0;
#X connect 49 0 48 0;
#X connect 49 0 22 0;
#X connect 49 0 24 0;
#X connect 50 0 53 0;
#X connect 51 0 28 0;
#X connect 52 0 50 1;
#X connect 52 0 63 0;
#X connect 53 0 51 0;
#X connect 54 0 55 0;
#X connect 55 0 18 0;
#X connect 56 0 57 0;
#X connect 57 0 17 0;
#X connect 58 0 105 0;
#X connect 59 0 38 0;
#X connect 59 0 60 0;
#X connect 60 0 50 0;
#X connect 60 1 38 0;
#X connect 61 0 90 0;
#X connect 61 1 86 0;
#X connect 61 2 90 0;
#X connect 61 3 86 0;
#X connect 62 0 13 0;
#X connect 63 0 64 0;
#X connect 64 0 53 0;
#X connect 65 0 67 0;
#X connect 66 0 79 0;
#X connect 66 0 86 0;
#X connect 66 0 90 0;
#X connect 67 0 61 0;
#X connect 67 0 90 0;
#X connect 68 0 6 0;
#X connect 69 0 70 0;
#X connect 70 0 61 1;
#X connect 70 0 86 0;
#X connect 71 0 104 0;
#X connect 71 0 103 0;
#X connect 71 0 101 0;
#X connect 72 0 66 0;
#X connect 72 0 61 0;
#X connect 72 0 61 1;
#X connect 73 0 56 0;
#X connect 73 0 46 0;
#X connect 73 0 54 0;
#X connect 73 0 121 0;
#X connect 74 0 73 0;
#X connect 75 0 74 1;
#X connect 76 0 73 0;
#X connect 77 0 76 0;
#X connect 78 0 95 0;
#X connect 80 0 65 0;
#X connect 80 1 69 0;
#X connect 81 0 80 0;
#X connect 82 0 84 0;
#X connect 83 0 78 1;
#X connect 83 0 85 1;
#X connect 84 0 83 0;
#X connect 85 0 100 0;
#X connect 86 0 102 1;
#X connect 87 0 89 0;
#X connect 88 0 86 1;
#X connect 88 0 90 1;
#X connect 89 0 88 0;
#X connect 90 0 102 0;
#X connect 91 0 92 0;
#X connect 91 0 94 0;
#X connect 92 0 109 0;
#X connect 93 0 92 1;
#X connect 94 0 93 0;
#X connect 95 0 91 0;
#X connect 96 0 97 0;
#X connect 96 0 99 0;
#X connect 97 0 108 0;
#X connect 98 0 97 1;
#X connect 99 0 98 0;
#X connect 100 0 96 0;
#X connect 101 0 61 5;
#X connect 102 0 0 0;
#X connect 102 1 0 1;
#X connect 103 0 61 4;
#X connect 104 0 61 2;
#X connect 104 0 61 3;
#X connect 105 0 46 0;
#X connect 108 0 1 0;
#X connect 108 0 106 0;
#X connect 109 0 1 1;
#X connect 109 0 107 0;
#X connect 110 0 72 0;
#X connect 111 0 112 0;
#X connect 112 0 113 0;
#X connect 113 0 118 0;
#X connect 115 0 120 0;
#X connect 116 0 115 0;
#X connect 117 0 119 0;
#X connect 118 0 115 1;
#X connect 119 0 111 0;
#X connect 120 0 114 0;
#X connect 120 0 114 1;
#X connect 121 0 58 0;
