#N canvas 953 0 958 1100 12;
#X obj 45 27 adc~ 1 2;
#X obj 33 110 scope;
#X obj 162 109 scope;
#X obj 47 63 dac~ 1 2;
#X floatatom 787 211 5 0 0 1 beat_time - - 0;
#X floatatom 759 232 5 0 0 1 phase - - 0;
#X msg 628 185 \; pd dsp 1;
#X floatatom 732 260 5 0 0 1 step - - 0;
#X floatatom 815 189 5 0 0 1 tempo - - 0;
#X obj 722 90 tgl 15 0 empty empty empty 17 7 0 10 #fcfcfc #000000 #000000 0 1;
#X obj 732 148 abl_link~ 1 0 4 134;
#X msg 722 111 connect \$1;
#X floatatom 840 279 5 0 0 0 - - - 0;
#X obj 840 257 r #abl_link_num_peers;
#X floatatom 843 170 5 0 0 1 is_playing - - 0;
#X floatatom 812 89 5 0 0 0 - - - 0;
#X msg 812 108 offset \$1;
#X obj 816 416 change;
#X obj 819 457 bng 19 250 50 0 empty empty empty 0 -10 0 12 #fcfcfc #000000 #000000;
#X obj 709 625 *~;
#X obj 793 593 line~;
#X obj 737 723 dac~ 1 2;
#X obj 819 320 / 4;
#X obj 819 352 * 16;
#X obj 819 386 int;
#X msg 813 59 -28;
#X obj 817 495 random 2;
#X obj 812 529 sel 0 1;
#X msg 867 563 1 \, 0 200;
#X msg 798 562 1 \, 0 20;
#X obj -320 1289 lop~ 100;
#X obj -250 1289 bp~ 150 10, f 16;
#X obj 614 1892 dac~ 1 2;
#X obj -123 1286 bp~ 250 10, f 16;
#X obj 6 1286 bp~ 350 10, f 16;
#X obj 133 1283 bp~ 500 10, f 16;
#X obj 271 1283 bp~ 630 10, f 16;
#X obj 426 1284 bp~ 800 10, f 16;
#X obj 566 1281 bp~ 1000 10, f 16;
#X obj 708 1277 bp~ 1300 10, f 16;
#X obj 840 1275 bp~ 1600 10, f 16;
#X obj 980 1272 bp~ 2000 10, f 16;
#X obj 1122 1268 bp~ 3500 10, f 16;
#X obj 1256 1271 bp~ 5000 10, f 16;
#X obj 1393 1273 bp~ 8000 10, f 16;
#X obj 481 1815 scope;
#X obj 1529 1273 hip~ 10000, f 16;
#X obj 476 1010 +~;
#X obj -312 1367 delwrite~ 100hz 2000;
#X obj -252 1337 delwrite~ 150hz 2000;
#X obj -49 1358 delwrite~ 350hz 2000;
#X obj 136 1375 delwrite~ 500hz 2000;
#X obj 196 1345 delwrite~ 630hz 2000;
#X obj -109 1388 delwrite~ 250hz 2000;
#X obj 430 1383 delwrite~ 800hz 2000;
#X obj 561 1337 delwrite~ 1000hz 2000;
#X obj 1511 1391 delwrite~ 10000hz 2000;
#X obj 1323 1345 delwrite~ 8000hz 2000;
#X obj 1234 1386 delwrite~ 5000hz 2000;
#X obj 1083 1336 delwrite~ 3500hz 2000;
#X obj 994 1377 delwrite~ 2000hz 2000;
#X obj 839 1320 delwrite~ 1600hz 2000;
#X obj 717 1372 delwrite~ 1300hz 2000;
#X obj 1248 1635 delread4~ 5000hz;
#X obj 1386 1635 delread4~ 8000hz;
#X obj 1512 1636 delread4~ 10000hz;
#X obj -231 1641 delread4~ 100hz;
#X obj -116 1641 delread4~ 150hz;
#X obj 3 1639 delread4~ 250hz;
#X obj 123 1638 delread4~ 350hz;
#X obj 239 1638 delread4~ 500hz;
#X obj 368 1638 delread4~ 630hz;
#X obj 492 1639 delread4~ 800hz;
#X obj 609 1633 delread4~ 1000hz;
#X obj 734 1632 delread4~ 1300hz;
#X obj 860 1632 delread4~ 1600hz;
#X obj 984 1633 delread4~ 2000hz;
#X obj 1119 1633 delread4~ 3500hz;
#X obj -53 1578 random 2000;
#X obj 35 1577 random 2000;
#X obj 127 1577 random 2000;
#X obj 215 1576 random 2000;
#X obj 314 1572 random 2000;
#X obj 402 1571 random 2000;
#X obj 494 1571 random 2000;
#X obj 582 1570 random 2000;
#X obj 507 1506 bng 19 250 50 0 empty empty empty 0 -10 0 12 #fcfcfc #000000 #000000;
#X obj 683 1564 random 2000;
#X obj 771 1563 random 2000;
#X obj 863 1563 random 2000;
#X obj 951 1562 random 2000;
#X obj 1050 1558 random 2000;
#X obj 1138 1557 random 2000;
#X obj 1230 1557 random 2000;
#X obj 629 1836 rev3~, f 20;
#X obj 507 1451 tgl 19 0 empty empty empty 0 -10 0 12 #fcfcfc #000000 #000000 0 1;
#X obj 508 1477 metro 3000;
#X msg 736 1790 50;
#X msg 707 1773 2000;
#X msg 708 1009 \$1;
#X obj 705 820 vsl 19 162 0 100 0 0 empty empty empty 0 -9 0 12 #fcfcfc #000000 #000000 0 1;
#X msg 662 1789 98;
#X obj 550 1726 *~ 1;
#X obj 587 1754 hip~ 500;
#X obj 704 669 *~ 0.05;
#X obj 707 589 osc~ 15000;
#X obj 589 1781 *~ 0.5;
#X connect 0 0 1 0;
#X connect 0 0 3 0;
#X connect 0 1 2 0;
#X connect 0 1 3 1;
#X connect 0 1 47 0;
#X connect 5 0 22 0;
#X connect 9 0 11 0;
#X connect 10 0 7 0;
#X connect 10 1 5 0;
#X connect 10 2 4 0;
#X connect 10 3 8 0;
#X connect 11 0 10 0;
#X connect 13 0 12 0;
#X connect 15 0 16 0;
#X connect 16 0 10 0;
#X connect 17 0 18 0;
#X connect 18 0 26 0;
#X connect 19 0 104 0;
#X connect 20 0 19 1;
#X connect 22 0 23 0;
#X connect 23 0 24 0;
#X connect 24 0 17 0;
#X connect 25 0 15 0;
#X connect 26 0 27 0;
#X connect 27 0 29 0;
#X connect 27 1 28 0;
#X connect 28 0 20 0;
#X connect 29 0 20 0;
#X connect 30 0 48 0;
#X connect 31 0 49 0;
#X connect 33 0 53 0;
#X connect 34 0 50 0;
#X connect 35 0 51 0;
#X connect 36 0 52 0;
#X connect 37 0 54 0;
#X connect 38 0 55 0;
#X connect 39 0 62 0;
#X connect 40 0 61 0;
#X connect 41 0 60 0;
#X connect 42 0 59 0;
#X connect 43 0 58 0;
#X connect 44 0 57 0;
#X connect 46 0 56 0;
#X connect 47 0 30 0;
#X connect 47 0 31 0;
#X connect 47 0 33 0;
#X connect 47 0 34 0;
#X connect 47 0 35 0;
#X connect 47 0 36 0;
#X connect 47 0 37 0;
#X connect 47 0 38 0;
#X connect 47 0 39 0;
#X connect 47 0 40 0;
#X connect 47 0 41 0;
#X connect 47 0 42 0;
#X connect 47 0 43 0;
#X connect 47 0 44 0;
#X connect 47 0 46 0;
#X connect 63 0 102 0;
#X connect 64 0 102 0;
#X connect 65 0 102 0;
#X connect 66 0 102 0;
#X connect 67 0 102 0;
#X connect 68 0 102 0;
#X connect 69 0 102 0;
#X connect 70 0 102 0;
#X connect 71 0 102 0;
#X connect 72 0 102 0;
#X connect 73 0 102 0;
#X connect 74 0 102 0;
#X connect 75 0 102 0;
#X connect 76 0 102 0;
#X connect 77 0 102 0;
#X connect 78 0 66 0;
#X connect 79 0 67 0;
#X connect 80 0 68 0;
#X connect 81 0 69 0;
#X connect 82 0 70 0;
#X connect 83 0 71 0;
#X connect 84 0 72 0;
#X connect 85 0 73 0;
#X connect 86 0 80 0;
#X connect 86 0 85 0;
#X connect 86 0 84 0;
#X connect 86 0 83 0;
#X connect 86 0 82 0;
#X connect 86 0 81 0;
#X connect 86 0 79 0;
#X connect 86 0 78 0;
#X connect 86 0 87 0;
#X connect 86 0 93 0;
#X connect 86 0 92 0;
#X connect 86 0 91 0;
#X connect 86 0 90 0;
#X connect 86 0 89 0;
#X connect 86 0 88 0;
#X connect 87 0 74 0;
#X connect 88 0 75 0;
#X connect 89 0 76 0;
#X connect 90 0 77 0;
#X connect 91 0 63 0;
#X connect 92 0 64 0;
#X connect 93 0 65 0;
#X connect 94 0 32 0;
#X connect 94 1 32 1;
#X connect 94 2 32 0;
#X connect 94 3 32 1;
#X connect 95 0 96 0;
#X connect 96 0 86 0;
#X connect 97 0 94 5;
#X connect 98 0 94 4;
#X connect 99 0 39 2;
#X connect 99 0 38 2;
#X connect 99 0 31 2;
#X connect 99 0 44 2;
#X connect 99 0 43 2;
#X connect 99 0 42 2;
#X connect 99 0 41 2;
#X connect 99 0 40 2;
#X connect 99 0 37 2;
#X connect 99 0 36 2;
#X connect 99 0 35 2;
#X connect 99 0 34 2;
#X connect 99 0 33 2;
#X connect 100 0 99 0;
#X connect 101 0 94 2;
#X connect 101 0 94 3;
#X connect 102 0 103 0;
#X connect 103 0 45 0;
#X connect 103 0 106 0;
#X connect 104 0 21 0;
#X connect 104 0 21 1;
#X connect 105 0 19 0;
#X connect 106 0 32 0;
#X connect 106 0 32 1;
#X connect 106 0 94 0;
#X connect 106 0 94 1;
