#N canvas 9 9 1902 1139 12;
#X declare -lib Gem;
#X obj 113 92 gemhead;
#X obj 113 160 scaleXYZ;
#X msg 187 123 1.74545;
#X obj 186 394 scopeXYZ~;
#X obj 113 197 separator;
#X obj 191 228 hilbert~;
#X obj 118 62 gemwin;
#X obj 199 306 *~;
#X obj 241 307 *~;
#X obj 190 199 osc~ 100;
#X msg 154 35 fullscreen 2;
#X obj 35 196 separator;
#X obj 38 227 circle 4;
#X msg -36 196 draw line;
#X obj 256 254 +~;
#X obj 293 535 separator;
#X obj 314 648 rectangle 40 0.01;
#X obj 318 605 rectangle 0.01 40;
#X obj 301 506 translateXYZ;
#X obj 280 464 separator;
#X floatatom 370 421 5 0 0 0 - - - 0;
#X obj 367 400 / 100;
#X obj 365 320 bng 19 250 50 0 empty empty empty 0 -10 0 12 #fcfcfc #000000 #000000;
#X floatatom 452 418 5 0 0 0 - - - 0;
#X obj 449 397 / 100;
#X obj 374 254 tgl 19 0 empty empty empty 0 -10 0 12 #fcfcfc #000000 #000000 0 1;
#X obj 353 466 line;
#X obj 416 470 line;
#X msg 360 445 \$1 1000;
#X msg 417 446 \$1 1000;
#X floatatom 521 588 5 0 0 0 - - - 0;
#X obj 471 550 * 100;
#X obj 519 555 * 100;
#X msg 280 194 length 4800;
#X obj 180 712 textextruded;
#X obj 178 537 separator;
#X msg 116 687 depth 0;
#X obj 375 561 pack 0 0;
#X msg 276 713 justify left;
#X obj 176 605 translateXYZ;
#X obj 470 521 + 3;
#X obj 518 526 + 3;
#X obj 578 -41 loadbang;
#X msg 274 93 1;
#X obj 372 535 + 0.5;
#X obj 424 533 + 0.5;
#X obj 250 564 + 0.2;
#X obj 197 567 + 0.05;
#X msg 189 59 destroy;
#X msg 125 9 reset \, create \, 1;
#X msg 180 687 font C:/Users/throw/OneDrive/Desktop/peg-holes.ttf;
#X obj 117 457 sys_gui;
#X msg 116 428 menu_clear_console;
#X obj 27 399 t b b b b b b;
#X obj -37 56 print -n;
#X obj 45 460 int;
#X obj 57 306 tgl 19 0 empty empty empty 0 -10 0 12 #fcfcfc #000000 #000000 0 1;
#X obj -7 256 vsl 19 162 0 6 0 0 empty empty empty 0 -9 0 12 #fcfcfc #000000 #000000 0 1;
#X obj -37 30 list trim;
#X obj -35 5 list prepend sl1:;
#X obj 11 702 print -n;
#X obj 54 349 metro 44;
#X msg 48 516 █;
#X msg 46 543 ██;
#X msg 49 568 ███;
#X msg 51 593 ████;
#X msg 49 622 █████;
#X msg 49 647 ██████;
#X msg 44 675 ███████;
#X obj 47 488 sel 0 1 2 3 4 5 6;
#X floatatom 74 460 5 0 0 0 - - - 0;
#X obj 566 492 line;
#X obj 567 549 change;
#X obj 566 520 > 0;
#X obj 568 578 tgl 19 0 empty empty empty 0 -10 0 12 #fcfcfc #000000 #000000 0 1;
#X msg 566 457 1 \, 0 30;
#X obj 519 464 bang;
#X obj 691 202 accumrotate;
#X msg 706 92 set \$1;
#X msg 656 154 -0.891825;
#X obj 761 35 separator;
#X msg 699 244 draw line;
#X msg 764 89 set \$1;
#X msg 750 157 -0.945551;
#X msg 825 88 set \$1;
#X msg 811 156 -0.997945;
#X obj 733 348 osc~ 0.1;
#X obj 747 444 snapshot~;
#X obj 757 70 bang;
#X obj 824 443 snapshot~;
#X obj 904 443 snapshot~;
#X obj 822 349 osc~ 0.13;
#X obj 900 348 osc~ 0.12;
#X msg 408 79 frame 120;
#X obj 930 774 square;
#X obj 918 704 accumrotate;
#X msg 922 624 set \$1;
#X msg 901 652 -0.9415;
#X obj 672 543 separator;
#X msg 958 743 draw line;
#X msg 980 621 set \$1;
#X msg 995 655 -0.880014;
#X msg 1041 620 set \$1;
#X msg 1056 654 -0.977019;
#X obj 889 491 osc~ 0.1;
#X obj 903 587 snapshot~;
#X obj 666 593 bang;
#X obj 980 586 snapshot~;
#X obj 1060 586 snapshot~;
#X obj 978 492 osc~ 0.13;
#X obj 1056 491 osc~ 0.12;
#X obj 1163 402 accumrotate;
#X msg 1196 288 set \$1;
#X msg 1146 350 0.962718;
#X obj 921 102 separator;
#X msg 1189 440 draw line;
#X msg 1254 285 set \$1;
#X msg 1240 353 0.963047;
#X msg 1315 284 set \$1;
#X msg 1301 352 -0.577213;
#X obj 1152 251 snapshot~;
#X obj 916 153 bang;
#X obj 1229 250 snapshot~;
#X obj 1309 250 snapshot~;
#X obj 671 275 square 0.5;
#X obj 1161 471 square 1.5;
#X obj 1138 155 osc~ 0.01;
#X obj 1227 156 osc~ 0.013;
#X obj 1305 155 osc~ 0.012;
#X obj 799 -17 == 0;
#X obj 865 -25 == 1;
#X obj 939 33 == 2;
#X obj 664 501 spigot;
#X obj 904 61 spigot;
#X obj 760 5 spigot;
#X floatatom 948 -21 5 0 0 0 - - - 0;
#X obj 604 599 sel 1;
#X obj 1080 28 metro 100;
#X obj 1083 -15 tgl 19 0 empty empty empty 0 -10 0 12 #fcfcfc #000000 #000000 0 1;
#X obj 1137 84 +;
#X msg 1137 58 1;
#X obj 1171 90 % 3;
#X msg 261 657 4;
#X obj 363 351 random 300;
#X obj 445 348 random 300;
#X obj 445 375 - 100;
#X obj 363 378 - 100;
#X obj 433 892 declare -lib Gem;
#X obj 1325 872 scope;
#X obj 1454 873 scope;
#X obj 1455 787 adc~ 5 6;
#X obj 273 225 sig~ 2;
#X obj 1331 642 dac~ 1 2 3 4;
#X obj 843 962 *~ 2;
#X obj 834 1003 -~ 1;
#X obj 764 1081 scopeXYZ~;
#X obj 708 964 separator;
#X obj 840 910 phasor~ 100;
#X msg 881 835 length 480;
#X obj 822 1038 *~ 4;
#X obj 593 1004 color 1 0 0;
#X obj 1425 484 *~ 0.05;
#X obj 839 716 loadbang;
#X obj 1576 576 comport;
#X msg 1576 539 devices;
#X msg 1686 541 open 8 112500;
#X obj 1529 226 vsl 19 50 -5 5 0 0 empty empty empty 0 -9 0 12 #fcfcfc #000000 #000000 0 1;
#X obj 1528 309 list fromsymbol;
#X obj 1529 285 makefilename %f;
#X obj 1527 335 list prepend 111 117 116 112 117 116 91 49 93 46 118 111 108 116 115 32 61 32, f 16;
#X obj 1615 513 list append 13;
#X obj 1601 105 vsl 19 50 -5 5 0 0 empty empty empty 0 -9 0 12 #fcfcfc #000000 #000000 0 1;
#X obj 1700 265 list fromsymbol;
#X obj 1699 243 makefilename %f;
#X obj 1578 226 vsl 19 50 -5 5 0 0 empty empty empty 0 -9 0 12 #fcfcfc #000000 #000000 0 1;
#X obj 1577 400 list fromsymbol;
#X obj 1578 379 makefilename %f;
#X obj 1603 225 vsl 19 50 -5 5 0 0 empty empty empty 0 -9 0 12 #fcfcfc #000000 #000000 0 1;
#X obj 1697 403 list fromsymbol;
#X obj 1698 379 makefilename %f;
#X obj 1698 293 list prepend 111 117 116 112 117 116 91 50 93 46 118 111 108 116 115 32 61 32, f 16;
#X obj 1577 430 list prepend 111 117 116 112 117 116 91 51 93 46 118 111 108 116 115 32 61 32, f 16;
#X obj 1697 430 list prepend 111 117 116 112 117 116 91 52 93 46 118 111 108 116 115 32 61 32, f 16;
#X msg 1637 540 close;
#X msg 1697 174 99 114 111 119 46 114 101 115 101 116 40 41, f 19;
#X obj 1514 658 rev3~, f 24;
#X obj 1652 823 *~ 0.2;
#X obj 1514 607 *~ 0.5;
#X obj 1518 706 *~ 0.05;
#X obj 1582 701 *~ 0.05;
#X obj 530 632 / 100;
#X floatatom 465 591 5 0 0 0 - - - 0;
#X obj 474 635 / 100;
#X obj 369 291 metro 1000;
#X msg 1572 628 98;
#X connect 0 0 1 0;
#X connect 1 0 4 0;
#X connect 2 0 1 1;
#X connect 4 0 3 0;
#X connect 4 0 19 0;
#X connect 4 0 35 0;
#X connect 4 0 132 0;
#X connect 4 0 133 0;
#X connect 4 0 134 0;
#X connect 4 0 156 0;
#X connect 5 0 7 0;
#X connect 5 1 8 0;
#X connect 7 0 3 1;
#X connect 8 0 3 2;
#X connect 9 0 5 0;
#X connect 10 0 6 0;
#X connect 11 0 12 0;
#X connect 13 0 12 0;
#X connect 14 0 8 1;
#X connect 14 0 7 1;
#X connect 15 0 16 0;
#X connect 15 0 17 0;
#X connect 18 0 15 0;
#X connect 19 0 18 0;
#X connect 20 0 28 0;
#X connect 21 0 20 0;
#X connect 22 0 143 0;
#X connect 22 0 144 0;
#X connect 23 0 29 0;
#X connect 24 0 23 0;
#X connect 25 0 193 0;
#X connect 26 0 18 1;
#X connect 26 0 40 0;
#X connect 26 0 44 0;
#X connect 26 0 47 0;
#X connect 27 0 18 2;
#X connect 27 0 41 0;
#X connect 27 0 45 0;
#X connect 27 0 46 0;
#X connect 27 0 76 0;
#X connect 28 0 26 0;
#X connect 29 0 27 0;
#X connect 30 0 190 0;
#X connect 31 0 191 0;
#X connect 32 0 9 0;
#X connect 32 0 30 0;
#X connect 33 0 3 0;
#X connect 35 0 39 0;
#X connect 36 0 34 0;
#X connect 37 0 34 0;
#X connect 38 0 34 0;
#X connect 39 0 34 0;
#X connect 40 0 31 0;
#X connect 41 0 32 0;
#X connect 42 0 33 0;
#X connect 42 0 2 0;
#X connect 42 0 50 0;
#X connect 42 0 142 0;
#X connect 42 0 36 0;
#X connect 42 0 13 0;
#X connect 42 0 38 0;
#X connect 42 0 81 0;
#X connect 42 0 99 0;
#X connect 42 0 115 0;
#X connect 43 0 1 1;
#X connect 44 0 37 0;
#X connect 45 0 37 1;
#X connect 46 0 39 2;
#X connect 47 0 39 1;
#X connect 48 0 6 0;
#X connect 49 0 6 0;
#X connect 50 0 34 0;
#X connect 52 0 51 0;
#X connect 53 3 55 0;
#X connect 53 5 52 0;
#X connect 55 0 69 0;
#X connect 55 0 70 0;
#X connect 56 0 61 0;
#X connect 57 0 55 1;
#X connect 58 0 54 0;
#X connect 59 0 58 0;
#X connect 61 0 53 0;
#X connect 62 0 60 0;
#X connect 63 0 60 0;
#X connect 64 0 60 0;
#X connect 65 0 60 0;
#X connect 66 0 60 0;
#X connect 67 0 60 0;
#X connect 68 0 60 0;
#X connect 69 0 62 0;
#X connect 69 1 63 0;
#X connect 69 2 64 0;
#X connect 69 3 65 0;
#X connect 69 4 66 0;
#X connect 69 5 67 0;
#X connect 69 6 68 0;
#X connect 71 0 73 0;
#X connect 72 0 74 0;
#X connect 72 0 136 0;
#X connect 73 0 72 0;
#X connect 75 0 71 0;
#X connect 76 0 75 0;
#X connect 77 0 124 0;
#X connect 78 0 79 0;
#X connect 79 0 77 1;
#X connect 80 0 77 0;
#X connect 80 0 88 0;
#X connect 81 0 124 0;
#X connect 82 0 83 0;
#X connect 83 0 77 2;
#X connect 84 0 85 0;
#X connect 85 0 77 3;
#X connect 86 0 87 0;
#X connect 87 0 78 0;
#X connect 88 0 87 0;
#X connect 88 0 79 0;
#X connect 88 0 83 0;
#X connect 88 0 85 0;
#X connect 88 0 89 0;
#X connect 88 0 90 0;
#X connect 89 0 82 0;
#X connect 90 0 84 0;
#X connect 91 0 89 0;
#X connect 92 0 90 0;
#X connect 93 0 6 0;
#X connect 95 0 94 0;
#X connect 96 0 97 0;
#X connect 97 0 95 1;
#X connect 98 0 95 0;
#X connect 98 0 106 0;
#X connect 99 0 94 0;
#X connect 100 0 101 0;
#X connect 101 0 95 2;
#X connect 102 0 103 0;
#X connect 103 0 95 3;
#X connect 104 0 105 0;
#X connect 105 0 96 0;
#X connect 106 0 105 0;
#X connect 106 0 97 0;
#X connect 106 0 101 0;
#X connect 106 0 103 0;
#X connect 106 0 107 0;
#X connect 106 0 108 0;
#X connect 107 0 100 0;
#X connect 108 0 102 0;
#X connect 109 0 107 0;
#X connect 110 0 108 0;
#X connect 111 0 125 0;
#X connect 112 0 113 0;
#X connect 113 0 111 1;
#X connect 114 0 111 0;
#X connect 114 0 121 0;
#X connect 115 0 125 0;
#X connect 116 0 117 0;
#X connect 117 0 111 2;
#X connect 118 0 119 0;
#X connect 119 0 111 3;
#X connect 120 0 112 0;
#X connect 121 0 120 0;
#X connect 121 0 113 0;
#X connect 121 0 117 0;
#X connect 121 0 119 0;
#X connect 121 0 122 0;
#X connect 121 0 123 0;
#X connect 122 0 116 0;
#X connect 123 0 118 0;
#X connect 126 0 120 0;
#X connect 127 0 122 0;
#X connect 128 0 123 0;
#X connect 129 0 134 1;
#X connect 130 0 132 1;
#X connect 131 0 133 1;
#X connect 132 0 98 0;
#X connect 133 0 114 0;
#X connect 134 0 80 0;
#X connect 137 0 140 0;
#X connect 138 0 137 0;
#X connect 139 0 141 0;
#X connect 140 0 139 0;
#X connect 141 0 139 1;
#X connect 141 0 131 0;
#X connect 141 0 130 0;
#X connect 141 0 129 0;
#X connect 142 0 34 1;
#X connect 143 0 146 0;
#X connect 144 0 145 0;
#X connect 145 0 24 0;
#X connect 146 0 21 0;
#X connect 150 0 148 0;
#X connect 150 0 14 0;
#X connect 150 0 161 0;
#X connect 150 0 187 0;
#X connect 150 1 149 0;
#X connect 150 1 155 1;
#X connect 150 1 161 0;
#X connect 151 0 14 1;
#X connect 153 0 154 0;
#X connect 154 0 159 0;
#X connect 156 0 160 0;
#X connect 157 0 153 0;
#X connect 158 0 155 0;
#X connect 159 0 155 2;
#X connect 160 0 155 0;
#X connect 161 0 152 0;
#X connect 161 0 152 1;
#X connect 161 0 152 2;
#X connect 161 0 152 3;
#X connect 162 0 158 0;
#X connect 164 0 163 0;
#X connect 165 0 163 0;
#X connect 166 0 168 0;
#X connect 167 0 169 0;
#X connect 168 0 167 0;
#X connect 169 0 170 0;
#X connect 170 0 163 0;
#X connect 171 0 173 0;
#X connect 172 0 180 0;
#X connect 173 0 172 0;
#X connect 174 0 176 0;
#X connect 175 0 181 0;
#X connect 176 0 175 0;
#X connect 177 0 179 0;
#X connect 178 0 182 0;
#X connect 179 0 178 0;
#X connect 180 0 170 0;
#X connect 181 0 170 0;
#X connect 182 0 170 0;
#X connect 183 0 163 0;
#X connect 184 0 163 0;
#X connect 185 0 188 0;
#X connect 185 1 189 0;
#X connect 187 0 185 0;
#X connect 187 0 185 1;
#X connect 188 0 152 0;
#X connect 188 0 152 2;
#X connect 189 0 152 1;
#X connect 189 0 152 3;
#X connect 190 0 166 0;
#X connect 190 0 174 0;
#X connect 191 0 192 0;
#X connect 192 0 171 0;
#X connect 192 0 177 0;
#X connect 193 0 22 0;
#X connect 194 0 185 2;
#X connect 194 0 185 3;
