#N canvas -39 -16 1920 1157 12;
#X obj 324 210 noise~;
#X obj 335 387 samphold~;
#X obj 394 324 *~ -1;
#X obj 393 351 +~ 1;
#X obj 336 463 snapshot~;
#X floatatom 332 512 5 0 0 0 - - - 0;
#X obj 254 403 bang~;
#X obj 456 382 scope;
#X obj 487 218 expr~ $v1 < 0.1;
#X obj 347 423 +~ 1;
#X obj 419 508 /~ 2;
#X obj 518 729 phasor~;
#X obj 526 669 /~ 60;
#X obj 503 769 throw~ bpm;
#X obj 479 176 catch~ bpm;
#X obj 334 638 osc~;
#X obj 485 607 +~ 33;
#X obj 419 532 *~ 200;
#X obj 363 561 mtof~;
#X obj 180 1011 scope;
#X obj 849 203 noise~;
#X obj 860 380 samphold~;
#X obj 919 317 *~ -1;
#X obj 918 344 +~ 1;
#X obj 861 456 snapshot~;
#X floatatom 857 505 5 0 0 0 - - - 0;
#X obj 779 396 bang~;
#X obj 981 375 scope;
#X obj 1012 211 expr~ $v1 < 0.1;
#X obj 872 416 +~ 1;
#X obj 944 501 /~ 2;
#X obj 1043 722 phasor~;
#X obj 1051 662 /~ 60;
#X obj 856 584 mtof~;
#X obj 1028 762 throw~ bpm2;
#X obj 1011 180 catch~ bpm2;
#X obj 853 617 phasor~;
#X obj 334 666 *~;
#X obj 846 647 *~ -1;
#X obj 843 682 +~ 1;
#X obj 290 831 *~ 0.2;
#X obj 1329 227 noise~;
#X obj 1340 404 samphold~;
#X obj 1399 341 *~ -1;
#X obj 1398 368 +~ 1;
#X obj 1341 480 snapshot~;
#X floatatom 1337 529 5 0 0 0 - - - 0;
#X obj 1259 420 bang~;
#X obj 1461 399 scope;
#X obj 1492 235 expr~ $v1 < 0.1;
#X obj 1352 440 +~ 1;
#X obj 1424 525 /~ 2;
#X obj 1523 746 phasor~;
#X obj 1531 686 /~ 60;
#X obj 1490 624 +~ 33;
#X obj 1336 608 mtof~;
#X obj 1489 202 catch~ pan;
#X obj 1508 786 throw~ pan;
#X obj 1333 641 osc~;
#X obj 1332 669 +~ 1;
#X obj 1332 701 /~ 2;
#X obj 1301 790 *~ -1;
#X obj 1315 869 +~ 1;
#X obj 1199 815 *~;
#X obj 1246 825 *~;
#X obj 365 836 *~ 0.2;
#X obj 1424 549 *~ 100;
#X obj 484 856 rev3~, f 33;
#X obj 191 634 lop~ 10;
#X obj 173 699 *~;
#X obj 263 691 *~;
#X msg 662 792 98;
#X obj 853 548 *~ 2000;
#X obj 1010 600 +~ 1;
#X obj 944 525 *~ 100;
#X obj 346 602 lop~ 20;
#X obj 622 229 bang~;
#X obj 591 356 change;
#X obj 582 299 snapshot~;
#X obj 598 423 sel 1;
#X obj 601 460 bng 19 250 50 0 empty empty empty 0 -10 0 12 #fcfcfc #000000 #000000;
#X obj 625 633 *~ 0.5;
#X obj 696 632 *~ 0.5;
#X obj 611 562 osc~ 40;
#X obj 625 603 *~;
#X obj 688 562 line~;
#X msg 671 468 1 \, 0 1000;
#X obj 667 500 line~;
#X msg 692 530 1 \, 0 500;
#X obj 1145 223 bang~;
#X obj 1114 350 change;
#X obj 1105 293 snapshot~;
#X obj 1121 417 sel 1;
#X obj 1124 454 bng 19 250 50 0 empty empty empty 0 -10 0 12 #fcfcfc #000000 #000000;
#X obj 1148 627 *~ 0.5;
#X obj 1219 626 *~ 0.5;
#X obj 1148 597 *~;
#X obj 1211 556 line~;
#X obj 1120 544 osc~ 10000;
#X msg 1215 524 1 \, 0 10;
#X obj 1690 212 bang~;
#X obj 1659 339 change;
#X obj 1650 282 snapshot~;
#X obj 1666 406 sel 1;
#X obj 1669 443 bng 19 250 50 0 empty empty empty 0 -10 0 12 #fcfcfc #000000 #000000;
#X obj 485 892 *~ 1;
#X obj 556 891 *~ 1;
#X obj 331 1016 scope;
#X obj 665 994 strec;
#X obj 792 1134 dac~ 1 2;
#X obj 1099 1078 *~;
#X obj 1137 1080 *~;
#X obj 1189 915 vsl 19 162 0 1 0 0 empty empty empty 0 -9 0 12 #fcfcfc #000000 #000000 0 1;
#X msg 1192 1095 \$1 20;
#X obj 1254 1045 line~;
#X connect 0 0 1 0;
#X connect 1 0 9 0;
#X connect 2 0 3 0;
#X connect 3 0 1 1;
#X connect 4 0 5 0;
#X connect 6 0 4 0;
#X connect 8 0 2 0;
#X connect 8 0 7 0;
#X connect 8 0 78 0;
#X connect 9 0 10 0;
#X connect 10 0 17 0;
#X connect 10 0 68 0;
#X connect 11 0 13 0;
#X connect 12 0 11 0;
#X connect 12 0 4 0;
#X connect 14 0 8 0;
#X connect 15 0 37 0;
#X connect 16 0 12 0;
#X connect 17 0 16 0;
#X connect 17 0 18 0;
#X connect 18 0 75 0;
#X connect 20 0 21 0;
#X connect 21 0 29 0;
#X connect 22 0 23 0;
#X connect 23 0 21 1;
#X connect 24 0 25 0;
#X connect 26 0 24 0;
#X connect 28 0 22 0;
#X connect 28 0 27 0;
#X connect 28 0 91 0;
#X connect 29 0 30 0;
#X connect 30 0 72 0;
#X connect 30 0 74 0;
#X connect 31 0 34 0;
#X connect 32 0 31 0;
#X connect 32 0 24 0;
#X connect 33 0 36 0;
#X connect 35 0 28 0;
#X connect 36 0 38 0;
#X connect 37 0 63 0;
#X connect 37 0 64 0;
#X connect 38 0 39 0;
#X connect 39 0 37 1;
#X connect 40 0 69 0;
#X connect 40 0 19 0;
#X connect 40 0 108 0;
#X connect 41 0 42 0;
#X connect 42 0 50 0;
#X connect 43 0 44 0;
#X connect 44 0 42 1;
#X connect 45 0 46 0;
#X connect 47 0 45 0;
#X connect 49 0 43 0;
#X connect 49 0 48 0;
#X connect 49 0 102 0;
#X connect 50 0 51 0;
#X connect 51 0 66 0;
#X connect 52 0 57 0;
#X connect 53 0 52 0;
#X connect 53 0 45 0;
#X connect 54 0 53 0;
#X connect 55 0 58 0;
#X connect 56 0 49 0;
#X connect 58 0 59 0;
#X connect 59 0 60 0;
#X connect 60 0 61 0;
#X connect 60 0 63 1;
#X connect 61 0 62 0;
#X connect 62 0 64 1;
#X connect 63 0 40 0;
#X connect 64 0 65 0;
#X connect 65 0 70 0;
#X connect 65 0 107 0;
#X connect 65 0 108 1;
#X connect 66 0 54 0;
#X connect 66 0 55 0;
#X connect 67 0 105 0;
#X connect 67 1 106 0;
#X connect 68 0 69 1;
#X connect 68 0 70 1;
#X connect 69 0 67 0;
#X connect 70 0 67 1;
#X connect 71 0 67 2;
#X connect 71 0 67 3;
#X connect 72 0 33 0;
#X connect 73 0 32 0;
#X connect 74 0 73 0;
#X connect 75 0 15 0;
#X connect 76 0 78 0;
#X connect 77 0 79 0;
#X connect 78 0 77 0;
#X connect 79 0 80 0;
#X connect 80 0 88 0;
#X connect 81 0 108 0;
#X connect 82 0 108 1;
#X connect 83 0 84 0;
#X connect 84 0 81 0;
#X connect 84 0 82 0;
#X connect 85 0 84 1;
#X connect 86 0 87 0;
#X connect 88 0 85 0;
#X connect 89 0 91 0;
#X connect 90 0 92 0;
#X connect 91 0 90 0;
#X connect 92 0 93 0;
#X connect 93 0 99 0;
#X connect 94 0 67 0;
#X connect 94 0 108 0;
#X connect 95 0 67 1;
#X connect 95 0 108 1;
#X connect 96 0 94 0;
#X connect 96 0 95 0;
#X connect 97 0 96 1;
#X connect 98 0 96 0;
#X connect 99 0 97 0;
#X connect 100 0 102 0;
#X connect 101 0 103 0;
#X connect 102 0 101 0;
#X connect 103 0 104 0;
#X connect 104 0 93 0;
#X connect 105 0 108 0;
#X connect 106 0 107 0;
#X connect 106 0 108 1;
#X connect 108 0 110 0;
#X connect 108 1 111 0;
#X connect 110 0 109 0;
#X connect 111 0 109 1;
#X connect 112 0 113 0;
#X connect 113 0 114 0;
#X connect 114 0 111 1;
#X connect 114 0 110 1;
