#N canvas 376 217 1920 1157 12;
#X obj 158 182 midiout;
#X obj 15 19 sysexin;
#X obj 16 46 print;
#X msg 95 69 240 0 1 106 1 127 247;
#X msg 353 94 240 0 1 106 1 3 0 56 0 57 0 58 0 59 0 60 0 61 0 62 247;
#X obj 463 219 ctlin;
#X obj 454 269 pack 0 0 0;
#X obj 537 235 print;
#X obj 54 188 list tosymbol;
#X msg 167 129 240 0 1 106 1 3 0 56 0 57 0 58 0 59 0 60 0 61 0 62 247;
#X msg 128 96 240 0 1 106 1 5 0 1 1 247;
#X msg 328 34 240 0 1 106 1 3 0 56 0 57 0 58 0 59 0 60 0 61 0 62 247;
#X msg 340 162 240 0 1 106 1 14 1 247;
#X msg 248 3 240 0 1 106 1 9 0 79 0 80 0 81 0 82 0 83 0 84 247;
#X obj 171 379 ctlin;
#X obj 169 414 pack 0 0 0;
#X msg 169 442 \$3 \$2 \$1;
#X obj 169 469 route 1;
#X msg 120 592 -1;
#X msg 160 585 1;
#X obj 133 621 +;
#X obj 131 651 clip 0 127;
#X floatatom 133 679 5 0 0 0 - - - 0;
#X obj 110 559 sel 127 1;
#X msg 204 590 -1;
#X msg 244 583 1;
#X obj 217 619 +;
#X obj 215 649 clip 0 127;
#X floatatom 217 677 5 0 0 0 - - - 0;
#X obj 194 557 sel 127 1;
#X msg 296 589 -1;
#X msg 336 582 1;
#X obj 309 618 +;
#X obj 307 648 clip 0 127;
#X floatatom 309 676 5 0 0 0 - - - 0;
#X obj 286 556 sel 127 1;
#X msg 380 587 -1;
#X msg 420 580 1;
#X obj 393 616 +;
#X floatatom 393 674 5 0 0 0 - - - 0;
#X obj 370 554 sel 127 1;
#X msg 472 584 -1;
#X msg 512 577 1;
#X obj 485 613 +;
#X obj 483 643 clip 0 127;
#X floatatom 485 671 5 0 0 0 - - - 0;
#X obj 462 551 sel 127 1;
#X msg 558 586 -1;
#X msg 598 579 1;
#X obj 571 615 +;
#X floatatom 571 673 5 0 0 0 - - - 0;
#X obj 548 553 sel 127 1;
#X obj 686 693 noteout;
#X msg 689 630 45 \$1 1;
#X obj 675 653 unpack 0 0 0;
#X obj 695 599 tgl 19 0 empty empty empty 0 -10 0 12 #fcfcfc #000000 #000000 0 127;
#X obj 783 693 noteout;
#X obj 772 653 unpack 0 0 0;
#X obj 792 599 tgl 19 0 empty empty empty 0 -10 0 12 #fcfcfc #000000 #000000 0 127;
#X msg 786 630 46 \$1 1;
#X obj 886 694 noteout;
#X obj 875 654 unpack 0 0 0;
#X obj 895 600 tgl 19 0 empty empty empty 0 -10 0 12 #fcfcfc #000000 #000000 0 127;
#X obj 983 694 noteout;
#X obj 972 654 unpack 0 0 0;
#X obj 992 600 tgl 19 0 empty empty empty 0 -10 0 12 #fcfcfc #000000 #000000 0 127;
#X msg 889 631 47 \$1 1;
#X msg 986 631 48 \$1 1;
#X obj 1078 692 noteout;
#X obj 1067 652 unpack 0 0 0;
#X obj 1175 692 noteout;
#X obj 1164 652 unpack 0 0 0;
#X obj 1184 598 tgl 19 0 empty empty empty 0 -10 0 12 #fcfcfc #000000 #000000 0 127;
#X msg 1081 629 49 \$1 1;
#X msg 1178 629 50 \$1 1;
#X msg 188 317 240 0 1 106 1 15 1 247;
#X obj 452 362 vsl 19 162 0 127 0 0 empty empty empty 0 -9 0 12 #fcfcfc #000000 #000000 0 1;
#X obj 492 363 vsl 19 162 0 127 0 0 empty empty empty 0 -9 0 12 #fcfcfc #000000 #000000 0 1;
#X msg 370 64 240 0 1 106 1 7 21 21 247;
#X obj 672 260 notein;
#X obj 668 301 pack 0 0 0;
#X msg 694 364 \$3 \$1 \$2;
#X obj 693 410 route 1;
#X obj 686 448 route 45 46 47 48 49 50;
#X obj 648 503 sel 127;
#X obj 710 504 sel 127;
#X obj 770 505 sel 127;
#X obj 832 506 sel 127;
#X obj 902 510 sel 127;
#X obj 964 511 sel 127;
#X msg 662 887 1;
#X obj 669 1102 noteout;
#X msg 662 1045 1 \$1 1;
#X obj 662 1072 unpack 0 0 0;
#X obj 660 997 tabread buttonset1;
#N canvas 0 50 450 250 (subpatch) 0;
#X array buttonset1 33 float 3;
#A 0 75.8479 0 0 0 0 0 0 0 0 0 0 0 0 0 0 0 0 0 0 0 0 0 0 0 0 0 0 0 0 0 0 0 0;
#X coords 0 127 33 0 556 144 1 0 0;
#X restore 1616 -232 graph;
#X obj 888 397 s buttonset1;
#X obj 533 358 vsl 19 162 0 127 0 0 empty empty empty 0 -9 0 12 #fcfcfc #000000 #000000 0 1;
#X obj 573 359 vsl 19 162 0 127 0 0 empty empty empty 0 -9 0 12 #fcfcfc #000000 #000000 0 1;
#X obj 610 356 vsl 19 162 0 127 0 0 empty empty empty 0 -9 0 12 #fcfcfc #000000 #000000 0 1;
#X obj 169 493 route 57 58 59 60 61 62 51 52 53 54 55;
#X obj 809 1100 noteout;
#X obj 802 1070 unpack 0 0 0;
#X obj 800 995 tabread buttonset1;
#X msg 802 885 2;
#X msg 802 1043 2 \$1 1;
#X obj 950 1100 noteout;
#X obj 943 1070 unpack 0 0 0;
#X obj 941 995 tabread buttonset1;
#X obj 1090 1098 noteout;
#X obj 1083 1068 unpack 0 0 0;
#X obj 1081 993 tabread buttonset1;
#X msg 943 885 3;
#X msg 1083 883 4;
#X msg 943 1043 3 \$1 1;
#X msg 1083 1041 4 \$1 1;
#X obj 1229 1100 noteout;
#X obj 1222 1070 unpack 0 0 0;
#X obj 1220 995 tabread buttonset1;
#X obj 1369 1098 noteout;
#X obj 1362 1068 unpack 0 0 0;
#X obj 1360 993 tabread buttonset1;
#X obj 1510 1098 noteout;
#X obj 1503 1068 unpack 0 0 0;
#X obj 1501 993 tabread buttonset1;
#X obj 1650 1096 noteout;
#X obj 1643 1066 unpack 0 0 0;
#X obj 1641 991 tabread buttonset1;
#X msg 1222 885 5;
#X msg 1362 883 6;
#X msg 1503 883 7;
#X msg 1643 881 8;
#X msg 1643 1039 8 \$1 1;
#X msg 1503 1041 7 \$1 1;
#X msg 1362 1041 6 \$1 1;
#X msg 1222 1043 5 \$1 1;
#X obj 889 196 * 127;
#X obj 894 139 tgl 19 0 empty empty empty 0 -10 0 12 #fcfcfc #000000 #000000 0 1;
#X obj 938 197 * 127;
#X obj 943 140 tgl 19 0 empty empty empty 0 -10 0 12 #fcfcfc #000000 #000000 0 1;
#X obj 1576 775 tgl 19 0 empty empty empty 0 -10 0 12 #fcfcfc #000000 #000000 0 1;
#X obj 989 192 * 127;
#X obj 994 135 tgl 19 0 empty empty empty 0 -10 0 12 #fcfcfc #000000 #000000 0 1;
#X obj 1038 193 * 127;
#X obj 1043 136 tgl 19 0 empty empty empty 0 -10 0 12 #fcfcfc #000000 #000000 0 1;
#X obj 1091 193 * 127;
#X obj 1096 136 tgl 19 0 empty empty empty 0 -10 0 12 #fcfcfc #000000 #000000 0 1;
#X obj 1140 194 * 127;
#X obj 1145 137 tgl 19 0 empty empty empty 0 -10 0 12 #fcfcfc #000000 #000000 0 1;
#X obj 1191 189 * 127;
#X obj 1196 132 tgl 19 0 empty empty empty 0 -10 0 12 #fcfcfc #000000 #000000 0 1;
#X obj 1240 190 * 127;
#X obj 1245 133 tgl 19 0 empty empty empty 0 -10 0 12 #fcfcfc #000000 #000000 0 1;
#X obj 833 26 sel 127;
#X obj 895 27 sel 127;
#X obj 955 28 sel 127;
#X obj 1017 29 sel 127;
#X obj 1087 33 sel 127;
#X obj 1149 34 sel 127;
#X obj 1222 31 sel 127;
#X obj 1284 32 sel 127;
#X obj 664 944 +;
#X obj 801 939 +;
#X obj 943 947 +;
#X obj 1080 942 +;
#X obj 1218 943 +;
#X obj 1355 938 +;
#X obj 1497 946 +;
#X obj 1634 941 +;
#X obj 1301 189 * 127;
#X obj 1306 132 tgl 19 0 empty empty empty 0 -10 0 12 #fcfcfc #000000 #000000 0 1;
#X obj 1350 190 * 127;
#X obj 1355 133 tgl 19 0 empty empty empty 0 -10 0 12 #fcfcfc #000000 #000000 0 1;
#X obj 1401 185 * 127;
#X obj 1406 128 tgl 19 0 empty empty empty 0 -10 0 12 #fcfcfc #000000 #000000 0 1;
#X obj 1450 186 * 127;
#X obj 1455 129 tgl 19 0 empty empty empty 0 -10 0 12 #fcfcfc #000000 #000000 0 1;
#X obj 1503 186 * 127;
#X obj 1508 129 tgl 19 0 empty empty empty 0 -10 0 12 #fcfcfc #000000 #000000 0 1;
#X obj 1552 187 * 127;
#X obj 1557 130 tgl 19 0 empty empty empty 0 -10 0 12 #fcfcfc #000000 #000000 0 1;
#X obj 1603 182 * 127;
#X obj 1608 125 tgl 19 0 empty empty empty 0 -10 0 12 #fcfcfc #000000 #000000 0 1;
#X obj 1652 183 * 127;
#X obj 1657 126 tgl 19 0 empty empty empty 0 -10 0 12 #fcfcfc #000000 #000000 0 1;
#X obj 1233 -129 +;
#X obj 1222 -163 unpack 0 0;
#X obj 1238 -87 pack 0 0;
#X obj 788 259 list prepend 1;
#X obj 908 255 list prepend 2;
#X obj 1020 259 list prepend 3;
#X obj 1140 255 list prepend 4;
#X obj 1258 253 list prepend 5;
#X obj 1378 249 list prepend 6;
#X obj 1490 253 list prepend 7;
#X obj 1610 249 list prepend 8;
#X obj 1356 29 sel 127;
#X obj 1418 30 sel 127;
#X obj 1478 31 sel 127;
#X obj 1540 32 sel 127;
#X obj 1610 36 sel 127;
#X obj 1672 37 sel 127;
#X obj 1745 34 sel 127;
#X obj 1807 35 sel 127;
#X obj 943 317 list prepend 9;
#X obj 1063 313 list prepend 10;
#X obj 1175 317 list prepend 11;
#X obj 1295 313 list prepend 12;
#X obj 1413 311 list prepend 13;
#X obj 1533 307 list prepend 14;
#X obj 1645 311 list prepend 15;
#X obj 1765 307 list prepend 16;
#X obj 970 -164 route 1 2 3 4 5 6 7 8;
#X obj 670 -104 pack 0 1;
#X msg 955 -72 \$2 \$1;
#X obj 743 -105 pack 0 2;
#X obj 816 -105 pack 0 3;
#X obj 889 -106 pack 0 4;
#X obj 960 -107 pack 0 5;
#X obj 1033 -108 pack 0 6;
#X obj 1106 -108 pack 0 7;
#X obj 1179 -109 pack 0 8;
#X obj 1237 -54 route 1 2 3 4 5 6 7 8 9 10 11 12 13 14 15 16 17 18 19 20 21 22 23 24 25 26 27 28 29 30 31 32, f 225;
#X obj 1931 405 s buttonset1;
#X obj 1932 204 * 127;
#X obj 1937 147 tgl 19 0 empty empty empty 0 -10 0 12 #fcfcfc #000000 #000000 0 1;
#X obj 1981 205 * 127;
#X obj 1986 148 tgl 19 0 empty empty empty 0 -10 0 12 #fcfcfc #000000 #000000 0 1;
#X obj 2032 200 * 127;
#X obj 2037 143 tgl 19 0 empty empty empty 0 -10 0 12 #fcfcfc #000000 #000000 0 1;
#X obj 2081 201 * 127;
#X obj 2086 144 tgl 19 0 empty empty empty 0 -10 0 12 #fcfcfc #000000 #000000 0 1;
#X obj 2134 201 * 127;
#X obj 2139 144 tgl 19 0 empty empty empty 0 -10 0 12 #fcfcfc #000000 #000000 0 1;
#X obj 2183 202 * 127;
#X obj 2188 145 tgl 19 0 empty empty empty 0 -10 0 12 #fcfcfc #000000 #000000 0 1;
#X obj 2234 197 * 127;
#X obj 2239 140 tgl 19 0 empty empty empty 0 -10 0 12 #fcfcfc #000000 #000000 0 1;
#X obj 2283 198 * 127;
#X obj 2288 141 tgl 19 0 empty empty empty 0 -10 0 12 #fcfcfc #000000 #000000 0 1;
#X obj 1876 34 sel 127;
#X obj 1938 35 sel 127;
#X obj 1998 36 sel 127;
#X obj 2060 37 sel 127;
#X obj 2130 41 sel 127;
#X obj 2192 42 sel 127;
#X obj 2265 39 sel 127;
#X obj 2327 40 sel 127;
#X obj 2344 197 * 127;
#X obj 2349 140 tgl 19 0 empty empty empty 0 -10 0 12 #fcfcfc #000000 #000000 0 1;
#X obj 2393 198 * 127;
#X obj 2398 141 tgl 19 0 empty empty empty 0 -10 0 12 #fcfcfc #000000 #000000 0 1;
#X obj 2444 193 * 127;
#X obj 2449 136 tgl 19 0 empty empty empty 0 -10 0 12 #fcfcfc #000000 #000000 0 1;
#X obj 2493 194 * 127;
#X obj 2498 137 tgl 19 0 empty empty empty 0 -10 0 12 #fcfcfc #000000 #000000 0 1;
#X obj 2546 194 * 127;
#X obj 2551 137 tgl 19 0 empty empty empty 0 -10 0 12 #fcfcfc #000000 #000000 0 1;
#X obj 2595 195 * 127;
#X obj 2600 138 tgl 19 0 empty empty empty 0 -10 0 12 #fcfcfc #000000 #000000 0 1;
#X obj 2646 190 * 127;
#X obj 2651 133 tgl 19 0 empty empty empty 0 -10 0 12 #fcfcfc #000000 #000000 0 1;
#X obj 2695 191 * 127;
#X obj 2700 134 tgl 19 0 empty empty empty 0 -10 0 12 #fcfcfc #000000 #000000 0 1;
#X obj 2399 37 sel 127;
#X obj 2461 38 sel 127;
#X obj 2521 39 sel 127;
#X obj 2583 40 sel 127;
#X obj 2653 44 sel 127;
#X obj 2715 45 sel 127;
#X obj 2788 42 sel 127;
#X obj 2850 43 sel 127;
#X obj 1831 267 list prepend 17;
#X obj 1951 263 list prepend 18;
#X obj 2063 267 list prepend 19;
#X obj 2183 263 list prepend 20;
#X obj 2301 261 list prepend 21;
#X obj 2421 257 list prepend 22;
#X obj 2533 261 list prepend 23;
#X obj 2653 257 list prepend 24;
#X obj 1986 325 list prepend 25;
#X obj 2106 321 list prepend 26;
#X obj 2218 325 list prepend 27;
#X obj 2338 321 list prepend 28;
#X obj 2456 319 list prepend 29;
#X obj 2576 315 list prepend 30;
#X obj 2688 319 list prepend 31;
#X obj 2808 315 list prepend 32;
#N canvas 0 50 450 250 (subpatch) 0;
#X array buttonset2 33 float 3;
#A 0 75.8479 127 0 0 0 0 0 0 0 127 0 0 0 0 0 0 0 127 0 0 0 0 0 0 0 127 0 0 0 0 0 0 0;
#X coords 0 127 33 0 556 144 1 0 0;
#X restore 2204 -228 graph;
#X msg 1798 883 1;
#X obj 1805 1098 noteout;
#X obj 1798 1068 unpack 0 0 0;
#X obj 1945 1096 noteout;
#X obj 1938 1066 unpack 0 0 0;
#X msg 1938 881 2;
#X obj 2086 1096 noteout;
#X obj 2079 1066 unpack 0 0 0;
#X obj 2077 991 tabread buttonset1;
#X obj 2226 1094 noteout;
#X obj 2219 1064 unpack 0 0 0;
#X obj 2217 989 tabread buttonset1;
#X msg 2079 881 3;
#X msg 2219 879 4;
#X obj 2365 1096 noteout;
#X obj 2358 1066 unpack 0 0 0;
#X obj 2356 991 tabread buttonset1;
#X obj 2505 1094 noteout;
#X obj 2498 1064 unpack 0 0 0;
#X obj 2496 989 tabread buttonset1;
#X obj 2646 1094 noteout;
#X obj 2639 1064 unpack 0 0 0;
#X obj 2637 989 tabread buttonset1;
#X obj 2786 1092 noteout;
#X obj 2779 1062 unpack 0 0 0;
#X obj 2777 987 tabread buttonset1;
#X msg 2358 881 5;
#X msg 2498 879 6;
#X msg 2639 879 7;
#X msg 2779 877 8;
#X obj 1800 940 +;
#X obj 1937 935 +;
#X obj 2079 943 +;
#X obj 2216 938 +;
#X obj 2354 939 +;
#X obj 2491 934 +;
#X obj 2633 942 +;
#X obj 2770 937 +;
#X msg 1798 1041 9 \$1 1;
#X msg 1938 1039 10 \$1 1;
#X msg 2079 1039 11 \$1 1;
#X msg 2219 1037 12 \$1 1;
#X msg 2358 1039 13 \$1 1;
#X msg 2498 1037 14 \$1 1;
#X msg 2639 1037 15 \$1 1;
#X msg 2779 1035 16 \$1 1;
#X obj 2295 498 s buttonset2;
#X msg 2296 428 1 127 0 0 0 0 0 0 0 127 0 0 0 0 0 0 0 127 0 0 0 0 0 0 0 127 0 0 0 0 0 0 0;
#X obj 1796 993 tabread buttonset2;
#X obj 1936 991 tabread buttonset2;
#X msg 2309 816 set buttonset2;
#X msg 1846 117 0;
#X obj 425 882 +;
#X msg 411 850 1;
#X obj 462 884 %;
#X obj 414 718 + 2;
#X obj 391 646 clip 0 30;
#X floatatom 420 748 5 0 0 0 - - - 0;
#X obj 431 950 tabread buttonset1;
#X obj 390 793 metro 100;
#X obj 380 754 tgl 19 0 empty empty empty 0 -10 0 12 #fcfcfc #000000 #000000 0 1;
#X floatatom 460 913 5 0 0 0 - - - 0;
#X floatatom 434 986 5 0 0 0 - - - 0;
#X obj 430 1025 sel 127;
#X obj 498 1093 *~;
#X obj 514 1026 line~;
#X msg 516 995 1 \, 0 50;
#X obj 471 1130 dac~ 1 2;
#X obj 450 1063 bng 19 250 50 0 empty empty empty 0 -10 0 12 #fcfcfc #000000 #000000;
#X obj 498 924 + 1;
#X obj 1564 832 metro 20;
#X obj 569 645 clip 0 8;
#X obj 549 1064 osc~ 100;
#X connect 1 0 2 0;
#X connect 3 0 0 0;
#X connect 5 0 6 0;
#X connect 5 1 6 1;
#X connect 5 2 6 2;
#X connect 6 0 7 0;
#X connect 9 0 0 0;
#X connect 9 0 8 0;
#X connect 10 0 8 0;
#X connect 10 0 0 0;
#X connect 12 0 0 0;
#X connect 13 0 0 0;
#X connect 14 0 15 0;
#X connect 14 1 15 1;
#X connect 14 2 15 2;
#X connect 15 0 16 0;
#X connect 16 0 17 0;
#X connect 17 0 100 0;
#X connect 18 0 20 0;
#X connect 19 0 20 0;
#X connect 20 0 21 0;
#X connect 21 0 20 1;
#X connect 21 0 22 0;
#X connect 23 0 18 0;
#X connect 23 1 19 0;
#X connect 24 0 26 0;
#X connect 25 0 26 0;
#X connect 26 0 27 0;
#X connect 27 0 26 1;
#X connect 27 0 28 0;
#X connect 29 0 24 0;
#X connect 29 1 25 0;
#X connect 30 0 32 0;
#X connect 31 0 32 0;
#X connect 32 0 33 0;
#X connect 33 0 32 1;
#X connect 33 0 34 0;
#X connect 35 0 30 0;
#X connect 35 1 31 0;
#X connect 36 0 38 0;
#X connect 37 0 38 0;
#X connect 38 0 345 0;
#X connect 39 0 344 0;
#X connect 40 0 36 0;
#X connect 40 1 37 0;
#X connect 41 0 43 0;
#X connect 42 0 43 0;
#X connect 43 0 44 0;
#X connect 44 0 43 1;
#X connect 44 0 45 0;
#X connect 46 0 41 0;
#X connect 46 1 42 0;
#X connect 47 0 49 0;
#X connect 48 0 49 0;
#X connect 49 0 360 0;
#X connect 50 0 161 1;
#X connect 50 0 168 1;
#X connect 50 0 167 1;
#X connect 50 0 166 1;
#X connect 50 0 165 1;
#X connect 50 0 164 1;
#X connect 50 0 163 1;
#X connect 50 0 162 1;
#X connect 50 0 185 1;
#X connect 50 0 319 1;
#X connect 50 0 326 1;
#X connect 50 0 325 1;
#X connect 50 0 324 1;
#X connect 50 0 323 1;
#X connect 50 0 322 1;
#X connect 50 0 321 1;
#X connect 50 0 320 1;
#X connect 51 0 47 0;
#X connect 51 1 48 0;
#X connect 53 0 54 0;
#X connect 54 0 52 0;
#X connect 54 1 52 1;
#X connect 54 2 52 2;
#X connect 55 0 53 0;
#X connect 57 0 56 0;
#X connect 57 1 56 1;
#X connect 57 2 56 2;
#X connect 58 0 59 0;
#X connect 59 0 57 0;
#X connect 61 0 60 0;
#X connect 61 1 60 1;
#X connect 61 2 60 2;
#X connect 62 0 66 0;
#X connect 64 0 63 0;
#X connect 64 1 63 1;
#X connect 64 2 63 2;
#X connect 65 0 67 0;
#X connect 66 0 61 0;
#X connect 67 0 64 0;
#X connect 69 0 68 0;
#X connect 69 1 68 1;
#X connect 69 2 68 2;
#X connect 71 0 70 0;
#X connect 71 1 70 1;
#X connect 71 2 70 2;
#X connect 72 0 74 0;
#X connect 73 0 69 0;
#X connect 74 0 71 0;
#X connect 75 0 0 0;
#X connect 78 0 0 0;
#X connect 79 0 80 0;
#X connect 79 1 80 1;
#X connect 79 2 80 2;
#X connect 80 0 7 0;
#X connect 80 0 81 0;
#X connect 81 0 82 0;
#X connect 82 0 83 0;
#X connect 82 0 212 0;
#X connect 83 0 84 0;
#X connect 83 1 85 0;
#X connect 83 2 86 0;
#X connect 83 3 87 0;
#X connect 83 4 88 0;
#X connect 83 4 73 0;
#X connect 83 5 89 0;
#X connect 84 0 55 0;
#X connect 85 0 58 0;
#X connect 86 0 62 0;
#X connect 87 0 65 0;
#X connect 88 0 340 0;
#X connect 89 0 72 0;
#X connect 90 0 161 0;
#X connect 92 0 93 0;
#X connect 93 0 91 0;
#X connect 93 1 91 1;
#X connect 93 2 91 2;
#X connect 94 0 92 0;
#X connect 100 0 23 0;
#X connect 100 1 29 0;
#X connect 100 2 35 0;
#X connect 100 3 40 0;
#X connect 100 4 46 0;
#X connect 100 5 51 0;
#X connect 100 6 76 0;
#X connect 100 7 77 0;
#X connect 100 8 97 0;
#X connect 100 9 98 0;
#X connect 100 10 99 0;
#X connect 102 0 101 0;
#X connect 102 1 101 1;
#X connect 102 2 101 2;
#X connect 103 0 105 0;
#X connect 104 0 162 0;
#X connect 105 0 102 0;
#X connect 107 0 106 0;
#X connect 107 1 106 1;
#X connect 107 2 106 2;
#X connect 108 0 114 0;
#X connect 110 0 109 0;
#X connect 110 1 109 1;
#X connect 110 2 109 2;
#X connect 111 0 115 0;
#X connect 112 0 163 0;
#X connect 113 0 164 0;
#X connect 114 0 107 0;
#X connect 115 0 110 0;
#X connect 117 0 116 0;
#X connect 117 1 116 1;
#X connect 117 2 116 2;
#X connect 118 0 135 0;
#X connect 120 0 119 0;
#X connect 120 1 119 1;
#X connect 120 2 119 2;
#X connect 121 0 134 0;
#X connect 123 0 122 0;
#X connect 123 1 122 1;
#X connect 123 2 122 2;
#X connect 124 0 133 0;
#X connect 126 0 125 0;
#X connect 126 1 125 1;
#X connect 126 2 125 2;
#X connect 127 0 132 0;
#X connect 128 0 165 0;
#X connect 129 0 166 0;
#X connect 130 0 167 0;
#X connect 131 0 168 0;
#X connect 132 0 126 0;
#X connect 133 0 123 0;
#X connect 134 0 120 0;
#X connect 135 0 117 0;
#X connect 136 0 188 0;
#X connect 137 0 136 0;
#X connect 138 0 189 0;
#X connect 139 0 138 0;
#X connect 140 0 359 0;
#X connect 141 0 190 0;
#X connect 142 0 141 0;
#X connect 143 0 191 0;
#X connect 144 0 143 0;
#X connect 145 0 192 0;
#X connect 146 0 145 0;
#X connect 147 0 193 0;
#X connect 148 0 147 0;
#X connect 149 0 194 0;
#X connect 150 0 149 0;
#X connect 151 0 195 0;
#X connect 152 0 151 0;
#X connect 153 0 137 0;
#X connect 154 0 139 0;
#X connect 155 0 142 0;
#X connect 156 0 144 0;
#X connect 157 0 146 0;
#X connect 158 0 148 0;
#X connect 159 0 150 0;
#X connect 160 0 152 0;
#X connect 161 0 94 0;
#X connect 162 0 103 0;
#X connect 163 0 108 0;
#X connect 164 0 111 0;
#X connect 165 0 118 0;
#X connect 166 0 121 0;
#X connect 167 0 124 0;
#X connect 168 0 127 0;
#X connect 169 0 204 0;
#X connect 170 0 169 0;
#X connect 171 0 205 0;
#X connect 172 0 171 0;
#X connect 173 0 206 0;
#X connect 174 0 173 0;
#X connect 175 0 207 0;
#X connect 176 0 175 0;
#X connect 177 0 208 0;
#X connect 178 0 177 0;
#X connect 179 0 209 0;
#X connect 180 0 179 0;
#X connect 181 0 210 0;
#X connect 182 0 181 0;
#X connect 183 0 211 0;
#X connect 184 0 183 0;
#X connect 185 0 187 0;
#X connect 186 0 185 0;
#X connect 186 1 187 1;
#X connect 187 0 222 0;
#X connect 188 0 96 0;
#X connect 189 0 96 0;
#X connect 190 0 96 0;
#X connect 191 0 96 0;
#X connect 192 0 96 0;
#X connect 193 0 96 0;
#X connect 194 0 96 0;
#X connect 195 0 96 0;
#X connect 196 0 170 0;
#X connect 197 0 172 0;
#X connect 198 0 174 0;
#X connect 199 0 176 0;
#X connect 200 0 178 0;
#X connect 201 0 180 0;
#X connect 202 0 182 0;
#X connect 203 0 184 0;
#X connect 204 0 96 0;
#X connect 205 0 96 0;
#X connect 206 0 96 0;
#X connect 207 0 96 0;
#X connect 208 0 96 0;
#X connect 209 0 96 0;
#X connect 210 0 96 0;
#X connect 211 0 96 0;
#X connect 212 0 213 0;
#X connect 212 1 215 0;
#X connect 212 2 216 0;
#X connect 212 3 217 0;
#X connect 212 4 218 0;
#X connect 212 5 219 0;
#X connect 212 6 220 0;
#X connect 212 7 221 0;
#X connect 213 0 214 0;
#X connect 214 0 186 0;
#X connect 215 0 214 0;
#X connect 216 0 214 0;
#X connect 217 0 214 0;
#X connect 218 0 214 0;
#X connect 219 0 214 0;
#X connect 220 0 214 0;
#X connect 221 0 214 0;
#X connect 222 0 153 0;
#X connect 222 1 154 0;
#X connect 222 2 155 0;
#X connect 222 3 156 0;
#X connect 222 4 157 0;
#X connect 222 5 158 0;
#X connect 222 6 159 0;
#X connect 222 7 160 0;
#X connect 222 8 196 0;
#X connect 222 9 197 0;
#X connect 222 10 198 0;
#X connect 222 11 199 0;
#X connect 222 12 200 0;
#X connect 222 13 201 0;
#X connect 222 14 202 0;
#X connect 222 15 203 0;
#X connect 222 16 240 0;
#X connect 222 17 241 0;
#X connect 222 18 242 0;
#X connect 222 19 243 0;
#X connect 222 20 244 0;
#X connect 222 21 245 0;
#X connect 222 22 246 0;
#X connect 222 23 247 0;
#X connect 222 24 264 0;
#X connect 222 25 265 0;
#X connect 222 26 266 0;
#X connect 222 27 267 0;
#X connect 222 28 268 0;
#X connect 222 29 269 0;
#X connect 222 30 270 0;
#X connect 222 31 271 0;
#X connect 224 0 272 0;
#X connect 225 0 224 0;
#X connect 226 0 273 0;
#X connect 227 0 226 0;
#X connect 228 0 274 0;
#X connect 229 0 228 0;
#X connect 230 0 275 0;
#X connect 231 0 230 0;
#X connect 232 0 276 0;
#X connect 233 0 232 0;
#X connect 234 0 277 0;
#X connect 235 0 234 0;
#X connect 236 0 278 0;
#X connect 237 0 236 0;
#X connect 238 0 279 0;
#X connect 239 0 238 0;
#X connect 240 0 225 0;
#X connect 241 0 227 0;
#X connect 242 0 229 0;
#X connect 243 0 231 0;
#X connect 244 0 233 0;
#X connect 245 0 235 0;
#X connect 246 0 237 0;
#X connect 247 0 239 0;
#X connect 248 0 280 0;
#X connect 249 0 248 0;
#X connect 250 0 281 0;
#X connect 251 0 250 0;
#X connect 252 0 282 0;
#X connect 253 0 252 0;
#X connect 254 0 283 0;
#X connect 255 0 254 0;
#X connect 256 0 284 0;
#X connect 257 0 256 0;
#X connect 258 0 285 0;
#X connect 259 0 258 0;
#X connect 260 0 286 0;
#X connect 261 0 260 0;
#X connect 262 0 287 0;
#X connect 263 0 262 0;
#X connect 264 0 249 0;
#X connect 265 0 251 0;
#X connect 266 0 253 0;
#X connect 267 0 255 0;
#X connect 268 0 257 0;
#X connect 269 0 259 0;
#X connect 270 0 261 0;
#X connect 271 0 263 0;
#X connect 272 0 223 0;
#X connect 273 0 223 0;
#X connect 274 0 223 0;
#X connect 275 0 223 0;
#X connect 276 0 223 0;
#X connect 277 0 223 0;
#X connect 278 0 223 0;
#X connect 279 0 223 0;
#X connect 280 0 223 0;
#X connect 281 0 223 0;
#X connect 282 0 223 0;
#X connect 283 0 223 0;
#X connect 284 0 223 0;
#X connect 285 0 223 0;
#X connect 286 0 223 0;
#X connect 287 0 223 0;
#X connect 289 0 319 0;
#X connect 291 0 290 0;
#X connect 291 1 290 1;
#X connect 291 2 290 2;
#X connect 293 0 292 0;
#X connect 293 1 292 1;
#X connect 293 2 292 2;
#X connect 294 0 320 0;
#X connect 296 0 295 0;
#X connect 296 1 295 1;
#X connect 296 2 295 2;
#X connect 297 0 329 0;
#X connect 299 0 298 0;
#X connect 299 1 298 1;
#X connect 299 2 298 2;
#X connect 300 0 330 0;
#X connect 301 0 321 0;
#X connect 302 0 322 0;
#X connect 304 0 303 0;
#X connect 304 1 303 1;
#X connect 304 2 303 2;
#X connect 305 0 331 0;
#X connect 307 0 306 0;
#X connect 307 1 306 1;
#X connect 307 2 306 2;
#X connect 308 0 332 0;
#X connect 310 0 309 0;
#X connect 310 1 309 1;
#X connect 310 2 309 2;
#X connect 311 0 333 0;
#X connect 313 0 312 0;
#X connect 313 1 312 1;
#X connect 313 2 312 2;
#X connect 314 0 334 0;
#X connect 315 0 323 0;
#X connect 316 0 324 0;
#X connect 317 0 325 0;
#X connect 318 0 326 0;
#X connect 319 0 337 0;
#X connect 320 0 338 0;
#X connect 321 0 297 0;
#X connect 322 0 300 0;
#X connect 323 0 305 0;
#X connect 324 0 308 0;
#X connect 325 0 311 0;
#X connect 326 0 314 0;
#X connect 327 0 291 0;
#X connect 328 0 293 0;
#X connect 329 0 296 0;
#X connect 330 0 299 0;
#X connect 331 0 304 0;
#X connect 332 0 307 0;
#X connect 333 0 310 0;
#X connect 334 0 313 0;
#X connect 336 0 335 0;
#X connect 337 0 327 0;
#X connect 338 0 328 0;
#X connect 339 0 300 0;
#X connect 339 0 338 0;
#X connect 339 0 337 0;
#X connect 339 0 314 0;
#X connect 339 0 311 0;
#X connect 339 0 308 0;
#X connect 339 0 305 0;
#X connect 339 0 297 0;
#X connect 340 0 184 0;
#X connect 340 0 182 0;
#X connect 340 0 180 0;
#X connect 340 0 178 0;
#X connect 340 0 176 0;
#X connect 340 0 174 0;
#X connect 340 0 172 0;
#X connect 340 0 170 0;
#X connect 340 0 152 0;
#X connect 340 0 150 0;
#X connect 340 0 148 0;
#X connect 340 0 146 0;
#X connect 340 0 144 0;
#X connect 340 0 142 0;
#X connect 340 0 139 0;
#X connect 340 0 137 0;
#X connect 340 0 263 0;
#X connect 340 0 261 0;
#X connect 340 0 259 0;
#X connect 340 0 257 0;
#X connect 340 0 255 0;
#X connect 340 0 253 0;
#X connect 340 0 251 0;
#X connect 340 0 249 0;
#X connect 340 0 239 0;
#X connect 340 0 237 0;
#X connect 340 0 235 0;
#X connect 340 0 233 0;
#X connect 340 0 231 0;
#X connect 340 0 229 0;
#X connect 340 0 227 0;
#X connect 340 0 225 0;
#X connect 341 0 343 0;
#X connect 342 0 341 0;
#X connect 343 0 341 1;
#X connect 343 0 350 0;
#X connect 344 0 346 0;
#X connect 345 0 38 1;
#X connect 345 0 39 0;
#X connect 346 0 343 1;
#X connect 347 0 351 0;
#X connect 348 0 342 0;
#X connect 349 0 348 0;
#X connect 350 0 358 0;
#X connect 351 0 352 0;
#X connect 352 0 355 0;
#X connect 352 0 357 0;
#X connect 353 0 356 0;
#X connect 353 0 356 1;
#X connect 354 0 353 1;
#X connect 355 0 354 0;
#X connect 358 0 347 0;
#X connect 359 0 129 0;
#X connect 359 0 131 0;
#X connect 359 0 130 0;
#X connect 359 0 128 0;
#X connect 359 0 113 0;
#X connect 359 0 112 0;
#X connect 359 0 104 0;
#X connect 359 0 90 0;
#X connect 359 0 289 0;
#X connect 359 0 318 0;
#X connect 359 0 317 0;
#X connect 359 0 316 0;
#X connect 359 0 315 0;
#X connect 359 0 302 0;
#X connect 359 0 301 0;
#X connect 359 0 294 0;
#X connect 360 0 49 1;
#X connect 360 0 50 0;
#X connect 361 0 353 0;
