#N canvas 260 260 1920 1157 12;
#X obj 46 184 phasor~;
#X obj 46 90 sigmund~;
#X obj 36 140 clip 0 127;
#X obj 53 50 +~;
#X obj 1108 336 ad;
#X obj 1023 636 scope;
#X obj 818 333 ad;
#X obj 1317 334 ad;
#X obj 810 477 random 2000;
#X obj 897 475 random 2000;
#X obj 997 474 random 2000;
#X obj 1084 472 random 2000;
#X obj 1171 474 random 2000;
#X obj 1258 472 random 2000;
#X obj 1358 471 random 2000;
#X obj 1445 469 random 2000;
#X obj 1537 468 random 2000;
#X obj 1624 466 random 2000;
#X obj 1724 465 random 2000;
#X obj 1811 463 random 2000;
#X obj 425 650 ad;
#X obj 340 950 scope;
#X obj 135 647 ad;
#X obj 634 648 ad;
#X obj 127 791 random 2000;
#X obj 214 789 random 2000;
#X obj 314 788 random 2000;
#X obj 401 786 random 2000;
#X obj 488 788 random 2000;
#X obj 575 786 random 2000;
#X obj 675 785 random 2000;
#X obj 762 783 random 2000;
#X obj 854 782 random 2000;
#X obj 941 780 random 2000;
#X obj 1041 779 random 2000;
#X obj 1128 777 random 2000;
#X connect 1 0 2 0;
#X connect 2 0 0 0;
#X connect 3 0 1 0;
#X connect 4 0 5 0;
#X connect 4 1 5 0;
#X connect 4 2 7 0;
#X connect 4 2 12 0;
#X connect 4 2 13 0;
#X connect 4 3 7 1;
#X connect 4 3 14 0;
#X connect 4 3 15 0;
#X connect 6 0 5 0;
#X connect 6 1 5 0;
#X connect 6 2 4 0;
#X connect 6 2 8 0;
#X connect 6 2 9 0;
#X connect 6 3 4 1;
#X connect 6 3 10 0;
#X connect 6 3 11 0;
#X connect 7 0 5 0;
#X connect 7 1 5 0;
#X connect 7 2 6 1;
#X connect 7 2 16 0;
#X connect 7 2 17 0;
#X connect 7 3 6 0;
#X connect 7 3 18 0;
#X connect 7 3 19 0;
#X connect 8 0 6 2;
#X connect 9 0 6 3;
#X connect 10 0 6 4;
#X connect 11 0 6 5;
#X connect 12 0 4 2;
#X connect 13 0 4 3;
#X connect 14 0 4 4;
#X connect 15 0 4 5;
#X connect 16 0 7 2;
#X connect 17 0 7 3;
#X connect 18 0 7 4;
#X connect 19 0 7 5;
#X connect 20 0 21 0;
#X connect 20 1 21 0;
#X connect 20 2 23 0;
#X connect 20 2 28 0;
#X connect 20 2 29 0;
#X connect 20 3 23 1;
#X connect 20 3 30 0;
#X connect 20 3 31 0;
#X connect 22 0 21 0;
#X connect 22 1 21 0;
#X connect 22 2 20 0;
#X connect 22 2 24 0;
#X connect 22 2 25 0;
#X connect 22 3 20 1;
#X connect 22 3 26 0;
#X connect 22 3 27 0;
#X connect 23 0 21 0;
#X connect 23 1 21 0;
#X connect 23 2 22 1;
#X connect 23 2 32 0;
#X connect 23 2 33 0;
#X connect 23 3 22 0;
#X connect 23 3 34 0;
#X connect 23 3 35 0;
#X connect 24 0 22 2;
#X connect 25 0 22 3;
#X connect 26 0 22 4;
#X connect 27 0 22 5;
#X connect 28 0 20 2;
#X connect 29 0 20 3;
#X connect 30 0 20 4;
#X connect 31 0 20 5;
#X connect 32 0 23 2;
#X connect 33 0 23 3;
#X connect 34 0 23 4;
#X connect 35 0 23 5;
