#N canvas 740 542 744 553 12;
#X obj 134 385 scope;
#X obj 119 80 phasor~ -1;
#X obj 161 138 fexpr~ $x1[0] > $x1[-1];
#X obj 237 -26 noise~;
#X obj 215 39 lop~ 10;
#X obj 219 97 lop~ 10;
#X obj 159 216 clip~ 0 1;
#X obj 323 340 dac~ 1 2;
#X obj 162 184 hip~ 10000;
#X obj 356 94 vsl 19 162 0 200 0 0 empty empty empty 0 -9 0 12 #fcfcfc #000000 #000000 0 1;
#X obj 157 275 lop~ 1000;
#X obj 315 412 bob~;
#X obj 401 383 scope;
#X obj 386 78 phasor~ -1;
#X obj 428 136 fexpr~ $x1[0] > $x1[-1];
#X obj 504 -28 noise~;
#X obj 482 37 lop~ 10;
#X obj 486 95 lop~ 10;
#X obj 426 214 clip~ 0 1;
#X obj 590 338 dac~ 1 2;
#X obj 429 182 hip~ 10000;
#X obj 623 92 vsl 19 162 0 200 0 0 empty empty empty 0 -9 0 12 #fcfcfc #000000 #000000 0 1;
#X obj 424 273 lop~ 1000;
#X obj 582 410 bob~;
#X obj 525 286 sig~ 2000;
#X obj 258 288 sig~ 1000;
#X obj 607 386 sig~ 3.99;
#X obj 340 388 sig~ 3.99;
#X connect 2 0 8 0;
#X connect 3 0 4 0;
#X connect 4 0 5 0;
#X connect 5 0 2 0;
#X connect 6 0 10 0;
#X connect 8 0 6 0;
#X connect 9 0 5 1;
#X connect 9 0 4 1;
#X connect 10 0 11 0;
#X connect 11 0 0 0;
#X connect 11 0 7 0;
#X connect 11 0 7 1;
#X connect 14 0 20 0;
#X connect 15 0 16 0;
#X connect 16 0 17 0;
#X connect 17 0 14 0;
#X connect 18 0 22 0;
#X connect 20 0 18 0;
#X connect 21 0 17 1;
#X connect 21 0 16 1;
#X connect 22 0 23 0;
#X connect 23 0 12 0;
#X connect 23 0 19 0;
#X connect 23 0 19 1;
#X connect 24 0 23 1;
#X connect 25 0 11 1;
#X connect 26 0 23 2;
#X connect 27 0 11 2;
