#N canvas 1079 0 1436 1723 12;
#X declare -lib Gem;
#X obj 118 180 netreceive -u -b;
#X msg 118 155 listen 10000;
#X obj 118 207 oscparse;
#X obj 118 234 list trim;
#X obj 85 363 pack 0 0;
#X obj 155 363 pack 0 0;
#X obj 232 366 pack 0 0;
#X obj 86 444 vsl 19 162 0 1 0 0 empty empty empty 0 -9 0 12 #fcfcfc #000000 #000000 0 1;
#X obj 154 446 vsl 19 162 0 1 0 0 empty empty empty 0 -9 0 12 #fcfcfc #000000 #000000 0 1;
#X obj 234 447 vsl 19 162 0 1 0 0 empty empty empty 0 -9 0 12 #fcfcfc #000000 #000000 0 1;
#X obj 87 398 line;
#X obj 151 394 line;
#X obj 233 396 line;
#X obj 259 322 /;
#X obj 244 294 swap 10;
#X obj 338 371 pack 0 0;
#X obj 341 437 vsl 19 162 0 1 0 0 empty empty empty 0 -9 0 12 #fcfcfc #000000 #000000 0 1;
#X obj 340 406 line;
#X obj 26 15 declare -lib Gem;
#X obj 26 73 gemwin;
#X msg 26 45 dimen 567 762 \, create \, 1;
#X obj 56 805 rectangle 0 0.1;
#X obj 55 723 gemhead;
#X obj 54 777 translateXYZ 0 2 0;
#X obj 196 804 rectangle 0 0.1;
#X obj 195 722 gemhead;
#X obj 194 776 translateXYZ 0 1.5 0;
#X obj 85 624 * 2;
#X obj 155 628 * 2;
#X obj 232 628 * 2;
#X obj 363 804 rectangle 0 0.1;
#X obj 362 722 gemhead;
#X obj 361 776 translateXYZ 0 1 0;
#X obj 502 801 rectangle 0 0.1;
#X obj 501 719 gemhead;
#X obj 338 633 * 2;
#X obj 500 773 translateXYZ 0 0.5 0;
#X obj 711 725 comport;
#X msg 711 645 devices;
#X msg 728 677 open 8 112500;
#X obj 732 53 vsl 19 162 -5 5 0 0 empty empty empty 0 -9 0 12 #fcfcfc #000000 #000000 0 1;
#X obj 730 251 list fromsymbol;
#X obj 731 227 makefilename %f;
#X obj 730 278 list prepend 111 117 116 112 117 116 91 49 93 46 118 111 108 116 115 32 61 32;
#X obj 705 602 list append 13;
#X obj 766 52 vsl 19 162 -5 5 0 0 empty empty empty 0 -9 0 12 #fcfcfc #000000 #000000 0 1;
#X obj 730 345 list fromsymbol;
#X obj 731 321 makefilename %f;
#X obj 804 52 vsl 19 162 -5 5 0 0 empty empty empty 0 -9 0 12 #fcfcfc #000000 #000000 0 1;
#X obj 729 436 list fromsymbol;
#X obj 730 412 makefilename %f;
#X obj 840 52 vsl 19 162 -5 5 0 0 empty empty empty 0 -9 0 12 #fcfcfc #000000 #000000 0 1;
#X obj 725 527 list fromsymbol;
#X obj 726 503 makefilename %f;
#X obj 730 372 list prepend 111 117 116 112 117 116 91 50 93 46 118 111 108 116 115 32 61 32;
#X obj 729 463 list prepend 111 117 116 112 117 116 91 51 93 46 118 111 108 116 115 32 61 32;
#X obj 725 554 list prepend 111 117 116 112 117 116 91 52 93 46 118 111 108 116 115 32 61 32;
#X obj 425 576 ctlout;
#X msg 409 520 \$1 1 1;
#X obj 409 546 unpack 0 0 0;
#X obj 407 488 * 127;
#X obj 475 488 * 127;
#X msg 477 520 \$1 2 1;
#X obj 540 483 * 127;
#X obj 608 483 * 127;
#X msg 542 515 \$1 3 1;
#X msg 610 515 \$1 4 1;
#X obj 370 1126 *~ 5;
#X obj 351 1240 snapshot~;
#X obj 370 1189 bang~;
#X obj 362 1069 phasor~ 1;
#X obj 118 260 route r g b _samplerate detail move;
#X obj 457 167 vsl 19 162 0 1 0 0 empty empty empty 0 -9 0 12 #fcfcfc #000000 #000000 0 1;
#X obj 456 136 line;
#X obj 520 179 vsl 19 162 0 1 0 0 empty empty empty 0 -9 0 12 #fcfcfc #000000 #000000 0 1;
#X obj 667 825 rectangle 0 0.1;
#X obj 666 743 gemhead;
#X obj 665 797 translateXYZ 0 0 0;
#X obj 538 399 * 2;
#X obj 454 101 pack 0 500;
#X msg 812 643 close;
#X obj 115 667 * 5;
#X obj 128 740 - 5;
#X obj 294 663 * 5;
#X obj 307 736 - 0;
#X obj 454 363 * 8;
#X obj 1047 82 +~ 1;
#X obj 1042 118 /~ 2;
#X obj 1252 57 *~ -1;
#X obj 1252 85 +~ 1;
#X obj 1136 122 snapshot~;
#X obj 1155 71 bang~;
#X obj 1240 124 snapshot~;
#X obj 1224 183 * 5;
#X obj 1281 173 * 5;
#X obj 595 404 * 2;
#X obj 1053 47 osc~ 1;
#X connect 0 0 2 0;
#X connect 1 0 0 0;
#X connect 2 0 3 0;
#X connect 3 0 71 0;
#X connect 4 0 10 0;
#X connect 5 0 11 0;
#X connect 6 0 12 0;
#X connect 7 0 27 0;
#X connect 7 0 60 0;
#X connect 8 0 28 0;
#X connect 8 0 61 0;
#X connect 9 0 29 0;
#X connect 9 0 63 0;
#X connect 10 0 7 0;
#X connect 11 0 8 0;
#X connect 12 0 9 0;
#X connect 13 0 4 1;
#X connect 13 0 5 1;
#X connect 13 0 6 1;
#X connect 13 0 15 1;
#X connect 14 0 13 0;
#X connect 14 1 13 1;
#X connect 15 0 17 0;
#X connect 16 0 35 0;
#X connect 16 0 64 0;
#X connect 17 0 16 0;
#X connect 20 0 19 0;
#X connect 22 0 23 0;
#X connect 23 0 21 0;
#X connect 25 0 26 0;
#X connect 26 0 24 0;
#X connect 27 0 21 1;
#X connect 28 0 24 1;
#X connect 29 0 30 1;
#X connect 29 0 81 0;
#X connect 31 0 32 0;
#X connect 32 0 30 0;
#X connect 34 0 36 0;
#X connect 35 0 33 1;
#X connect 35 0 83 0;
#X connect 36 0 33 0;
#X connect 38 0 37 0;
#X connect 39 0 37 0;
#X connect 40 0 42 0;
#X connect 41 0 43 0;
#X connect 42 0 41 0;
#X connect 43 0 44 0;
#X connect 44 0 37 0;
#X connect 45 0 47 0;
#X connect 46 0 54 0;
#X connect 47 0 46 0;
#X connect 48 0 50 0;
#X connect 49 0 55 0;
#X connect 50 0 49 0;
#X connect 51 0 53 0;
#X connect 52 0 56 0;
#X connect 53 0 52 0;
#X connect 54 0 44 0;
#X connect 55 0 44 0;
#X connect 56 0 44 0;
#X connect 58 0 59 0;
#X connect 59 0 57 0;
#X connect 59 1 57 1;
#X connect 59 2 57 2;
#X connect 60 0 58 0;
#X connect 61 0 62 0;
#X connect 62 0 59 0;
#X connect 63 0 65 0;
#X connect 64 0 66 0;
#X connect 65 0 59 0;
#X connect 66 0 59 0;
#X connect 67 0 68 0;
#X connect 69 0 68 0;
#X connect 70 0 67 0;
#X connect 71 0 4 0;
#X connect 71 1 5 0;
#X connect 71 2 6 0;
#X connect 71 3 14 0;
#X connect 71 4 15 0;
#X connect 71 5 79 0;
#X connect 72 0 85 0;
#X connect 73 0 72 0;
#X connect 74 0 78 0;
#X connect 74 0 95 0;
#X connect 76 0 77 0;
#X connect 77 0 75 0;
#X connect 78 0 75 1;
#X connect 79 0 73 0;
#X connect 80 0 37 0;
#X connect 81 0 82 0;
#X connect 82 0 40 0;
#X connect 83 0 84 0;
#X connect 85 0 74 0;
#X connect 86 0 87 0;
#X connect 87 0 90 0;
#X connect 87 0 88 0;
#X connect 88 0 89 0;
#X connect 89 0 92 0;
#X connect 90 0 93 0;
#X connect 91 0 90 0;
#X connect 91 0 92 0;
#X connect 92 0 94 0;
#X connect 93 0 48 0;
#X connect 94 0 51 0;
#X connect 95 0 45 0;
#X connect 96 0 86 0;
