#N canvas 127 311 1920 1157 12;
#X obj 127 146 fold~;
#X obj 142 463 scope;
#X obj 253 546 dac~ 1 2;
#X obj 372 193 line~;
#X obj 258 291 *~;
#X obj 439 97 bng 19 250 50 0 empty empty empty 0 -10 0 12 #fcfcfc #000000 #000000;
#X obj 282 469 rev3~, f 13;
#X msg 358 392 500;
#X msg 375 171 1 \, 0 \$1;
#X obj 438 46 metro 100;
#X obj 437 8 tgl 19 0 empty empty empty 0 -10 0 12 #fcfcfc #000000 #000000 0 1;
#X obj 549 81 + 100;
#X obj 362 333 *~ 20000;
#X obj 213 231 bob~ 1, f 7;
#X msg 373 425 60;
#X msg 323 421 96;
#X obj 456 379 delread4~ del;
#X obj 463 312 sig~;
#X obj 454 506 delwrite~ del 10000;
#X obj 465 282 random 10000;
#X obj 460 417 lop~ 500;
#X obj 101 110 osc~;
#X obj 302 119 random 200;
#X obj 460 343 lop~ 0.1;
#X obj 348 220 lop~ 1000;
#X obj 85 178 *~;
#X obj 69 75 sig~;
#X obj 48 188 vsl 19 162 0 1 0 0 empty empty empty 0 -9 0 12 #fcfcfc #000000 #000000 0 1;
#X obj 88 280 throw~ self;
#X obj 135 346 catch~ self;
#X obj 495 198 / 1000;
#X obj 509 145 random 1000;
#X obj 608 181 / 1000;
#X obj 610 150 random 1000;
#X obj 577 316 sig~;
#X obj 569 369 lop~ 1;
#X obj 463 458 *~;
#X obj 720 152 random 1000;
#X obj 722 197 sig~;
#X obj 714 250 lop~ 1;
#X obj 130 370 *~;
#X obj 249 385 hip~ 10;
#X obj 417 142 random 1000;
#X obj 563 410 *~ 1.5;
#X obj 330 260 pow~ 8;
#X obj 552 46 random 1000;
#X obj 253 415 *~ 0.25;
#X connect 0 0 13 0;
#X connect 3 0 24 0;
#X connect 4 0 18 0;
#X connect 4 0 41 0;
#X connect 5 0 19 0;
#X connect 5 0 22 0;
#X connect 5 0 31 0;
#X connect 5 0 33 0;
#X connect 5 0 37 0;
#X connect 5 0 42 0;
#X connect 6 0 2 0;
#X connect 6 1 2 1;
#X connect 7 0 6 4;
#X connect 8 0 3 0;
#X connect 9 0 5 0;
#X connect 9 0 45 0;
#X connect 10 0 9 0;
#X connect 11 0 9 1;
#X connect 12 0 13 1;
#X connect 13 0 4 0;
#X connect 14 0 6 5;
#X connect 15 0 6 2;
#X connect 15 0 6 3;
#X connect 16 0 20 0;
#X connect 16 0 41 0;
#X connect 17 0 23 0;
#X connect 19 0 17 0;
#X connect 20 0 36 0;
#X connect 21 0 0 0;
#X connect 21 0 25 0;
#X connect 22 0 26 0;
#X connect 23 0 16 0;
#X connect 24 0 0 1;
#X connect 24 0 44 0;
#X connect 25 0 28 0;
#X connect 26 0 21 0;
#X connect 27 0 25 1;
#X connect 29 0 40 0;
#X connect 30 0 27 0;
#X connect 31 0 30 0;
#X connect 32 0 34 0;
#X connect 33 0 32 0;
#X connect 34 0 35 0;
#X connect 35 0 43 0;
#X connect 36 0 18 0;
#X connect 37 0 38 0;
#X connect 38 0 39 0;
#X connect 39 0 40 1;
#X connect 40 0 21 0;
#X connect 41 0 46 0;
#X connect 42 0 8 0;
#X connect 43 0 36 1;
#X connect 44 0 4 1;
#X connect 44 0 12 0;
#X connect 45 0 11 0;
#X connect 46 0 2 1;
#X connect 46 0 2 0;
#X connect 46 0 6 1;
#X connect 46 0 6 0;
#X connect 46 0 1 0;
