#N canvas 260 0 648 1148 12;
#X obj 213 245 expr~ $v1 >= 0;
#X obj 150 387 samphold~;
#X obj 208 298 abs~;
#X obj 210 273 hip~ 20000;
#X obj 209 328 *~ -1;
#X obj 210 356 +~ 1;
#X obj 210 209 +~;
#X msg 176 208 1;
#X msg 141 208 0;
#X obj 149 237 sig~;
#X obj 218 475 *~;
#X obj 150 417 *~ -1;
#X obj 151 444 +~ 1;
#X obj 132 477 *~;
#X obj 218 506 outlet~;
#X obj 131 504 outlet~;
#X obj 204 152 inlet;
#X obj 154 152 inlet~;
#X connect 0 0 3 0;
#X connect 1 0 11 0;
#X connect 1 0 10 1;
#X connect 2 0 4 0;
#X connect 3 0 2 0;
#X connect 4 0 5 0;
#X connect 5 0 1 1;
#X connect 6 0 0 0;
#X connect 6 0 10 0;
#X connect 6 0 13 0;
#X connect 7 0 9 0;
#X connect 8 0 9 0;
#X connect 9 0 1 0;
#X connect 10 0 14 0;
#X connect 11 0 12 0;
#X connect 12 0 13 1;
#X connect 13 0 15 0;
#X connect 16 0 9 0;
#X connect 17 0 6 0;
